<svg width="50" height="62" viewBox="0 0 50 62" fill="none" xmlns="http://www.w3.org/2000/svg">
<path d="M47.9603 56.3023L36.6633 2.25977L47.9603 13.8621V56.3023Z" fill="white"/>
<path d="M5.45923 4.53035C5.45923 2.84832 6.8419 1.49498 8.52354 1.53104L34.3944 2.08577C35.7934 2.11577 36.9859 3.10899 37.2683 4.47952L48.0112 56.6043C48.3948 58.4655 46.9733 60.2098 45.0729 60.2098H8.45923C6.80238 60.2098 5.45923 58.8667 5.45923 57.2098V4.53035Z" fill="white"/>
<path d="M49.6702 13.703L36.0528 0.293112C35.8696 0.109917 35.6131 0 35.3444 0H10.2223C6.42403 0 3.34636 3.24866 3.34636 7.25452V34.0254H0V52.1739H3.34636V53.8105C3.34636 57.8041 6.43625 61.065 10.2223 61.065H43.1241C46.9223 61.065 50 57.8163 50 53.8105V14.4968C50 14.2037 49.8901 13.9106 49.6702 13.703ZM35.0024 2.24719L46.849 13.9228H40.4006C37.4206 13.9228 35.0024 11.5413 35.0024 8.62237V2.24719ZM47.9238 53.8105C47.9238 56.6072 45.7743 58.8788 43.1241 58.8788H10.2223C7.57206 58.8788 5.42257 56.6072 5.42257 53.8105V52.1739H28.2609C32.7186 52.1739 36.3214 48.107 36.3214 43.0997C36.3214 38.0923 32.7064 34.0254 28.2609 34.0254H5.42257V7.25452C5.42257 4.45774 7.57206 2.18613 10.2223 2.18613H32.9262V8.62237C32.9262 12.7504 36.2726 16.1089 40.4006 16.1089H47.9238V53.8105ZM6.42404 47.6795V38.5198H9.92916C10.9428 38.5198 11.7367 38.7763 12.2985 39.3014C12.8603 39.8266 13.1534 40.5105 13.1534 41.3654C13.1534 42.2203 12.8725 42.9165 12.2985 43.4294C11.7245 43.9424 10.9306 44.211 9.92916 44.211H7.95066V47.6795H6.42404ZM15.0098 47.6795V38.5198H18.0386C19.1988 38.5198 20.1392 38.8862 20.872 39.6067C21.6048 40.3273 21.959 41.2677 21.959 42.4035V43.7958C21.959 44.9438 21.5926 45.872 20.872 46.5926C20.1392 47.3131 19.1988 47.6795 18.0386 47.6795H15.0098ZM29.2501 42.5501V43.7714H25.5618V47.6795H24.023V38.5198H29.8852V39.7411H25.5496V42.5379H29.2501V42.5501Z" fill="#ED1C24"/>
<path d="M11.2116 42.5253C11.4925 42.22 11.639 41.8414 11.639 41.3773C11.639 40.9132 11.4925 40.5223 11.2116 40.217C10.9307 39.9117 10.5032 39.7529 9.92919 39.7529H7.95068V42.9894H9.92919C10.5032 42.9772 10.9184 42.8306 11.2116 42.5253Z" fill="#ED1C24"/>
<path d="M18.0386 39.7529H16.5364V46.4701H18.0386C18.7714 46.4701 19.3576 46.2258 19.785 45.7251C20.2125 45.2244 20.4323 44.5893 20.4323 43.8076V42.4032C20.4323 41.6337 20.2125 40.9987 19.785 40.4979C19.3576 39.9972 18.7714 39.7529 18.0386 39.7529Z" fill="#ED1C24"/>
</svg>
