<svg width="28" height="28" viewBox="0 0 28 28" fill="none" xmlns="http://www.w3.org/2000/svg">
<path fill-rule="evenodd" clip-rule="evenodd" d="M23.9204 4.06903C21.2882 1.44644 17.7879 0.00152067 14.0584 0C6.37414 0 0.119917 6.22382 0.116918 13.8738C0.115843 16.3192 0.757818 18.7061 1.97788 20.8102L0 28L7.39058 26.0706C9.42686 27.176 11.7196 27.7586 14.0529 27.7594H14.0585C14.0581 27.7594 14.059 27.7594 14.0585 27.7594C21.742 27.7594 27.9968 21.535 28 13.8849C28.0014 10.1775 26.5526 6.69152 23.9204 4.06903ZM14.0585 25.4162H14.0538C11.9746 25.4154 9.93522 24.8594 8.15609 23.8087L7.73302 23.5588L3.34734 24.7037L4.51799 20.4482L4.24245 20.0118C3.08255 18.1757 2.46994 16.0536 2.47085 13.8745C2.47334 7.51623 7.67161 2.34335 14.0632 2.34335C17.1582 2.34431 20.0676 3.54547 22.2554 5.72527C24.4431 7.90507 25.6473 10.8025 25.646 13.8839C25.6434 20.2427 20.4453 25.4162 14.0585 25.4162Z" fill="white"/>
<path fill-rule="evenodd" clip-rule="evenodd" d="M20.4146 16.779C20.0663 16.6055 18.3536 15.7669 18.0343 15.6511C17.715 15.5354 17.4828 15.4776 17.2506 15.8246C17.0184 16.1716 16.3508 16.9526 16.1475 17.184C15.9444 17.4153 15.7411 17.4444 15.3928 17.2707C15.0445 17.0972 13.9221 16.7311 12.5916 15.55C11.5559 14.6307 10.8568 13.4955 10.6536 13.1483C10.4504 12.8013 10.632 12.6137 10.8064 12.4408C10.9631 12.2854 11.1547 12.0359 11.3289 11.8334C11.5031 11.6311 11.5611 11.4863 11.6773 11.2551C11.7934 11.0237 11.7354 10.8212 11.6482 10.6478C11.5611 10.4743 10.8645 8.76783 10.5742 8.07356C10.2914 7.39765 10.0042 7.48923 9.79038 7.47847C9.5875 7.46839 9.35496 7.46631 9.12277 7.46631C8.89057 7.46631 8.51311 7.5531 8.19387 7.90009C7.87459 8.2472 6.97461 9.08599 6.97461 10.7922C6.97461 12.4987 8.22285 14.1472 8.39704 14.3785C8.57117 14.61 10.8534 18.1116 14.3478 19.6133C15.1789 19.9706 15.8278 20.1838 16.3337 20.3436C17.1682 20.6075 17.9276 20.5702 18.5278 20.4809C19.1971 20.3814 20.5888 19.6423 20.8791 18.8326C21.1694 18.0227 21.1694 17.3285 21.0822 17.184C20.9952 17.0394 20.7629 16.9526 20.4146 16.779Z" fill="white"/>
</svg>
