<svg width="555" height="242" viewBox="0 0 555 242" fill="none" xmlns="http://www.w3.org/2000/svg">
<g clip-path="url(#clip0_56_111)">
<path d="M141.97 6.73853H87.5237V34.2785H141.97V6.73853Z" stroke="#565656"/>
<path d="M362.097 6.73853H307.65V34.2785H362.097V6.73853Z" stroke="#565656"/>
<path d="M197.002 6.73853H142.555V34.2785H197.002V6.73853Z" stroke="#565656"/>
<path d="M417.128 6.73853H362.682V34.2785H417.128V6.73853Z" stroke="#565656"/>
<path d="M252.033 6.73853H197.587V34.2785H252.033V6.73853Z" stroke="#565656"/>
<path d="M472.16 6.73853H417.714V34.2785H472.16V6.73853Z" stroke="#565656"/>
<path d="M307.065 6.73853H252.619V34.2785H307.065V6.73853Z" stroke="#565656"/>
<path d="M527.192 6.73853H472.745V34.2785H527.192V6.73853Z" stroke="#565656"/>
<path d="M554.707 6.73853H527.777V34.2785H554.707V6.73853Z" stroke="#565656"/>
<path d="M141.97 34.8645H87.5237V62.4045H141.97V34.8645Z" stroke="#565656"/>
<path d="M362.097 34.8645H307.65V62.4045H362.097V34.8645Z" stroke="#565656"/>
<path d="M197.002 34.8645H142.555V62.4045H197.002V34.8645Z" stroke="#565656"/>
<path d="M417.128 34.8645H362.682V62.4045H417.128V34.8645Z" stroke="#565656"/>
<path d="M252.033 34.8645H197.587V62.4045H252.033V34.8645Z" stroke="#565656"/>
<path d="M472.16 34.8645H417.714V62.4045H472.16V34.8645Z" stroke="#565656"/>
<path d="M307.065 34.8645H252.619V62.4045H307.065V34.8645Z" stroke="#565656"/>
<path d="M527.192 34.8645H472.745V62.4045H527.192V34.8645Z" stroke="#565656"/>
<path d="M554.707 34.8645H527.777V62.4045H554.707V34.8645Z" stroke="#565656"/>
<path d="M141.97 62.9902H87.5237V90.5302H141.97V62.9902Z" stroke="#565656"/>
<path d="M362.097 62.9902H307.65V90.5302H362.097V62.9902Z" stroke="#565656"/>
<path d="M197.002 62.9902H142.555V90.5302H197.002V62.9902Z" stroke="#565656"/>
<path d="M417.128 62.9902H362.682V90.5302H417.128V62.9902Z" stroke="#565656"/>
<path d="M252.033 62.9902H197.587V90.5302H252.033V62.9902Z" stroke="#565656"/>
<path d="M472.16 62.9902H417.714V90.5302H472.16V62.9902Z" stroke="#565656"/>
<path d="M307.065 62.9902H252.619V90.5302H307.065V62.9902Z" stroke="#565656"/>
<path d="M527.192 62.9902H472.745V90.5302H527.192V62.9902Z" stroke="#565656"/>
<path d="M554.707 62.9902H527.777V90.5302H554.707V62.9902Z" stroke="#565656"/>
<path d="M141.97 91.1162H87.5237V118.656H141.97V91.1162Z" stroke="#565656"/>
<path d="M362.097 91.1162H307.65V118.656H362.097V91.1162Z" stroke="#565656"/>
<path d="M197.002 91.1162H142.555V118.656H197.002V91.1162Z" stroke="#565656"/>
<path d="M417.128 91.1162H362.682V118.656H417.128V91.1162Z" stroke="#565656"/>
<path d="M252.033 91.1162H197.587V118.656H252.033V91.1162Z" stroke="#565656"/>
<path d="M472.16 91.1162H417.714V118.656H472.16V91.1162Z" stroke="#565656"/>
<path d="M307.065 91.1162H252.619V118.656H307.065V91.1162Z" stroke="#565656"/>
<path d="M527.192 91.1162H472.745V118.656H527.192V91.1162Z" stroke="#565656"/>
<path d="M554.707 91.1162H527.777V118.656H554.707V91.1162Z" stroke="#565656"/>
<path d="M141.97 119.242H87.5237V146.782H141.97V119.242Z" stroke="#565656"/>
<path d="M362.097 119.242H307.65V146.782H362.097V119.242Z" stroke="#565656"/>
<path d="M197.002 119.242H142.555V146.782H197.002V119.242Z" stroke="#565656"/>
<path d="M417.128 119.242H362.682V146.782H417.128V119.242Z" stroke="#565656"/>
<path d="M252.033 119.242H197.587V146.782H252.033V119.242Z" stroke="#565656"/>
<path d="M472.16 119.242H417.714V146.782H472.16V119.242Z" stroke="#565656"/>
<path d="M307.065 119.242H252.619V146.782H307.065V119.242Z" stroke="#565656"/>
<path d="M527.192 119.242H472.745V146.782H527.192V119.242Z" stroke="#565656"/>
<path d="M554.707 119.242H527.777V146.782H554.707V119.242Z" stroke="#565656"/>
<path d="M141.97 147.368H87.5237V174.908H141.97V147.368Z" stroke="#565656"/>
<path d="M362.097 147.368H307.65V174.908H362.097V147.368Z" stroke="#565656"/>
<path d="M197.002 147.368H142.555V174.908H197.002V147.368Z" stroke="#565656"/>
<path d="M417.128 147.368H362.682V174.908H417.128V147.368Z" stroke="#565656"/>
<path d="M252.033 147.368H197.587V174.908H252.033V147.368Z" stroke="#565656"/>
<path d="M472.16 147.368H417.714V174.908H472.16V147.368Z" stroke="#565656"/>
<path d="M307.065 147.368H252.619V174.908H307.065V147.368Z" stroke="#565656"/>
<path d="M527.192 147.368H472.745V174.908H527.192V147.368Z" stroke="#565656"/>
<path d="M554.707 147.368H527.777V174.908H554.707V147.368Z" stroke="#565656"/>
<path d="M40.0322 179.49C39.3636 179.49 38.7873 179.331 38.3033 179.014C37.8193 178.695 37.4464 178.236 37.1844 177.64C36.9225 177.04 36.7927 176.32 36.7952 175.479C36.7977 174.637 36.9287 173.923 37.1881 173.336C37.4501 172.747 37.8218 172.299 38.3033 171.992C38.7873 171.682 39.3636 171.527 40.0322 171.527C40.7008 171.527 41.2771 171.682 41.7611 171.992C42.2476 172.299 42.6218 172.747 42.8837 173.336C43.1457 173.925 43.2754 174.64 43.273 175.479C43.273 176.323 43.142 177.044 42.88 177.643C42.6181 178.243 42.2451 178.701 41.7611 179.018C41.2796 179.333 40.7033 179.49 40.0322 179.49ZM40.0322 177.973C40.4314 177.973 40.7544 177.77 41.0014 177.363C41.2484 176.953 41.3707 176.325 41.3682 175.479C41.3682 174.924 41.312 174.467 41.1998 174.108C41.0875 173.746 40.9316 173.476 40.732 173.299C40.5324 173.121 40.2991 173.033 40.0322 173.033C39.6355 173.033 39.3149 173.234 39.0705 173.636C38.826 174.036 38.7025 174.65 38.7 175.479C38.6975 176.041 38.7512 176.506 38.8609 176.876C38.9732 177.245 39.1304 177.521 39.3324 177.704C39.5345 177.883 39.7678 177.973 40.0322 177.973ZM45.0486 179.411C44.7792 179.411 44.5484 179.316 44.3563 179.127C44.1667 178.937 44.0731 178.707 44.0756 178.437C44.0731 178.173 44.1667 177.947 44.3563 177.759C44.5484 177.57 44.7792 177.475 45.0486 177.475C45.3031 177.475 45.5276 177.57 45.7222 177.759C45.9193 177.947 46.0191 178.173 46.0215 178.437C46.0191 178.617 45.9717 178.781 45.8793 178.928C45.7895 179.075 45.671 179.193 45.5239 179.28C45.3791 179.368 45.2207 179.411 45.0486 179.411ZM50.0557 179.49C49.387 179.49 48.8107 179.331 48.3267 179.014C47.8427 178.695 47.4698 178.236 47.2078 177.64C46.9459 177.04 46.8162 176.32 46.8186 175.479C46.8211 174.637 46.9521 173.923 47.2116 173.336C47.4735 172.747 47.8453 172.299 48.3267 171.992C48.8107 171.682 49.387 171.527 50.0557 171.527C50.7242 171.527 51.3005 171.682 51.7845 171.992C52.271 172.299 52.6453 172.747 52.9072 173.336C53.1691 173.925 53.2988 174.64 53.2964 175.479C53.2964 176.323 53.1654 177.044 52.9034 177.643C52.6415 178.243 52.2685 178.701 51.7845 179.018C51.303 179.333 50.7268 179.49 50.0557 179.49ZM50.0557 177.973C50.4548 177.973 50.7779 177.77 51.0249 177.363C51.2719 176.953 51.3941 176.325 51.3916 175.479C51.3916 174.924 51.3354 174.467 51.2232 174.108C51.1109 173.746 50.955 173.476 50.7554 173.299C50.5559 173.121 50.3226 173.033 50.0557 173.033C49.659 173.033 49.3384 173.234 49.0939 173.636C48.8494 174.036 48.7259 174.65 48.7234 175.479C48.7209 176.041 48.7745 176.506 48.8843 176.876C48.9966 177.245 49.1538 177.521 49.3558 177.704C49.5579 177.883 49.7912 177.973 50.0557 177.973Z" fill="white"/>
<path d="M40.0322 151.364C39.3636 151.364 38.7873 151.205 38.3033 150.888C37.8193 150.569 37.4464 150.11 37.1844 149.514C36.9225 148.914 36.7927 148.194 36.7952 147.353C36.7977 146.511 36.9287 145.797 37.1881 145.21C37.4501 144.621 37.8218 144.173 38.3033 143.866C38.7873 143.556 39.3636 143.401 40.0322 143.401C40.7008 143.401 41.2771 143.556 41.7611 143.866C42.2476 144.173 42.6218 144.621 42.8837 145.21C43.1457 145.799 43.2754 146.514 43.273 147.353C43.273 148.197 43.142 148.918 42.88 149.517C42.6181 150.117 42.2451 150.575 41.7611 150.892C41.2796 151.207 40.7033 151.364 40.0322 151.364ZM40.0322 149.847C40.4314 149.847 40.7544 149.644 41.0014 149.237C41.2484 148.827 41.3707 148.199 41.3682 147.353C41.3682 146.799 41.312 146.341 41.1998 145.982C41.0875 145.62 40.9316 145.35 40.732 145.173C40.5324 144.996 40.2991 144.907 40.0322 144.907C39.6355 144.907 39.3149 145.108 39.0705 145.51C38.826 145.91 38.7025 146.524 38.7 147.353C38.6975 147.915 38.7512 148.38 38.8609 148.75C38.9732 149.119 39.1304 149.395 39.3324 149.578C39.5345 149.757 39.7678 149.847 40.0322 149.847ZM45.0486 151.285C44.7792 151.285 44.5484 151.19 44.3563 151.001C44.1667 150.811 44.0731 150.581 44.0756 150.311C44.0731 150.047 44.1667 149.821 44.3563 149.633C44.5484 149.444 44.7792 149.349 45.0486 149.349C45.3031 149.349 45.5276 149.444 45.7222 149.633C45.9193 149.821 46.0191 150.047 46.0215 150.311C46.0191 150.491 45.9717 150.655 45.8793 150.802C45.7895 150.949 45.671 151.067 45.5239 151.155C45.3791 151.242 45.2207 151.285 45.0486 151.285ZM47.2153 151.177V149.843L50.0108 147.394C50.2203 147.204 50.3987 147.031 50.5459 146.874C50.693 146.714 50.8053 146.554 50.8827 146.394C50.96 146.231 50.9987 146.056 50.9987 145.866C50.9987 145.654 50.9525 145.472 50.8602 145.322C50.7679 145.17 50.6406 145.053 50.4785 144.97C50.3164 144.888 50.1305 144.847 49.9209 144.847C49.7088 144.847 49.523 144.891 49.3633 144.978C49.2037 145.063 49.0789 145.187 48.9891 145.349C48.9018 145.511 48.8581 145.709 48.8581 145.941H47.103C47.103 145.419 47.2203 144.968 47.4548 144.588C47.6894 144.209 48.0187 143.917 48.4428 143.712C48.8694 143.505 49.3646 143.401 49.9284 143.401C50.5097 143.401 51.0149 143.498 51.444 143.694C51.8731 143.888 52.2049 144.161 52.4394 144.51C52.6764 144.857 52.7949 145.26 52.7949 145.72C52.7949 146.012 52.7363 146.302 52.619 146.589C52.5018 146.876 52.2909 147.193 51.9866 147.54C51.6847 147.887 51.2556 148.303 50.6993 148.787L49.7824 149.633V149.683H52.8884V151.177H47.2153Z" fill="white"/>
<path d="M40.0322 123.238C39.3636 123.238 38.7873 123.08 38.3033 122.762C37.8193 122.443 37.4464 121.984 37.1844 121.388C36.9225 120.788 36.7927 120.068 36.7952 119.227C36.7977 118.385 36.9287 117.671 37.1881 117.084C37.4501 116.495 37.8218 116.047 38.3033 115.74C38.7873 115.43 39.3636 115.275 40.0322 115.275C40.7008 115.275 41.2771 115.43 41.7611 115.74C42.2476 116.047 42.6218 116.495 42.8837 117.084C43.1457 117.673 43.2754 118.388 43.273 119.227C43.273 120.071 43.142 120.793 42.88 121.391C42.6181 121.991 42.2451 122.449 41.7611 122.766C41.2796 123.081 40.7033 123.238 40.0322 123.238ZM40.0322 121.721C40.4314 121.721 40.7544 121.518 41.0014 121.111C41.2484 120.701 41.3707 120.073 41.3682 119.227C41.3682 118.673 41.312 118.215 41.1998 117.856C41.0875 117.494 40.9316 117.224 40.732 117.047C40.5324 116.87 40.2991 116.781 40.0322 116.781C39.6355 116.781 39.3149 116.982 39.0705 117.384C38.826 117.784 38.7025 118.398 38.7 119.227C38.6975 119.789 38.7512 120.254 38.8609 120.624C38.9732 120.993 39.1304 121.269 39.3324 121.452C39.5345 121.631 39.7678 121.721 40.0322 121.721ZM45.0486 123.159C44.7792 123.159 44.5484 123.064 44.3563 122.875C44.1667 122.685 44.0731 122.455 44.0757 122.185C44.0731 121.921 44.1667 121.695 44.3563 121.507C44.5484 121.318 44.7792 121.223 45.0486 121.223C45.3031 121.223 45.5276 121.318 45.7222 121.507C45.9193 121.695 46.0191 121.921 46.0216 122.185C46.0191 122.365 45.9717 122.529 45.8793 122.676C45.7895 122.823 45.671 122.941 45.5239 123.029C45.3791 123.116 45.2207 123.159 45.0486 123.159ZM47.1218 121.778V120.331L50.2614 115.38H51.545V117.343H50.8003L48.9629 120.257V120.317H53.5097V121.778H47.1218ZM50.8228 123.051V121.335L50.8602 120.702V115.38H52.5929V123.051H50.8228Z" fill="white"/>
<path d="M40.0322 95.1126C39.3636 95.1126 38.7873 94.9538 38.3033 94.6368C37.8193 94.3168 37.4464 93.8586 37.1844 93.2621C36.9225 92.6627 36.7927 91.9425 36.7952 91.1011C36.7977 90.2597 36.9287 89.5454 37.1881 88.9583C37.4501 88.3694 37.8218 87.9211 38.3033 87.6141C38.7873 87.3041 39.3636 87.1494 40.0322 87.1494C40.7008 87.1494 41.2771 87.3041 41.7611 87.6141C42.2476 87.9211 42.6218 88.3694 42.8837 88.9583C43.1457 89.5477 43.2754 90.262 43.273 91.1011C43.273 91.9449 43.142 92.6668 42.88 93.2656C42.6181 93.8651 42.2451 94.3233 41.7611 94.6403C41.2796 94.9549 40.7033 95.1126 40.0322 95.1126ZM40.0322 93.5955C40.4314 93.5955 40.7544 93.3922 41.0014 92.985C41.2484 92.5754 41.3707 91.9472 41.3682 91.1011C41.3682 90.5468 41.312 90.0897 41.1998 89.73C41.0875 89.3678 40.9316 89.0983 40.732 88.9213C40.5324 88.7438 40.2991 88.6553 40.0322 88.6553C39.6355 88.6553 39.3149 88.8563 39.0705 89.2583C38.826 89.6579 38.7025 90.272 38.7 91.1011C38.6975 91.663 38.7512 92.1283 38.8609 92.498C38.9732 92.8678 39.1304 93.1437 39.3324 93.326C39.5345 93.5053 39.7678 93.5955 40.0322 93.5955ZM45.0486 95.0335C44.7792 95.0335 44.5484 94.9385 44.3563 94.7493C44.1667 94.5594 44.0731 94.3297 44.0756 94.0596C44.0731 93.7953 44.1667 93.5692 44.3563 93.3816C44.5484 93.1924 44.7792 93.0975 45.0486 93.0975C45.3031 93.0975 45.5276 93.1924 45.7222 93.3816C45.9193 93.5692 46.0191 93.7953 46.0215 94.0596C46.0191 94.2395 45.9717 94.403 45.8793 94.5506C45.7895 94.6977 45.671 94.8149 45.5239 94.9028C45.3791 94.9901 45.2207 95.0335 45.0486 95.0335ZM49.9584 95.0299C49.5392 95.0299 49.1376 94.9626 48.7533 94.8278C48.3692 94.6901 48.0274 94.4733 47.728 94.1762C47.4286 93.8762 47.1928 93.4842 47.0207 92.9996C46.8486 92.5133 46.7638 91.9197 46.7662 91.2206C46.7687 90.589 46.8461 90.0224 46.9983 89.5202C47.1505 89.0157 47.3675 88.5879 47.6494 88.2358C47.9338 87.8836 48.2731 87.6153 48.6673 87.4307C49.064 87.2432 49.5068 87.1494 49.9958 87.1494C50.5322 87.1494 51.0049 87.2543 51.4141 87.4641C51.8257 87.6715 52.155 87.951 52.402 88.3032C52.6489 88.6524 52.7949 89.0421 52.8398 89.4716H51.0174C50.9625 89.2296 50.8415 89.0462 50.6544 88.9213C50.4697 88.7936 50.2502 88.7303 49.9958 88.7303C49.5267 88.7303 49.1762 88.9337 48.9442 89.3403C48.7147 89.7475 48.5974 90.2919 48.5925 90.9734H48.6411C48.7458 90.7437 48.8968 90.5468 49.0939 90.3816C49.291 90.2169 49.5168 90.0909 49.7713 90.0036C50.0282 89.9134 50.3001 89.8688 50.587 89.8688C51.0461 89.8688 51.4515 89.9749 51.8032 90.187C52.155 90.3991 52.4307 90.6904 52.6303 91.0595C52.8298 91.4269 52.9284 91.8476 52.9259 92.3222C52.9284 92.856 52.8036 93.3283 52.5517 93.7379C52.2997 94.1446 51.9504 94.4622 51.5039 94.6889C51.0598 94.9163 50.5446 95.0299 49.9584 95.0299ZM49.9471 93.6067C50.1742 93.6067 50.3775 93.5528 50.5571 93.4455C50.7367 93.3383 50.8777 93.1924 50.98 93.0072C51.0822 92.8226 51.1321 92.614 51.1297 92.382C51.1321 92.147 51.0822 91.9384 50.98 91.7562C50.8801 91.574 50.7405 91.4292 50.5608 91.322C50.3837 91.2148 50.1804 91.1609 49.9509 91.1609C49.7837 91.1609 49.6278 91.1919 49.4831 91.2546C49.3384 91.3167 49.2124 91.404 49.1051 91.5165C49.0003 91.6267 48.918 91.7562 48.8581 91.9062C48.7982 92.0533 48.7671 92.2133 48.7646 92.3855C48.7671 92.6129 48.8194 92.8191 48.9218 93.0037C49.024 93.1883 49.1637 93.3359 49.3409 93.4455C49.518 93.5528 49.7201 93.6067 49.9471 93.6067Z" fill="white"/>
<path d="M40.0322 66.9866C39.3636 66.9866 38.7873 66.8278 38.3033 66.5108C37.8193 66.1909 37.4464 65.7326 37.1844 65.1361C36.9225 64.5367 36.7927 63.8166 36.7952 62.9751C36.7977 62.1337 36.9287 61.4194 37.1881 60.8323C37.4501 60.2434 37.8218 59.7951 38.3033 59.4881C38.7873 59.1781 39.3636 59.0234 40.0322 59.0234C40.7008 59.0234 41.2771 59.1781 41.7611 59.4881C42.2476 59.7951 42.6218 60.2434 42.8837 60.8323C43.1457 61.4218 43.2754 62.136 43.273 62.9751C43.273 63.8189 43.142 64.5408 42.88 65.1396C42.6181 65.7391 42.2451 66.1973 41.7611 66.5143C41.2796 66.829 40.7033 66.9866 40.0322 66.9866ZM40.0322 65.4695C40.4314 65.4695 40.7544 65.2662 41.0014 64.859C41.2484 64.4494 41.3707 63.8212 41.3682 62.9751C41.3682 62.4208 41.312 61.9638 41.1998 61.604C41.0875 61.2419 40.9316 60.9723 40.732 60.7954C40.5324 60.6178 40.2991 60.5293 40.0322 60.5293C39.6355 60.5293 39.3149 60.7303 39.0705 61.1323C38.826 61.5319 38.7025 62.146 38.7 62.9751C38.6975 63.5371 38.7512 64.0023 38.8609 64.372C38.9732 64.7418 39.1304 65.0178 39.3324 65.2C39.5345 65.3793 39.7678 65.4695 40.0322 65.4695ZM45.0486 66.9075C44.7792 66.9075 44.5484 66.8126 44.3563 66.6233C44.1667 66.4334 44.0731 66.2037 44.0756 65.9336C44.0731 65.6694 44.1667 65.4432 44.3563 65.2557C44.5484 65.0664 44.7792 64.9715 45.0486 64.9715C45.3031 64.9715 45.5276 65.0664 45.7222 65.2557C45.9193 65.4432 46.0191 65.6694 46.0215 65.9336C46.0191 66.1135 45.9717 66.277 45.8793 66.4247C45.7895 66.5717 45.671 66.6889 45.5239 66.7768C45.3791 66.8641 45.2207 66.9075 45.0486 66.9075ZM49.8797 66.904C49.2835 66.904 48.7509 66.809 48.2818 66.6192C47.8153 66.427 47.4486 66.1674 47.1817 65.8405C46.9172 65.5106 46.785 65.1385 46.785 64.7242C46.785 64.4072 46.8611 64.116 47.0132 63.8511C47.1654 63.5869 47.3712 63.3671 47.6307 63.1919C47.8927 63.015 48.1845 62.9013 48.5063 62.8515V62.7917C48.0848 62.7138 47.7392 62.5181 47.4698 62.2034C47.2029 61.8888 47.0694 61.5202 47.0694 61.0983C47.0694 60.6987 47.1904 60.343 47.4323 60.0313C47.6768 59.719 48.0099 59.4729 48.4315 59.293C48.8556 59.1137 49.3384 59.0234 49.8797 59.0234C50.4211 59.0234 50.9026 59.1137 51.3243 59.293C51.7483 59.4729 52.0814 59.719 52.3234 60.0313C52.5679 60.343 52.6902 60.6987 52.6902 61.0983C52.6902 61.5231 52.5542 61.8923 52.2822 62.2069C52.0128 62.5193 51.6698 62.7138 51.2531 62.7917V62.8515C51.5725 62.9013 51.8619 63.015 52.1213 63.1919C52.3833 63.3671 52.5903 63.5869 52.7425 63.8511C52.8972 64.116 52.9746 64.4072 52.9746 64.7242C52.9746 65.1385 52.8411 65.5106 52.5741 65.8405C52.3072 66.1674 51.9404 66.427 51.4739 66.6192C51.0099 66.809 50.4785 66.904 49.8797 66.904ZM49.8797 65.5891C50.1068 65.5891 50.3063 65.5469 50.4785 65.4619C50.6506 65.3746 50.7854 65.2533 50.8827 65.0986C50.9825 64.9439 51.0324 64.7693 51.0324 64.5742C51.0324 64.3744 50.9825 64.1974 50.8827 64.0422C50.7828 63.8875 50.6457 63.7668 50.471 63.6789C50.2989 63.5892 50.1018 63.5441 49.8797 63.5441C49.6602 63.5441 49.4631 63.5892 49.2885 63.6789C49.1139 63.7668 48.9766 63.8875 48.8769 64.0422C48.7771 64.1974 48.7272 64.3744 48.7272 64.5742C48.7272 64.7693 48.7758 64.9439 48.8731 65.0986C48.9729 65.251 49.1089 65.3705 49.281 65.4584C49.4556 65.5457 49.6552 65.5891 49.8797 65.5891ZM49.8797 62.2368C50.0743 62.2368 50.2465 62.197 50.3962 62.1173C50.5484 62.0376 50.6669 61.9263 50.7517 61.7839C50.839 61.6415 50.8827 61.4803 50.8827 61.3005C50.8827 61.1212 50.839 60.9624 50.7517 60.8253C50.6669 60.6876 50.5496 60.5803 50.3999 60.503C50.2502 60.4233 50.0768 60.3829 49.8797 60.3829C49.6851 60.3829 49.5118 60.4233 49.3596 60.503C49.2074 60.5803 49.0889 60.6876 49.0041 60.8253C48.9193 60.9624 48.8769 61.1212 48.8769 61.3005C48.8769 61.4803 48.9193 61.6415 49.0041 61.7839C49.0914 61.9239 49.2112 62.0347 49.3633 62.1173C49.5155 62.197 49.6876 62.2368 49.8797 62.2368Z" fill="white"/>
<path d="M40.4063 31.0023V38.673H38.5577V32.7327H38.5128L36.7988 33.7815V32.1784L38.6886 31.0023H40.4063ZM42.7536 38.7817C42.4841 38.7817 42.2534 38.6868 42.0613 38.497C41.8717 38.3072 41.7781 38.0775 41.7806 37.8078C41.7781 37.5431 41.8717 37.3172 42.0613 37.1299C42.2534 36.9401 42.4841 36.8453 42.7536 36.8453C43.008 36.8453 43.2326 36.9401 43.4272 37.1299C43.6243 37.3172 43.724 37.5431 43.7265 37.8078C43.724 37.9877 43.6767 38.1512 43.5843 38.2985C43.4945 38.4458 43.376 38.5632 43.2289 38.6505C43.0841 38.738 42.9257 38.7817 42.7536 38.7817ZM47.7606 38.8603C47.092 38.8603 46.5157 38.7018 46.0317 38.3846C45.5477 38.0651 45.1748 37.6068 44.9128 37.01C44.6509 36.4108 44.5212 35.6904 44.5236 34.8489C44.5261 34.0074 44.6571 33.2933 44.9166 32.7065C45.1785 32.1172 45.5503 31.669 46.0317 31.3619C46.5157 31.0523 47.092 30.8975 47.7606 30.8975C48.4292 30.8975 49.0056 31.0523 49.4895 31.3619C49.976 31.669 50.3502 32.1172 50.6122 32.7065C50.8741 33.2958 51.0038 34.0099 51.0013 34.8489C51.0013 35.6929 50.8704 36.4145 50.6084 37.0138C50.3464 37.6131 49.9735 38.0713 49.4895 38.3884C49.008 38.703 48.4317 38.8603 47.7606 38.8603ZM47.7606 37.3434C48.1598 37.3434 48.4829 37.1399 48.7299 36.7329C48.9768 36.3234 49.0991 35.6954 49.0966 34.8489C49.0966 34.2946 49.0404 33.8377 48.9282 33.4781C48.8159 33.116 48.66 32.8464 48.4604 32.6691C48.2608 32.4918 48.0276 32.4031 47.7606 32.4031C47.364 32.4031 47.0434 32.6042 46.7989 33.0061C46.5544 33.4057 46.4309 34.0199 46.4284 34.8489C46.4259 35.4107 46.4795 35.8765 46.5893 36.246C46.7016 36.6155 46.8588 36.8914 47.0608 37.0737C47.2629 37.2535 47.4962 37.3434 47.7606 37.3434Z" fill="white"/>
<path d="M40.4063 2.8766V10.5473H38.5577V4.60701H38.5128L36.7988 5.65574V4.05268L38.6886 2.8766H40.4063ZM42.7536 10.6559C42.4841 10.6559 42.2534 10.561 42.0613 10.3713C41.8717 10.1815 41.7781 9.9518 41.7806 9.68208C41.7781 9.41741 41.8717 9.19146 42.0613 9.00419C42.2534 8.8144 42.4841 8.71953 42.7536 8.71953C43.008 8.71953 43.2326 8.8144 43.4272 9.00419C43.6243 9.19146 43.724 9.41741 43.7265 9.68208C43.724 9.86191 43.6767 10.0255 43.5843 10.1728C43.4945 10.3201 43.376 10.4374 43.2289 10.5248C43.0841 10.6122 42.9257 10.6559 42.7536 10.6559ZM44.9203 10.5473V9.2139L47.7157 6.76437C47.9253 6.57464 48.1037 6.40108 48.2509 6.24375C48.398 6.08396 48.5103 5.92417 48.5877 5.76435C48.665 5.60205 48.7036 5.42601 48.7036 5.23624C48.7036 5.024 48.6575 4.84297 48.5652 4.69315C48.4729 4.54084 48.3456 4.42348 48.1835 4.34108C48.0213 4.25868 47.8355 4.21748 47.6259 4.21748C47.4138 4.21748 47.228 4.26118 47.0683 4.34857C46.9087 4.43347 46.7839 4.55707 46.6941 4.71937C46.6068 4.88168 46.5631 5.07893 46.5631 5.31115H44.808C44.808 4.78929 44.9253 4.33858 45.1598 3.95904C45.3943 3.5795 45.7236 3.28735 46.1478 3.0826C46.5744 2.87535 47.0695 2.77173 47.6334 2.77173C48.2147 2.77173 48.7199 2.86911 49.149 3.06387C49.5781 3.25864 49.9099 3.53081 50.1444 3.88039C50.3814 4.22747 50.4999 4.63073 50.4999 5.09017C50.4999 5.38232 50.4413 5.67197 50.324 5.95909C50.2068 6.24627 49.9959 6.56339 49.6916 6.91045C49.3897 7.25757 48.9606 7.67331 48.4043 8.15772L47.4874 9.00419V9.05288H50.5934V10.5473H44.9203Z" fill="white"/>
<path d="M80.1736 203.432C79.5893 203.432 79.0718 203.332 78.6204 203.132C78.1714 202.93 77.8172 202.651 77.5578 202.297C77.2979 201.942 77.1662 201.534 77.1609 201.072H79.0244C79.032 201.239 79.0858 201.388 79.1854 201.518C79.2855 201.645 79.4213 201.745 79.5934 201.817C79.7655 201.89 79.9611 201.926 80.1806 201.926C80.4001 201.926 80.5939 201.887 80.7608 201.81C80.9306 201.73 81.0629 201.621 81.1577 201.484C81.2526 201.344 81.2982 201.185 81.2959 201.005C81.2982 200.825 81.2473 200.665 81.1425 200.525C81.0377 200.385 80.8896 200.277 80.697 200.2C80.5079 200.122 80.2831 200.083 80.0237 200.083H79.279V198.765H80.0237C80.2509 198.765 80.4505 198.728 80.6226 198.653C80.7971 198.578 80.9329 198.473 81.0301 198.338C81.1279 198.2 81.1753 198.043 81.1723 197.866C81.1753 197.694 81.1337 197.543 81.0488 197.413C80.9669 197.28 80.8509 197.178 80.7011 197.106C80.5535 197.033 80.3832 196.997 80.1882 196.997C79.9839 196.997 79.7977 197.033 79.6309 197.106C79.4664 197.178 79.3352 197.28 79.238 197.413C79.1403 197.545 79.0893 197.699 79.0847 197.873H77.3143C77.3195 197.416 77.4466 197.014 77.696 196.668C77.9454 196.318 78.2849 196.045 78.7141 195.847C79.1455 195.65 79.6367 195.551 80.1882 195.551C80.7374 195.551 81.2198 195.647 81.6366 195.84C82.0534 196.032 82.3778 196.294 82.6096 196.626C82.8414 196.956 82.9574 197.329 82.9574 197.746C82.9603 198.178 82.8192 198.534 82.5347 198.814C82.2525 199.093 81.8895 199.266 81.4457 199.331V199.39C82.0394 199.46 82.4872 199.652 82.7893 199.967C83.0938 200.282 83.2442 200.675 83.2419 201.147C83.2419 201.591 83.1107 201.986 82.8491 202.331C82.5897 202.673 82.2279 202.943 81.7636 203.139C81.3023 203.335 80.7719 203.432 80.1736 203.432ZM87.2809 203.432C86.6843 203.432 86.1515 203.337 85.6826 203.147C85.216 202.955 84.8495 202.695 84.5826 202.368C84.3179 202.038 84.1856 201.666 84.1856 201.252C84.1856 200.935 84.2617 200.644 84.4139 200.379C84.5662 200.115 84.7722 199.895 85.0316 199.72C85.2939 199.543 85.5854 199.429 85.9074 199.379V199.32C85.4859 199.242 85.1399 199.046 84.8706 198.731C84.6036 198.417 84.4701 198.048 84.4701 197.626C84.4701 197.227 84.5913 196.871 84.8331 196.559C85.0778 196.247 85.4109 196.001 85.8325 195.821C86.2563 195.642 86.7393 195.551 87.2809 195.551C87.8218 195.551 88.3036 195.642 88.7251 195.821C89.149 196.001 89.4821 196.247 89.7245 196.559C89.9686 196.871 90.091 197.227 90.091 197.626C90.091 198.051 89.9552 198.42 89.6829 198.735C89.4136 199.047 89.0706 199.242 88.6543 199.32V199.379C88.9734 199.429 89.2626 199.543 89.5225 199.72C89.7842 199.895 89.9915 200.115 90.1437 200.379C90.2982 200.644 90.3755 200.935 90.3755 201.252C90.3755 201.666 90.242 202.038 89.9751 202.368C89.7081 202.695 89.3416 202.955 88.875 203.147C88.4108 203.337 87.8792 203.432 87.2809 203.432ZM87.2809 202.117C87.5074 202.117 87.7071 202.075 87.8792 201.99C88.0513 201.902 88.1865 201.781 88.2837 201.626C88.3833 201.472 88.433 201.297 88.433 201.102C88.433 200.902 88.3833 200.725 88.2837 200.57C88.1836 200.415 88.0466 200.295 87.8722 200.207C87.7 200.117 87.5027 200.072 87.2809 200.072C87.0613 200.072 86.864 200.117 86.6896 200.207C86.5145 200.295 86.3775 200.415 86.278 200.57C86.1779 200.725 86.1281 200.902 86.1281 201.102C86.1281 201.297 86.1767 201.472 86.2739 201.626C86.374 201.779 86.5098 201.898 86.6819 201.986C86.8564 202.074 87.0561 202.117 87.2809 202.117ZM87.2809 198.765C87.4752 198.765 87.6473 198.725 87.7972 198.645C87.9494 198.565 88.0677 198.454 88.1526 198.312C88.2398 198.169 88.2837 198.008 88.2837 197.828C88.2837 197.649 88.2398 197.49 88.1526 197.353C88.0677 197.215 87.9506 197.108 87.8007 197.031C87.6514 196.951 87.4776 196.911 87.2809 196.911C87.0859 196.911 86.9126 196.951 86.7604 197.031C86.6082 197.108 86.4899 197.215 86.405 197.353C86.3201 197.49 86.278 197.649 86.278 197.828C86.278 198.008 86.3201 198.169 86.405 198.312C86.4923 198.452 86.6123 198.562 86.7645 198.645C86.9167 198.725 87.0888 198.765 87.2809 198.765ZM94.5778 203.514C93.9092 203.514 93.3332 203.356 92.849 203.039C92.3648 202.719 91.9919 202.26 91.7302 201.664C91.4679 201.065 91.3386 200.344 91.3409 199.503C91.3433 198.662 91.4744 197.947 91.7337 197.36C91.996 196.771 92.3678 196.323 92.849 196.016C93.3332 195.706 93.9092 195.551 94.5778 195.551C95.2464 195.551 95.8231 195.706 96.3066 196.016C96.7931 196.323 97.1672 196.771 97.4295 197.36C97.6912 197.95 97.8212 198.664 97.8188 199.503C97.8188 200.347 97.6877 201.069 97.426 201.667C97.1637 202.267 96.7908 202.725 96.3066 203.042C95.8254 203.357 95.2487 203.514 94.5778 203.514ZM94.5778 201.997C94.9771 201.997 95.3003 201.794 95.5473 201.387C95.7944 200.977 95.9161 200.349 95.9138 199.503C95.9138 198.949 95.8576 198.492 95.7458 198.132C95.6334 197.77 95.4771 197.5 95.2774 197.323C95.0784 197.146 94.8448 197.057 94.5778 197.057C94.1815 197.057 93.8607 197.258 93.6159 197.66C93.3718 198.06 93.2483 198.674 93.2459 199.503C93.243 200.065 93.2969 200.53 93.4064 200.9C93.5188 201.27 93.6762 201.546 93.8782 201.728C94.0802 201.907 94.3132 201.997 94.5778 201.997Z" fill="white"/>
<path d="M132.196 202.054V200.607L135.336 195.656H136.62V197.619H135.875L134.037 200.533V200.593H138.584V202.054H132.196ZM135.897 203.327V201.611L135.935 200.978V195.656H137.668V203.327H135.897ZM142.471 203.432C141.887 203.432 141.369 203.332 140.917 203.132C140.468 202.93 140.114 202.651 139.855 202.297C139.595 201.942 139.463 201.534 139.458 201.072H141.321C141.329 201.239 141.383 201.388 141.482 201.518C141.582 201.645 141.718 201.745 141.89 201.817C142.063 201.89 142.259 201.926 142.478 201.926C142.698 201.926 142.891 201.887 143.058 201.81C143.228 201.73 143.36 201.621 143.455 201.484C143.55 201.344 143.596 201.185 143.593 201.005C143.596 200.825 143.544 200.665 143.439 200.525C143.335 200.385 143.187 200.277 142.995 200.2C142.805 200.122 142.58 200.083 142.321 200.083H141.576V198.765H142.321C142.548 198.765 142.747 198.728 142.92 198.653C143.094 198.578 143.23 198.473 143.328 198.338C143.425 198.2 143.472 198.043 143.469 197.866C143.472 197.694 143.431 197.543 143.346 197.413C143.264 197.28 143.148 197.178 142.998 197.106C142.851 197.033 142.68 196.997 142.485 196.997C142.281 196.997 142.095 197.033 141.928 197.106C141.763 197.178 141.632 197.28 141.535 197.413C141.438 197.545 141.386 197.699 141.382 197.873H139.611C139.617 197.416 139.744 197.014 139.993 196.668C140.242 196.318 140.582 196.045 141.011 195.847C141.443 195.65 141.934 195.551 142.485 195.551C143.034 195.551 143.517 195.647 143.934 195.84C144.35 196.032 144.675 196.294 144.907 196.626C145.138 196.956 145.254 197.329 145.254 197.746C145.257 198.178 145.116 198.534 144.832 198.814C144.55 199.093 144.187 199.266 143.743 199.331V199.39C144.336 199.46 144.784 199.652 145.086 199.967C145.391 200.282 145.541 200.675 145.539 201.147C145.539 201.591 145.408 201.986 145.146 202.331C144.887 202.673 144.525 202.943 144.061 203.139C143.599 203.335 143.069 203.432 142.471 203.432ZM149.753 203.514C149.085 203.514 148.509 203.356 148.025 203.039C147.541 202.719 147.168 202.26 146.906 201.664C146.644 201.065 146.514 200.344 146.517 199.503C146.519 198.662 146.65 197.947 146.909 197.36C147.172 196.771 147.543 196.323 148.025 196.016C148.509 195.706 149.085 195.551 149.753 195.551C150.422 195.551 150.999 195.706 151.482 196.016C151.969 196.323 152.343 196.771 152.605 197.36C152.867 197.95 152.997 198.664 152.994 199.503C152.994 200.347 152.863 201.069 152.602 201.667C152.339 202.267 151.966 202.725 151.482 203.042C151.001 203.357 150.425 203.514 149.753 203.514ZM149.753 201.997C150.153 201.997 150.476 201.794 150.723 201.387C150.97 200.977 151.092 200.349 151.089 199.503C151.089 198.949 151.033 198.492 150.921 198.132C150.809 197.77 150.653 197.5 150.454 197.323C150.254 197.146 150.02 197.057 149.753 197.057C149.357 197.057 149.036 197.258 148.792 197.66C148.547 198.06 148.424 198.674 148.422 199.503C148.419 200.065 148.473 200.53 148.583 200.9C148.694 201.27 148.852 201.546 149.054 201.728C149.256 201.907 149.489 201.997 149.753 201.997Z" fill="white"/>
<path d="M187.228 202.054V200.607L190.367 195.656H191.651V197.619H190.906L189.069 200.533V200.593H193.616V202.054H187.228ZM190.929 203.327V201.611L190.966 200.978V195.656H192.699V203.327H190.929ZM197.581 203.432C196.985 203.432 196.452 203.337 195.983 203.147C195.516 202.955 195.149 202.695 194.882 202.368C194.618 202.038 194.486 201.666 194.486 201.252C194.486 200.935 194.562 200.644 194.714 200.379C194.866 200.115 195.072 199.895 195.331 199.72C195.594 199.543 195.885 199.429 196.207 199.379V199.32C195.786 199.242 195.44 199.046 195.171 198.731C194.904 198.417 194.77 198.048 194.77 197.626C194.77 197.227 194.891 196.871 195.133 196.559C195.377 196.247 195.711 196.001 196.132 195.821C196.557 195.642 197.039 195.551 197.581 195.551C198.122 195.551 198.603 195.642 199.025 195.821C199.449 196.001 199.782 196.247 200.024 196.559C200.269 196.871 200.391 197.227 200.391 197.626C200.391 198.051 200.255 198.42 199.983 198.735C199.713 199.047 199.371 199.242 198.954 199.32V199.379C199.273 199.429 199.563 199.543 199.822 199.72C200.084 199.895 200.291 200.115 200.443 200.379C200.598 200.644 200.675 200.935 200.675 201.252C200.675 201.666 200.542 202.038 200.275 202.368C200.008 202.695 199.641 202.955 199.175 203.147C198.71 203.337 198.179 203.432 197.581 203.432ZM197.581 202.117C197.808 202.117 198.007 202.075 198.179 201.99C198.352 201.902 198.486 201.781 198.583 201.626C198.683 201.472 198.733 201.297 198.733 201.102C198.733 200.902 198.683 200.725 198.583 200.57C198.484 200.415 198.346 200.295 198.172 200.207C198 200.117 197.802 200.072 197.581 200.072C197.361 200.072 197.164 200.117 196.989 200.207C196.815 200.295 196.677 200.415 196.578 200.57C196.478 200.725 196.428 200.902 196.428 201.102C196.428 201.297 196.476 201.472 196.574 201.626C196.674 201.779 196.809 201.898 196.982 201.986C197.157 202.074 197.356 202.117 197.581 202.117ZM197.581 198.765C197.775 198.765 197.947 198.725 198.097 198.645C198.249 198.565 198.367 198.454 198.452 198.312C198.539 198.169 198.583 198.008 198.583 197.828C198.583 197.649 198.539 197.49 198.452 197.353C198.367 197.215 198.25 197.108 198.1 197.031C197.951 196.951 197.778 196.911 197.581 196.911C197.386 196.911 197.212 196.951 197.06 197.031C196.908 197.108 196.79 197.215 196.705 197.353C196.62 197.49 196.578 197.649 196.578 197.828C196.578 198.008 196.62 198.169 196.705 198.312C196.792 198.452 196.912 198.562 197.064 198.645C197.216 198.725 197.389 198.765 197.581 198.765ZM204.877 203.514C204.209 203.514 203.633 203.356 203.149 203.039C202.665 202.719 202.292 202.26 202.03 201.664C201.768 201.065 201.638 200.344 201.641 199.503C201.643 198.662 201.774 197.947 202.034 197.36C202.296 196.771 202.667 196.323 203.149 196.016C203.633 195.706 204.209 195.551 204.877 195.551C205.547 195.551 206.123 195.706 206.607 196.016C207.093 196.323 207.467 196.771 207.729 197.36C207.991 197.95 208.121 198.664 208.118 199.503C208.118 200.347 207.987 201.069 207.726 201.667C207.463 202.267 207.09 202.725 206.607 203.042C206.125 203.357 205.549 203.514 204.877 203.514ZM204.877 201.997C205.277 201.997 205.6 201.794 205.847 201.387C206.094 200.977 206.216 200.349 206.213 199.503C206.213 198.949 206.158 198.492 206.045 198.132C205.933 197.77 205.777 197.5 205.578 197.323C205.378 197.146 205.144 197.057 204.877 197.057C204.481 197.057 204.16 197.258 203.916 197.66C203.671 198.06 203.548 198.674 203.546 199.503C203.543 200.065 203.597 200.53 203.707 200.9C203.819 201.27 203.976 201.546 204.178 201.728C204.38 201.907 204.613 201.997 204.877 201.997Z" fill="white"/>
<path d="M245.287 203.432C244.728 203.432 244.232 203.33 243.798 203.128C243.364 202.926 243.02 202.648 242.769 202.293C242.519 201.939 242.389 201.532 242.379 201.072H244.176C244.191 201.355 244.305 201.581 244.52 201.754C244.735 201.924 244.99 202.009 245.287 202.009C245.519 202.009 245.725 201.958 245.904 201.855C246.084 201.752 246.225 201.609 246.328 201.424C246.429 201.237 246.479 201.022 246.477 200.78C246.479 200.533 246.428 200.317 246.324 200.132C246.221 199.947 246.079 199.804 245.897 199.701C245.718 199.597 245.51 199.544 245.276 199.544C245.054 199.542 244.843 199.59 244.643 199.69C244.446 199.79 244.297 199.926 244.194 200.098L242.559 199.791L242.892 195.656H247.809V197.151H244.415L244.239 198.96H244.284C244.411 198.748 244.616 198.572 244.898 198.435C245.182 198.295 245.505 198.226 245.867 198.226C246.326 198.226 246.735 198.333 247.095 198.548C247.456 198.76 247.741 199.055 247.948 199.431C248.157 199.809 248.262 200.241 248.262 200.728C248.262 201.254 248.137 201.721 247.888 202.129C247.641 202.535 247.294 202.855 246.847 203.087C246.404 203.317 245.883 203.432 245.287 203.432ZM252.194 203.432C251.611 203.432 251.093 203.332 250.641 203.132C250.192 202.93 249.838 202.651 249.579 202.297C249.319 201.942 249.187 201.534 249.182 201.072H251.045C251.053 201.239 251.107 201.388 251.206 201.518C251.306 201.645 251.442 201.745 251.614 201.817C251.786 201.89 251.982 201.926 252.201 201.926C252.421 201.926 252.615 201.887 252.782 201.81C252.951 201.73 253.084 201.621 253.178 201.484C253.273 201.344 253.32 201.185 253.317 201.005C253.32 200.825 253.268 200.665 253.163 200.525C253.058 200.385 252.91 200.277 252.718 200.2C252.529 200.122 252.304 200.083 252.044 200.083H251.3V198.765H252.044C252.272 198.765 252.471 198.728 252.643 198.653C252.818 198.578 252.954 198.473 253.051 198.338C253.149 198.2 253.196 198.043 253.193 197.866C253.196 197.694 253.154 197.543 253.07 197.413C252.988 197.28 252.872 197.178 252.722 197.106C252.575 197.033 252.404 196.997 252.209 196.997C252.005 196.997 251.818 197.033 251.652 197.106C251.487 197.178 251.356 197.28 251.259 197.413C251.161 197.545 251.11 197.699 251.105 197.873H249.335C249.34 197.416 249.467 197.014 249.717 196.668C249.966 196.318 250.306 196.045 250.735 195.847C251.166 195.65 251.657 195.551 252.209 195.551C252.758 195.551 253.241 195.647 253.657 195.84C254.074 196.032 254.399 196.294 254.63 196.626C254.862 196.956 254.978 197.329 254.978 197.746C254.981 198.178 254.84 198.534 254.555 198.814C254.274 199.093 253.91 199.266 253.467 199.331V199.39C254.06 199.46 254.508 199.652 254.81 199.967C255.115 200.282 255.265 200.675 255.263 201.147C255.263 201.591 255.132 201.986 254.87 202.331C254.61 202.673 254.249 202.943 253.784 203.139C253.323 203.335 252.793 203.432 252.194 203.432ZM259.477 203.514C258.809 203.514 258.233 203.356 257.748 203.039C257.264 202.719 256.891 202.26 256.63 201.664C256.367 201.065 256.238 200.344 256.24 199.503C256.243 198.662 256.374 197.947 256.633 197.36C256.895 196.771 257.267 196.323 257.748 196.016C258.233 195.706 258.809 195.551 259.477 195.551C260.146 195.551 260.722 195.706 261.206 196.016C261.693 196.323 262.067 196.771 262.329 197.36C262.591 197.95 262.721 198.664 262.718 199.503C262.718 200.347 262.587 201.069 262.325 201.667C262.063 202.267 261.69 202.725 261.206 203.042C260.725 203.357 260.149 203.514 259.477 203.514ZM259.477 201.997C259.877 201.997 260.2 201.794 260.447 201.387C260.694 200.977 260.816 200.349 260.813 199.503C260.813 198.949 260.757 198.492 260.645 198.132C260.533 197.77 260.376 197.5 260.177 197.323C259.978 197.146 259.744 197.057 259.477 197.057C259.081 197.057 258.76 197.258 258.515 197.66C258.271 198.06 258.148 198.674 258.145 199.503C258.142 200.065 258.196 200.53 258.306 200.9C258.418 201.27 258.576 201.546 258.778 201.728C258.98 201.907 259.213 201.997 259.477 201.997Z" fill="white"/>
<path d="M300.319 203.432C299.76 203.432 299.263 203.33 298.829 203.128C298.395 202.926 298.052 202.648 297.8 202.293C297.551 201.939 297.421 201.532 297.411 201.072H299.207C299.222 201.355 299.337 201.581 299.551 201.754C299.766 201.924 300.021 202.009 300.319 202.009C300.551 202.009 300.756 201.958 300.936 201.855C301.116 201.752 301.257 201.609 301.359 201.424C301.461 201.237 301.511 201.022 301.508 200.78C301.511 200.533 301.46 200.317 301.355 200.132C301.253 199.947 301.111 199.804 300.928 199.701C300.749 199.597 300.542 199.544 300.307 199.544C300.085 199.542 299.874 199.59 299.675 199.69C299.478 199.79 299.328 199.926 299.226 200.098L297.591 199.791L297.924 195.656H302.841V197.151H299.446L299.271 198.96H299.315C299.443 198.748 299.647 198.572 299.929 198.435C300.214 198.295 300.537 198.226 300.898 198.226C301.357 198.226 301.767 198.333 302.126 198.548C302.488 198.76 302.772 199.055 302.979 199.431C303.189 199.809 303.293 200.241 303.293 200.728C303.293 201.254 303.169 201.721 302.919 202.129C302.672 202.535 302.326 202.855 301.879 203.087C301.435 203.317 300.915 203.432 300.319 203.432ZM307.304 203.432C306.708 203.432 306.176 203.337 305.707 203.147C305.24 202.955 304.873 202.695 304.606 202.368C304.342 202.038 304.21 201.666 304.21 201.252C304.21 200.935 304.286 200.644 304.438 200.379C304.59 200.115 304.796 199.895 305.055 199.72C305.317 199.543 305.609 199.429 305.931 199.379V199.32C305.509 199.242 305.164 199.046 304.894 198.731C304.627 198.417 304.494 198.048 304.494 197.626C304.494 197.227 304.615 196.871 304.857 196.559C305.101 196.247 305.434 196.001 305.856 195.821C306.28 195.642 306.763 195.551 307.304 195.551C307.846 195.551 308.327 195.642 308.749 195.821C309.173 196.001 309.506 196.247 309.748 196.559C309.993 196.871 310.114 197.227 310.114 197.626C310.114 198.051 309.979 198.42 309.707 198.735C309.437 199.047 309.094 199.242 308.678 199.32V199.379C308.997 199.429 309.287 199.543 309.546 199.72C309.808 199.895 310.015 200.115 310.167 200.379C310.322 200.644 310.399 200.935 310.399 201.252C310.399 201.666 310.265 202.038 309.998 202.368C309.732 202.695 309.365 202.955 308.898 203.147C308.434 203.337 307.903 203.432 307.304 203.432ZM307.304 202.117C307.531 202.117 307.731 202.075 307.903 201.99C308.075 201.902 308.21 201.781 308.307 201.626C308.407 201.472 308.457 201.297 308.457 201.102C308.457 200.902 308.407 200.725 308.307 200.57C308.208 200.415 308.07 200.295 307.896 200.207C307.723 200.117 307.526 200.072 307.304 200.072C307.085 200.072 306.887 200.117 306.713 200.207C306.539 200.295 306.401 200.415 306.301 200.57C306.201 200.725 306.152 200.902 306.152 201.102C306.152 201.297 306.2 201.472 306.297 201.626C306.397 201.779 306.533 201.898 306.705 201.986C306.88 202.074 307.079 202.117 307.304 202.117ZM307.304 198.765C307.499 198.765 307.671 198.725 307.821 198.645C307.973 198.565 308.091 198.454 308.176 198.312C308.263 198.169 308.307 198.008 308.307 197.828C308.307 197.649 308.263 197.49 308.176 197.353C308.091 197.215 307.974 197.108 307.824 197.031C307.675 196.951 307.502 196.911 307.304 196.911C307.11 196.911 306.936 196.951 306.784 197.031C306.632 197.108 306.513 197.215 306.428 197.353C306.344 197.49 306.301 197.649 306.301 197.828C306.301 198.008 306.344 198.169 306.428 198.312C306.516 198.452 306.636 198.562 306.788 198.645C306.94 198.725 307.112 198.765 307.304 198.765ZM314.601 203.514C313.933 203.514 313.357 203.356 312.872 203.039C312.389 202.719 312.015 202.26 311.754 201.664C311.492 201.065 311.362 200.344 311.364 199.503C311.367 198.662 311.498 197.947 311.757 197.36C312.019 196.771 312.391 196.323 312.872 196.016C313.357 195.706 313.933 195.551 314.601 195.551C315.27 195.551 315.846 195.706 316.331 196.016C316.817 196.323 317.191 196.771 317.453 197.36C317.715 197.95 317.845 198.664 317.842 199.503C317.842 200.347 317.711 201.069 317.449 201.667C317.187 202.267 316.814 202.725 316.331 203.042C315.849 203.357 315.273 203.514 314.601 203.514ZM314.601 201.997C315.001 201.997 315.324 201.794 315.571 201.387C315.818 200.977 315.94 200.349 315.937 199.503C315.937 198.949 315.881 198.492 315.769 198.132C315.657 197.77 315.501 197.5 315.301 197.323C315.102 197.146 314.868 197.057 314.601 197.057C314.205 197.057 313.884 197.258 313.64 197.66C313.395 198.06 313.272 198.674 313.269 199.503C313.267 200.065 313.32 200.53 313.43 200.9C313.542 201.27 313.7 201.546 313.902 201.728C314.104 201.907 314.337 201.997 314.601 201.997Z" fill="white"/>
<path d="M354.903 203.432C354.484 203.432 354.082 203.364 353.698 203.23C353.314 203.092 352.972 202.875 352.673 202.578C352.373 202.278 352.137 201.886 351.965 201.401C351.793 200.915 351.708 200.322 351.711 199.622C351.714 198.991 351.791 198.424 351.943 197.922C352.095 197.418 352.313 196.99 352.594 196.638C352.879 196.285 353.218 196.017 353.612 195.833C354.009 195.645 354.452 195.551 354.941 195.551C355.477 195.551 355.95 195.656 356.359 195.866C356.771 196.073 357.1 196.353 357.347 196.705C357.594 197.054 357.74 197.444 357.785 197.873H355.962C355.907 197.631 355.787 197.448 355.599 197.323C355.415 197.195 355.195 197.132 354.941 197.132C354.472 197.132 354.121 197.335 353.889 197.742C353.66 198.149 353.542 198.694 353.537 199.375H353.586C353.691 199.146 353.842 198.949 354.039 198.783C354.236 198.619 354.462 198.493 354.716 198.405C354.973 198.315 355.245 198.271 355.532 198.271C355.991 198.271 356.396 198.377 356.748 198.589C357.1 198.801 357.375 199.092 357.575 199.461C357.775 199.829 357.873 200.249 357.871 200.724C357.873 201.258 357.748 201.73 357.497 202.14C357.244 202.546 356.895 202.864 356.449 203.091C356.004 203.318 355.489 203.432 354.903 203.432ZM354.892 202.009C355.119 202.009 355.322 201.955 355.502 201.847C355.682 201.74 355.822 201.594 355.925 201.409C356.027 201.224 356.077 201.016 356.075 200.784C356.077 200.549 356.027 200.34 355.925 200.158C355.825 199.976 355.685 199.831 355.506 199.724C355.329 199.617 355.125 199.563 354.895 199.563C354.729 199.563 354.572 199.594 354.428 199.656C354.283 199.719 354.157 199.806 354.05 199.918C353.945 200.029 353.863 200.158 353.803 200.308C353.743 200.455 353.712 200.615 353.709 200.787C353.712 201.015 353.764 201.221 353.866 201.406C353.969 201.59 354.109 201.738 354.285 201.847C354.463 201.955 354.665 202.009 354.892 202.009ZM361.837 203.432C361.253 203.432 360.735 203.332 360.283 203.132C359.834 202.93 359.48 202.651 359.221 202.297C358.961 201.942 358.829 201.534 358.824 201.072H360.688C360.695 201.239 360.749 201.388 360.848 201.518C360.948 201.645 361.084 201.745 361.256 201.817C361.428 201.89 361.625 201.926 361.844 201.926C362.064 201.926 362.257 201.887 362.424 201.81C362.593 201.73 362.726 201.621 362.821 201.484C362.915 201.344 362.962 201.185 362.959 201.005C362.962 200.825 362.91 200.665 362.805 200.525C362.701 200.385 362.552 200.277 362.36 200.2C362.171 200.122 361.946 200.083 361.687 200.083H360.942V198.765H361.687C361.914 198.765 362.113 198.728 362.286 198.653C362.46 198.578 362.596 198.473 362.694 198.338C362.791 198.2 362.838 198.043 362.836 197.866C362.838 197.694 362.797 197.543 362.712 197.413C362.63 197.28 362.514 197.178 362.364 197.106C362.217 197.033 362.046 196.997 361.851 196.997C361.647 196.997 361.461 197.033 361.294 197.106C361.129 197.178 360.998 197.28 360.901 197.413C360.804 197.545 360.752 197.699 360.748 197.873H358.977C358.982 197.416 359.109 197.014 359.359 196.668C359.609 196.318 359.948 196.045 360.377 195.847C360.808 195.65 361.3 195.551 361.851 195.551C362.4 195.551 362.883 195.647 363.3 195.84C363.716 196.032 364.041 196.294 364.273 196.626C364.504 196.956 364.621 197.329 364.621 197.746C364.623 198.178 364.482 198.534 364.198 198.814C363.916 199.093 363.553 199.266 363.109 199.331V199.39C363.702 199.46 364.15 199.652 364.452 199.967C364.757 200.282 364.908 200.675 364.905 201.147C364.905 201.591 364.774 201.986 364.512 202.331C364.253 202.673 363.891 202.943 363.427 203.139C362.965 203.335 362.435 203.432 361.837 203.432ZM369.119 203.514C368.451 203.514 367.875 203.356 367.391 203.039C366.907 202.719 366.534 202.26 366.272 201.664C366.01 201.065 365.88 200.344 365.882 199.503C365.885 198.662 366.016 197.947 366.275 197.36C366.538 196.771 366.909 196.323 367.391 196.016C367.875 195.706 368.451 195.551 369.119 195.551C369.788 195.551 370.365 195.706 370.849 196.016C371.335 196.323 371.709 196.771 371.971 197.36C372.233 197.95 372.363 198.664 372.36 199.503C372.36 200.347 372.229 201.069 371.968 201.667C371.705 202.267 371.332 202.725 370.849 203.042C370.367 203.357 369.791 203.514 369.119 203.514ZM369.119 201.997C369.519 201.997 369.842 201.794 370.089 201.387C370.336 200.977 370.458 200.349 370.455 199.503C370.455 198.949 370.4 198.492 370.287 198.132C370.175 197.77 370.019 197.5 369.82 197.323C369.62 197.146 369.386 197.057 369.119 197.057C368.723 197.057 368.402 197.258 368.158 197.66C367.913 198.06 367.79 198.674 367.788 199.503C367.785 200.065 367.838 200.53 367.949 200.9C368.061 201.27 368.218 201.546 368.42 201.728C368.622 201.907 368.855 201.997 369.119 201.997Z" fill="white"/>
<path d="M409.935 203.432C409.516 203.432 409.114 203.364 408.73 203.23C408.346 203.092 408.004 202.875 407.704 202.578C407.405 202.278 407.169 201.886 406.997 201.401C406.825 200.915 406.74 200.322 406.743 199.622C406.745 198.991 406.823 198.424 406.975 197.922C407.127 197.418 407.344 196.99 407.626 196.638C407.91 196.285 408.25 196.017 408.644 195.833C409.04 195.645 409.483 195.551 409.972 195.551C410.509 195.551 410.982 195.656 411.391 195.866C411.802 196.073 412.131 196.353 412.378 196.705C412.626 197.054 412.771 197.444 412.816 197.873H410.994C410.939 197.631 410.818 197.448 410.631 197.323C410.447 197.195 410.227 197.132 409.972 197.132C409.503 197.132 409.153 197.335 408.921 197.742C408.691 198.149 408.574 198.694 408.569 199.375H408.618C408.722 199.146 408.873 198.949 409.071 198.783C409.267 198.619 409.493 198.493 409.747 198.405C410.005 198.315 410.277 198.271 410.564 198.271C411.023 198.271 411.428 198.377 411.78 198.589C412.131 198.801 412.407 199.092 412.607 199.461C412.806 199.829 412.905 200.249 412.902 200.724C412.905 201.258 412.78 201.73 412.528 202.14C412.276 202.546 411.927 202.864 411.48 203.091C411.036 203.318 410.521 203.432 409.935 203.432ZM409.924 202.009C410.151 202.009 410.354 201.955 410.534 201.847C410.713 201.74 410.854 201.594 410.956 201.409C411.059 201.224 411.109 201.016 411.106 200.784C411.109 200.549 411.059 200.34 410.956 200.158C410.857 199.976 410.717 199.831 410.537 199.724C410.36 199.617 410.157 199.563 409.927 199.563C409.76 199.563 409.604 199.594 409.459 199.656C409.315 199.719 409.189 199.806 409.082 199.918C408.977 200.029 408.894 200.158 408.835 200.308C408.775 200.455 408.743 200.615 408.741 200.787C408.743 201.015 408.796 201.221 408.898 201.406C409 201.59 409.14 201.738 409.317 201.847C409.495 201.955 409.697 202.009 409.924 202.009ZM416.947 203.432C416.351 203.432 415.818 203.337 415.349 203.147C414.882 202.955 414.515 202.695 414.248 202.368C413.984 202.038 413.852 201.666 413.852 201.252C413.852 200.935 413.928 200.644 414.08 200.379C414.233 200.115 414.438 199.895 414.698 199.72C414.96 199.543 415.252 199.429 415.573 199.379V199.32C415.152 199.242 414.806 199.046 414.537 198.731C414.27 198.417 414.137 198.048 414.137 197.626C414.137 197.227 414.257 196.871 414.5 196.559C414.744 196.247 415.077 196.001 415.498 195.821C415.923 195.642 416.405 195.551 416.947 195.551C417.488 195.551 417.969 195.642 418.391 195.821C418.815 196.001 419.149 196.247 419.39 196.559C419.635 196.871 419.757 197.227 419.757 197.626C419.757 198.051 419.621 198.42 419.349 198.735C419.08 199.047 418.737 199.242 418.32 199.32V199.379C418.639 199.429 418.929 199.543 419.188 199.72C419.45 199.895 419.657 200.115 419.81 200.379C419.964 200.644 420.041 200.935 420.041 201.252C420.041 201.666 419.908 202.038 419.641 202.368C419.374 202.695 419.007 202.955 418.541 203.147C418.077 203.337 417.546 203.432 416.947 203.432ZM416.947 202.117C417.174 202.117 417.373 202.075 417.546 201.99C417.718 201.902 417.852 201.781 417.95 201.626C418.05 201.472 418.099 201.297 418.099 201.102C418.099 200.902 418.05 200.725 417.95 200.57C417.85 200.415 417.712 200.295 417.538 200.207C417.366 200.117 417.169 200.072 416.947 200.072C416.727 200.072 416.53 200.117 416.355 200.207C416.181 200.295 416.044 200.415 415.944 200.57C415.844 200.725 415.794 200.902 415.794 201.102C415.794 201.297 415.843 201.472 415.94 201.626C416.04 201.779 416.176 201.898 416.348 201.986C416.523 202.074 416.722 202.117 416.947 202.117ZM416.947 198.765C417.142 198.765 417.314 198.725 417.463 198.645C417.615 198.565 417.734 198.454 417.819 198.312C417.906 198.169 417.95 198.008 417.95 197.828C417.95 197.649 417.906 197.49 417.819 197.353C417.734 197.215 417.616 197.108 417.467 197.031C417.317 196.951 417.144 196.911 416.947 196.911C416.752 196.911 416.579 196.951 416.427 197.031C416.275 197.108 416.156 197.215 416.071 197.353C415.987 197.49 415.944 197.649 415.944 197.828C415.944 198.008 415.987 198.169 416.071 198.312C416.159 198.452 416.278 198.562 416.43 198.645C416.583 198.725 416.755 198.765 416.947 198.765ZM424.244 203.514C423.576 203.514 422.999 203.356 422.515 203.039C422.031 202.719 421.658 202.26 421.396 201.664C421.134 201.065 421.004 200.344 421.007 199.503C421.01 198.662 421.141 197.947 421.4 197.36C421.662 196.771 422.034 196.323 422.515 196.016C422.999 195.706 423.576 195.551 424.244 195.551C424.913 195.551 425.489 195.706 425.973 196.016C426.46 196.323 426.834 196.771 427.095 197.36C427.358 197.95 427.487 198.664 427.485 199.503C427.485 200.347 427.354 201.069 427.092 201.667C426.83 202.267 426.457 202.725 425.973 203.042C425.491 203.357 424.915 203.514 424.244 203.514ZM424.244 201.997C424.643 201.997 424.966 201.794 425.213 201.387C425.46 200.977 425.583 200.349 425.58 199.503C425.58 198.949 425.524 198.492 425.412 198.132C425.299 197.77 425.143 197.5 424.944 197.323C424.744 197.146 424.511 197.057 424.244 197.057C423.847 197.057 423.527 197.258 423.282 197.66C423.038 198.06 422.914 198.674 422.912 199.503C422.909 200.065 422.963 200.53 423.073 200.9C423.185 201.27 423.342 201.546 423.544 201.728C423.747 201.907 423.98 201.997 424.244 201.997Z" fill="white"/>
<path d="M462.22 203.327L465.311 197.2V197.151H461.696V195.656H467.227V197.162L464.125 203.327H462.22ZM470.984 203.432C470.4 203.432 469.882 203.332 469.431 203.132C468.982 202.93 468.628 202.651 468.368 202.297C468.109 201.942 467.976 201.534 467.972 201.072H469.835C469.843 201.239 469.896 201.388 469.996 201.518C470.096 201.645 470.232 201.745 470.404 201.817C470.576 201.89 470.772 201.926 470.991 201.926C471.211 201.926 471.405 201.887 471.571 201.81C471.741 201.73 471.873 201.621 471.968 201.484C472.063 201.344 472.109 201.185 472.107 201.005C472.109 200.825 472.058 200.665 471.953 200.525C471.848 200.385 471.7 200.277 471.508 200.2C471.318 200.122 471.094 200.083 470.834 200.083H470.09V198.765H470.834C471.062 198.765 471.261 198.728 471.433 198.653C471.608 198.578 471.744 198.473 471.841 198.338C471.938 198.2 471.985 198.043 471.983 197.866C471.985 197.694 471.944 197.543 471.859 197.413C471.777 197.28 471.661 197.178 471.512 197.106C471.364 197.033 471.193 196.997 470.999 196.997C470.795 196.997 470.608 197.033 470.442 197.106C470.276 197.178 470.146 197.28 470.048 197.413C469.951 197.545 469.9 197.699 469.895 197.873H468.125C468.13 197.416 468.257 197.014 468.507 196.668C468.756 196.318 469.096 196.045 469.525 195.847C469.956 195.65 470.447 195.551 470.999 195.551C471.548 195.551 472.03 195.647 472.447 195.84C472.863 196.032 473.188 196.294 473.42 196.626C473.652 196.956 473.768 197.329 473.768 197.746C473.77 198.178 473.63 198.534 473.345 198.814C473.063 199.093 472.7 199.266 472.256 199.331V199.39C472.85 199.46 473.298 199.652 473.6 199.967C473.904 200.282 474.055 200.675 474.052 201.147C474.052 201.591 473.921 201.986 473.66 202.331C473.4 202.673 473.039 202.943 472.574 203.139C472.113 203.335 471.583 203.432 470.984 203.432ZM478.267 203.514C477.599 203.514 477.022 203.356 476.538 203.039C476.054 202.719 475.681 202.26 475.42 201.664C475.157 201.065 475.028 200.344 475.03 199.503C475.033 198.662 475.164 197.947 475.423 197.36C475.685 196.771 476.056 196.323 476.538 196.016C477.022 195.706 477.599 195.551 478.267 195.551C478.936 195.551 479.512 195.706 479.996 196.016C480.482 196.323 480.857 196.771 481.119 197.36C481.38 197.95 481.51 198.664 481.508 199.503C481.508 200.347 481.377 201.069 481.115 201.667C480.853 202.267 480.48 202.725 479.996 203.042C479.515 203.357 478.938 203.514 478.267 203.514ZM478.267 201.997C478.666 201.997 478.99 201.794 479.237 201.387C479.483 200.977 479.605 200.349 479.603 199.503C479.603 198.949 479.547 198.492 479.435 198.132C479.323 197.77 479.166 197.5 478.967 197.323C478.767 197.146 478.534 197.057 478.267 197.057C477.87 197.057 477.55 197.258 477.305 197.66C477.061 198.06 476.938 198.674 476.935 199.503C476.932 200.065 476.986 200.53 477.096 200.9C477.208 201.27 477.366 201.546 477.568 201.728C477.769 201.907 478.003 201.997 478.267 201.997Z" fill="white"/>
<path d="M517.251 203.327L520.342 197.2V197.151H516.727V195.656H522.258V197.162L519.156 203.327H517.251ZM526.115 203.432C525.518 203.432 524.986 203.337 524.516 203.147C524.05 202.955 523.683 202.695 523.416 202.368C523.152 202.038 523.02 201.666 523.02 201.252C523.02 200.935 523.096 200.644 523.248 200.379C523.401 200.115 523.606 199.895 523.865 199.72C524.128 199.543 524.419 199.429 524.741 199.379V199.32C524.32 199.242 523.974 199.046 523.704 198.731C523.437 198.417 523.304 198.048 523.304 197.626C523.304 197.227 523.425 196.871 523.667 196.559C523.912 196.247 524.245 196.001 524.666 195.821C525.091 195.642 525.573 195.551 526.115 195.551C526.656 195.551 527.137 195.642 527.559 195.821C527.983 196.001 528.317 196.247 528.558 196.559C528.802 196.871 528.925 197.227 528.925 197.626C528.925 198.051 528.789 198.42 528.517 198.735C528.247 199.047 527.904 199.242 527.488 199.32V199.379C527.807 199.429 528.097 199.543 528.356 199.72C528.618 199.895 528.825 200.115 528.977 200.379C529.132 200.644 529.209 200.935 529.209 201.252C529.209 201.666 529.076 202.038 528.809 202.368C528.542 202.695 528.175 202.955 527.709 203.147C527.245 203.337 526.714 203.432 526.115 203.432ZM526.115 202.117C526.342 202.117 526.541 202.075 526.714 201.99C526.886 201.902 527.02 201.781 527.118 201.626C527.217 201.472 527.267 201.297 527.267 201.102C527.267 200.902 527.217 200.725 527.118 200.57C527.017 200.415 526.88 200.295 526.706 200.207C526.534 200.117 526.337 200.072 526.115 200.072C525.895 200.072 525.698 200.117 525.523 200.207C525.349 200.295 525.211 200.415 525.112 200.57C525.012 200.725 524.962 200.902 524.962 201.102C524.962 201.297 525.01 201.472 525.108 201.626C525.208 201.779 525.344 201.898 525.516 201.986C525.69 202.074 525.89 202.117 526.115 202.117ZM526.115 198.765C526.309 198.765 526.481 198.725 526.631 198.645C526.783 198.565 526.901 198.454 526.986 198.312C527.074 198.169 527.118 198.008 527.118 197.828C527.118 197.649 527.074 197.49 526.986 197.353C526.901 197.215 526.784 197.108 526.635 197.031C526.485 196.951 526.312 196.911 526.115 196.911C525.92 196.911 525.746 196.951 525.594 197.031C525.442 197.108 525.324 197.215 525.239 197.353C525.154 197.49 525.112 197.649 525.112 197.828C525.112 198.008 525.154 198.169 525.239 198.312C525.326 198.452 525.446 198.562 525.598 198.645C525.75 198.725 525.923 198.765 526.115 198.765ZM533.412 203.514C532.743 203.514 532.167 203.356 531.683 203.039C531.199 202.719 530.826 202.26 530.564 201.664C530.302 201.065 530.172 200.344 530.175 199.503C530.177 198.662 530.308 197.947 530.568 197.36C530.83 196.771 531.202 196.323 531.683 196.016C532.167 195.706 532.743 195.551 533.412 195.551C534.08 195.551 534.657 195.706 535.14 196.016C535.627 196.323 536.002 196.771 536.263 197.36C536.526 197.95 536.655 198.664 536.653 199.503C536.653 200.347 536.521 201.069 536.26 201.667C535.998 202.267 535.625 202.725 535.14 203.042C534.659 203.357 534.083 203.514 533.412 203.514ZM533.412 201.997C533.811 201.997 534.134 201.794 534.381 201.387C534.628 200.977 534.751 200.349 534.748 199.503C534.748 198.949 534.691 198.492 534.58 198.132C534.467 197.77 534.311 197.5 534.112 197.323C533.912 197.146 533.679 197.057 533.412 197.057C533.015 197.057 532.694 197.258 532.45 197.66C532.206 198.06 532.082 198.674 532.08 199.503C532.077 200.065 532.131 200.53 532.241 200.9C532.353 201.27 532.51 201.546 532.712 201.728C532.914 201.907 533.148 201.997 533.412 201.997Z" fill="white"/>
<path d="M10.5379 113.153H2.8739V110.662C2.8739 110.198 2.95623 109.806 3.12089 109.486C3.28554 109.167 3.51631 108.924 3.81318 108.759C4.11007 108.592 4.45559 108.509 4.84977 108.509C5.15912 108.509 5.43355 108.558 5.67305 108.658C5.91253 108.758 6.11088 108.898 6.26807 109.078C6.42274 109.255 6.53 109.464 6.58989 109.703H6.63479C6.65476 109.438 6.74708 109.192 6.91171 108.966C7.07387 108.738 7.29464 108.556 7.57408 108.418C7.85351 108.279 8.17907 108.209 8.55077 108.209C8.94249 108.209 9.28802 108.294 9.58736 108.463C9.88423 108.631 10.1175 108.882 10.2871 109.216C10.4543 109.551 10.5379 109.965 10.5379 110.46V113.153ZM10.1038 112.685V110.46C10.1038 109.883 9.95911 109.44 9.66967 109.13C9.38029 108.818 9.00736 108.662 8.55077 108.662C8.22895 108.662 7.9408 108.738 7.68636 108.891C7.43187 109.04 7.23106 109.249 7.08383 109.516C6.93419 109.783 6.85931 110.093 6.85931 110.445V112.685H10.1038ZM6.4327 112.685V110.501C6.4327 110.174 6.36162 109.897 6.21942 109.669C6.07722 109.44 5.88636 109.265 5.64686 109.145C5.40736 109.023 5.14166 108.962 4.84977 108.962C4.37576 108.962 4.0003 109.109 3.72337 109.404C3.44645 109.698 3.30799 110.118 3.30799 110.662V112.685H6.4327ZM5.22399 106.893H4.7899V102.579H5.22399V104.496H10.5379V104.953H5.22399V106.893ZM2.51465 98.7835L11.6904 101.256V101.693L2.51465 99.2218V98.7835ZM9.86802 94.6613L4.7899 92.3432V91.8897L10.5379 94.4931V94.83L4.7899 97.4182V96.9688L9.86802 94.6613ZM4.7899 97.0772H10.5379V97.5342H4.7899V97.0772ZM10.5379 92.2459H4.7899V91.7889H10.5379V92.2459ZM10.5379 89.9051H10.1824L7.32333 87.4218C6.91422 87.0667 6.56741 86.786 6.283 86.5786C5.99859 86.3717 5.74166 86.2229 5.51213 86.1333C5.28262 86.043 5.04311 85.9985 4.79364 85.9985C4.48179 85.9985 4.20612 86.0717 3.96662 86.2194C3.72462 86.3641 3.53626 86.5628 3.40155 86.8147C3.26683 87.0643 3.19947 87.3491 3.19947 87.6685C3.19947 88.003 3.27307 88.2966 3.42026 88.5492C3.56745 88.8011 3.76703 88.9986 4.019 89.141C4.27098 89.2804 4.55414 89.3507 4.86848 89.3507V89.8037C4.47181 89.8037 4.11506 89.7111 3.79821 89.5265C3.48138 89.342 3.23065 89.0882 3.04604 88.766C2.86142 88.4413 2.76912 88.0722 2.76912 87.6573C2.76912 87.2507 2.85768 86.8886 3.03481 86.5716C3.21194 86.254 3.45394 86.0043 3.76079 85.8221C4.06516 85.6399 4.40944 85.5491 4.79364 85.5491C5.07555 85.5491 5.34748 85.5977 5.60943 85.695C5.86891 85.7899 6.15953 85.9534 6.48135 86.1854C6.80071 86.418 7.19488 86.7385 7.66388 87.1481L10.0626 89.2306H10.1038V85.2045H10.5379V89.9051ZM2.51465 81.1087L11.6904 83.5808V84.0185L2.51465 81.547V81.1087ZM7.45061 75.9382H7.88465V79.5301H7.45061V75.9382ZM4.7899 79.4024H10.5379V79.8594H4.7899V79.4024ZM4.7899 75.6271H10.5379V76.0841H4.7899V75.6271ZM9.86802 70.8374L4.78989 68.5194V68.0659L10.5379 70.6693V71.0062L4.78989 73.5944V73.1449L9.86802 70.8374ZM4.78989 73.2533H10.5379V73.7104H4.78989V73.2533ZM10.5379 68.4215H4.78989V67.9651H10.5379V68.4215Z" fill="white"/>
<path d="M276.647 241.525V239.222H277.126C277.313 239.005 277.481 238.736 277.628 238.416C277.775 238.095 277.896 237.69 277.991 237.203C278.088 236.716 278.152 236.119 278.181 235.413L278.32 231.985H282.537V239.222H283.45V241.499H282.994V239.656H277.104V241.525H276.647ZM277.695 239.222H282.081V232.42H278.754L278.635 235.413C278.609 236.022 278.56 236.56 278.485 237.027C278.41 237.491 278.306 237.902 278.174 238.259C278.044 238.614 277.885 238.934 277.695 239.222ZM284.274 239.656V239.222H284.423C284.661 239.222 284.847 239.18 284.985 239.098C285.122 239.013 285.224 238.876 285.292 238.686C285.361 238.497 285.411 238.243 285.442 237.926C285.471 237.606 285.498 237.21 285.52 236.739L285.666 233.903H289.139V239.656H288.686V234.338H286.096L285.965 236.858C285.943 237.323 285.91 237.73 285.868 238.079C285.828 238.429 285.759 238.721 285.662 238.956C285.567 239.188 285.424 239.363 285.232 239.48C285.04 239.598 284.78 239.656 284.453 239.656H284.274ZM291.512 239.061L294.809 233.903H295.389V239.656H294.932V234.499L291.639 239.656H291.055V233.903H291.512V239.061ZM301.2 236.567V237.001H297.611V236.567H301.2ZM297.738 233.903V239.656H297.281V233.903H297.738ZM301.51 233.903V239.656H301.054V233.903H301.51ZM304.948 239.78C304.617 239.78 304.312 239.714 304.035 239.581C303.761 239.449 303.54 239.255 303.373 239.001C303.208 238.746 303.126 238.436 303.126 238.072C303.126 237.832 303.168 237.621 303.253 237.439C303.338 237.257 303.469 237.099 303.646 236.967C303.823 236.835 304.05 236.726 304.327 236.641C304.604 236.554 304.934 236.486 305.319 236.439C305.611 236.404 305.871 236.37 306.101 236.338C306.331 236.303 306.51 236.249 306.64 236.177C306.772 236.104 306.838 235.995 306.838 235.847V235.607C306.838 235.188 306.706 234.854 306.441 234.608C306.177 234.36 305.813 234.237 305.349 234.237C304.937 234.237 304.59 234.328 304.309 234.51C304.029 234.69 303.833 234.922 303.721 235.207L303.29 235.045C303.401 234.771 303.559 234.543 303.766 234.36C303.975 234.178 304.215 234.042 304.484 233.952C304.756 233.862 305.04 233.817 305.338 233.817C305.594 233.817 305.839 233.854 306.071 233.926C306.306 233.998 306.514 234.108 306.696 234.255C306.88 234.403 307.026 234.591 307.134 234.821C307.241 235.048 307.295 235.32 307.295 235.637V239.656H306.838V238.619H306.804C306.705 238.834 306.567 239.029 306.393 239.207C306.221 239.381 306.012 239.521 305.768 239.626C305.526 239.729 305.253 239.78 304.948 239.78ZM304.993 239.357C305.352 239.357 305.67 239.269 305.947 239.094C306.227 238.917 306.445 238.675 306.602 238.368C306.76 238.061 306.838 237.713 306.838 237.323V236.476C306.781 236.526 306.697 236.571 306.587 236.611C306.48 236.649 306.358 236.683 306.221 236.712C306.086 236.74 305.944 236.765 305.794 236.787C305.647 236.807 305.503 236.826 305.364 236.844C304.944 236.893 304.603 236.971 304.338 237.076C304.076 237.178 303.884 237.313 303.762 237.48C303.642 237.648 303.583 237.85 303.583 238.087C303.583 238.479 303.717 238.788 303.987 239.016C304.256 239.243 304.591 239.357 304.993 239.357ZM312.173 239.656V233.903H314.354C314.961 233.903 315.434 234.029 315.776 234.281C316.118 234.531 316.288 234.874 316.285 235.311C316.283 235.646 316.188 235.923 316.001 236.143C315.814 236.36 315.553 236.519 315.219 236.619C315.451 236.666 315.657 236.755 315.836 236.885C316.019 237.014 316.162 237.181 316.267 237.383C316.371 237.583 316.424 237.816 316.424 238.083C316.424 238.388 316.35 238.659 316.203 238.896C316.055 239.131 315.849 239.316 315.582 239.454C315.317 239.589 315.008 239.656 314.654 239.656H312.173ZM312.614 239.226H314.654C315.05 239.226 315.368 239.118 315.608 238.903C315.848 238.689 315.967 238.404 315.967 238.05C315.967 237.702 315.859 237.42 315.642 237.203C315.427 236.983 315.147 236.874 314.803 236.874H312.614V239.226ZM312.614 236.462H314.433C314.715 236.462 314.961 236.415 315.17 236.323C315.382 236.228 315.546 236.095 315.66 235.926C315.775 235.753 315.832 235.555 315.832 235.33C315.83 235.013 315.7 234.768 315.443 234.596C315.189 234.421 314.826 234.334 314.354 234.334H312.614V236.462ZM320.144 239.776C319.671 239.776 319.249 239.649 318.88 239.394C318.51 239.137 318.22 238.784 318.007 238.334C317.795 237.885 317.689 237.373 317.689 236.799C317.689 236.221 317.795 235.71 318.007 235.263C318.22 234.813 318.51 234.46 318.88 234.203C319.249 233.946 319.671 233.817 320.144 233.817C320.618 233.817 321.04 233.946 321.409 234.203C321.778 234.46 322.069 234.813 322.281 235.263C322.493 235.712 322.599 236.224 322.599 236.799C322.599 237.373 322.493 237.885 322.281 238.334C322.069 238.784 321.778 239.137 321.409 239.394C321.04 239.649 320.618 239.776 320.144 239.776ZM320.144 239.353C320.546 239.353 320.897 239.239 321.196 239.012C321.498 238.785 321.731 238.478 321.896 238.091C322.063 237.704 322.146 237.273 322.146 236.799C322.146 236.324 322.063 235.894 321.896 235.51C321.728 235.123 321.495 234.816 321.196 234.589C320.897 234.359 320.546 234.244 320.144 234.244C319.743 234.244 319.392 234.359 319.093 234.589C318.794 234.816 318.56 235.123 318.393 235.51C318.226 235.894 318.143 236.324 318.143 236.799C318.143 237.273 318.225 237.704 318.389 238.091C318.557 238.478 318.79 238.785 319.089 239.012C319.391 239.239 319.743 239.353 320.144 239.353ZM323.554 239.656V239.222H323.704C323.941 239.222 324.128 239.18 324.266 239.098C324.403 239.013 324.505 238.876 324.573 238.686C324.642 238.497 324.692 238.243 324.722 237.926C324.752 237.606 324.778 237.21 324.801 236.739L324.947 233.903H328.419V239.656H327.966V234.338H325.377L325.246 236.858C325.224 237.323 325.191 237.73 325.149 238.079C325.109 238.429 325.04 238.721 324.943 238.956C324.848 239.188 324.705 239.363 324.512 239.48C324.32 239.598 324.061 239.656 323.734 239.656H323.554ZM334.254 236.567V237.001H330.665V236.567H334.254ZM330.793 233.903V239.656H330.336V233.903H330.793ZM334.565 233.903V239.656H334.108V233.903H334.565ZM336.847 236.266H338.56C339.182 236.266 339.666 236.409 340.012 236.694C340.36 236.978 340.533 237.396 340.533 237.948C340.533 238.316 340.454 238.626 340.297 238.881C340.142 239.136 339.918 239.329 339.623 239.462C339.329 239.591 338.975 239.656 338.56 239.656H336.502V233.903H336.955V239.222H338.56C339.025 239.222 339.394 239.121 339.668 238.919C339.943 238.713 340.08 238.395 340.08 237.963C340.08 237.534 339.943 237.217 339.668 237.012C339.394 236.805 339.025 236.701 338.56 236.701H336.847V236.266ZM341.554 239.656V233.903H342.011V239.656H341.554ZM347.131 236.42C347.131 235.566 347.234 234.737 347.442 233.933C347.651 233.127 347.952 232.358 348.344 231.626H348.77C348.586 231.966 348.421 232.329 348.276 232.716C348.131 233.101 348.008 233.498 347.906 233.911C347.806 234.323 347.729 234.739 347.674 235.162C347.621 235.584 347.595 236.003 347.595 236.42C347.595 236.977 347.642 237.537 347.737 238.102C347.832 238.666 347.967 239.213 348.141 239.742C348.319 240.272 348.528 240.763 348.77 241.214H348.344C347.952 240.478 347.651 239.707 347.442 238.903C347.234 238.097 347.131 237.269 347.131 236.42ZM354.291 236.567V237.001H350.702V236.567H354.291ZM350.829 233.903V239.656H350.373V233.903H350.829ZM354.602 233.903V239.656H354.145V233.903H354.602ZM359.386 238.986L361.703 233.903H362.156L359.555 239.656H359.218L356.633 233.903H357.082L359.386 238.986ZM356.973 233.903V239.656H356.517V233.903H356.973ZM361.8 239.656V233.903H362.257V239.656H361.8ZM365.52 236.42C365.52 237.274 365.415 238.105 365.206 238.911C364.999 239.715 364.699 240.483 364.308 241.214H363.881C364.066 240.875 364.23 240.512 364.375 240.124C364.52 239.74 364.642 239.342 364.742 238.93C364.844 238.518 364.921 238.101 364.974 237.679C365.029 237.257 365.056 236.837 365.056 236.42C365.056 235.863 365.008 235.303 364.914 234.738C364.819 234.174 364.684 233.627 364.51 233.098C364.335 232.569 364.126 232.078 363.881 231.626H364.308C364.699 232.363 364.999 233.134 365.206 233.941C365.415 234.745 365.52 235.571 365.52 236.42Z" fill="white"/>
<path d="M529.241 174.377H124.114C133.523 174.144 138.692 173.279 146.654 162.95C152.575 151.136 154.921 143.291 157.484 127.207L164.217 79.4517L168.022 52.205C169.391 45.2925 170.279 45.0322 172.12 52.205L172.706 57.7716L176.804 92.6357C178.313 102.357 179.249 107.36 181.195 114.902C186.795 126.673 189.421 131.053 193.782 137.461C197.83 144.251 200.341 142.899 204.905 138.633L223.054 115.781C232.901 103.445 241.194 99.3824 258.18 94.3936C274.251 86.7603 282.176 80.7208 294.771 67.4396C306.663 53.6778 312.348 49.0041 321.408 44.0016C331.302 37.9057 336.469 39.5229 345.411 46.0524L363.853 61.287C371.94 67.0042 376.127 67.1782 382.587 58.6502L390.491 39.3139C392.973 33.1168 394.089 34.0498 395.76 40.7788L401.614 87.948C403.058 98.5831 403.775 102.724 404.834 105.82C412.395 148.81 430.542 161.435 479.478 170.275L529.241 174.377Z" fill="url(#paint0_linear_56_111)"/>
</g>
<defs>
<linearGradient id="paint0_linear_56_111" x1="124.114" y1="174.615" x2="529.241" y2="174.615" gradientUnits="userSpaceOnUse">
<stop stop-color="#0007A8"/>
<stop offset="0.222655" stop-color="#00C2FF"/>
<stop offset="0.331704" stop-color="#51FD00"/>
<stop offset="0.455" stop-color="#EAFF00"/>
<stop offset="0.575" stop-color="#CD0000"/>
<stop offset="1" stop-color="#FF0000"/>
</linearGradient>
<clipPath id="clip0_56_111">
<rect width="555" height="242" fill="white"/>
</clipPath>
</defs>
</svg>
