<svg width="410" height="52" viewBox="0 0 410 52" fill="none" xmlns="http://www.w3.org/2000/svg">
<path d="M0 25.9394C0 35.7125 8.15355 43.6347 18.2139 43.6347C18.6287 43.6347 19.0436 43.6187 19.4584 43.5948V38.1378C18.9159 38.2096 18.3654 38.2575 17.799 38.2575C11.0576 38.2575 5.58462 32.7367 5.58462 25.9394C5.58462 19.1421 11.0496 13.6213 17.799 13.6213C18.3575 13.6213 18.9159 13.6612 19.4584 13.741V8.28403C19.0515 8.2601 18.6367 8.24414 18.2139 8.24414C8.15355 8.24414 0 16.1663 0 25.9394Z" fill="#454545" fill-opacity="0.5"/>
<path d="M47.8044 13.6213C48.3628 13.6213 48.9213 13.6612 49.4638 13.741V8.28403C49.0569 8.2601 48.6421 8.24414 48.2192 8.24414C38.1589 8.24414 30.0054 16.1663 30.0054 25.9394C30.0054 35.7125 38.1589 43.6347 48.2192 43.6347C48.6341 43.6347 49.0489 43.6187 49.4638 43.5948V38.1378C48.9213 38.2096 48.3708 38.2575 47.8044 38.2575C41.9405 38.2575 37.042 34.085 35.8692 28.5323H45.9455V23.3545H35.8692C37.05 17.7938 41.9485 13.6213 47.8044 13.6213Z" fill="#454545" fill-opacity="0.5"/>
<path d="M122.389 10.6248L121.783 10.3296L121.336 11.255L121.99 11.5742C122.166 11.6539 122.317 11.6779 122.445 11.638C122.573 11.5981 122.676 11.5103 122.74 11.3667C122.804 11.2391 122.812 11.1114 122.772 10.9838C122.74 10.8482 122.613 10.7285 122.389 10.6248Z" fill="#454545" fill-opacity="0.5"/>
<path d="M118.927 9.52407C118.823 9.42035 118.688 9.34057 118.52 9.28472C118.352 9.22888 118.201 9.20494 118.049 9.21292C117.906 9.22888 117.778 9.26877 117.666 9.35653C117.563 9.43631 117.483 9.548 117.435 9.68363L117.116 10.5851C117.068 10.7208 117.06 10.8564 117.092 10.984C117.124 11.1117 117.196 11.2314 117.299 11.3271C117.403 11.4308 117.539 11.5106 117.706 11.5664C117.874 11.6223 118.025 11.6462 118.177 11.6382C118.217 11.6382 118.249 11.6303 118.289 11.6223L117.866 11.1117L118.257 10.9282L118.656 11.4069C118.711 11.3431 118.759 11.2633 118.791 11.1755L119.11 10.274C119.158 10.1384 119.166 10.0027 119.134 9.8751C119.102 9.74745 119.031 9.62778 118.927 9.52407Z" fill="#454545" fill-opacity="0.5"/>
<path d="M96.0618 31.1687H99.7556C101.87 31.1687 103.577 29.4534 103.577 27.3472V24.4113C103.577 22.2971 101.862 20.5898 99.7556 20.5898H96.0618V31.1687Z" fill="#454545" fill-opacity="0.5"/>
<path d="M135.904 12.8268C131.548 5.79021 123.753 1.09912 114.866 1.09912C105.978 1.09912 98.1839 5.79021 93.8279 12.8268H90.134V38.8352H93.8279C98.1839 45.8718 105.978 50.5629 114.866 50.5629C123.753 50.5629 131.548 45.8718 135.904 38.8352H139.598V12.8268H135.904ZM137.619 20.5895H129.713C127.886 20.5895 126.402 22.0734 126.402 23.9003V27.8495C126.402 29.6764 127.886 31.1604 129.713 31.1604H137.619V36.2583H129.713C129.218 36.2583 128.74 36.2104 128.277 36.1147L125.229 39.0107L124.017 37.7342L126.402 35.4765C123.985 34.2638 122.325 31.7587 122.325 28.8707V22.8792C122.325 19.9831 123.993 17.478 126.41 16.2654L125.963 15.7787L127.288 14.5581L128.269 15.6271C128.74 15.5314 129.218 15.4835 129.721 15.4835H132.505C128.357 9.48403 122.054 5.6466 114.994 5.6466C107.981 5.6466 101.718 9.42819 97.5775 15.3638H100.146C100.737 15.3638 101.303 15.4356 101.854 15.5633L103.122 14.1751L104.447 15.3958L103.649 16.2654C105.891 17.502 107.406 19.8874 107.406 22.6318V29.1339C107.406 31.9103 105.851 34.3197 103.569 35.5403L106.026 37.8699L104.814 39.1464L101.726 36.2184C101.216 36.3301 100.689 36.3939 100.138 36.3939H97.3063C101.463 42.2817 107.758 46.0314 114.802 46.0314C121.895 46.0314 128.221 42.2339 132.378 36.2822H134.245C129.849 43.2391 122.78 47.7547 114.802 47.7547C106.872 47.7547 99.8353 43.287 95.4314 36.3939H92.1126V15.3638H95.7107C100.099 8.407 107.103 3.90739 114.994 3.90739C122.94 3.90739 129.976 8.46285 134.364 15.4915H137.627V20.5895H137.619ZM135.457 22.8871V28.751H131.125V22.8871H135.457ZM115.751 43.0077L114.762 43.0317L114.682 40.1277L113.909 40.1516L113.885 39.4256L116.39 39.3538L116.414 40.0798L115.68 40.1037L115.751 43.0077ZM113.143 36.3939H108.555V16.0021H113.143V31.9342H122.325V36.3939H113.143ZM112.784 39.8963C112.728 39.8165 112.648 39.7687 112.552 39.7527C112.465 39.7367 112.393 39.7527 112.321 39.8006C112.249 39.8405 112.209 39.9043 112.201 39.992C112.185 40.1277 112.217 40.2314 112.305 40.3032C112.393 40.383 112.56 40.5106 112.816 40.6941C113.071 40.8776 113.254 41.0531 113.374 41.2286C113.494 41.4041 113.534 41.6196 113.51 41.8749C113.51 41.8908 113.51 41.8988 113.502 41.9147C113.502 41.9227 113.502 41.9387 113.494 41.9626C113.454 42.2339 113.366 42.4493 113.23 42.6009C113.095 42.7524 112.927 42.8561 112.72 42.896C112.52 42.9439 112.297 42.9439 112.058 42.912C112.026 42.904 111.978 42.896 111.914 42.8881C111.747 42.8561 111.595 42.8003 111.467 42.7285C111.34 42.6567 111.236 42.5689 111.156 42.4652C111.076 42.3615 111.029 42.2339 110.997 42.0982C110.973 41.9626 110.965 41.803 110.989 41.6275C110.997 41.5477 111.013 41.4759 111.029 41.4121L111.93 41.5398C111.914 41.5876 111.898 41.6435 111.89 41.7073C111.866 41.8669 111.89 41.9945 111.946 42.0903C112.002 42.186 112.09 42.2418 112.185 42.2578C112.241 42.2658 112.297 42.2578 112.353 42.2339C112.409 42.2099 112.449 42.178 112.488 42.1222C112.528 42.0663 112.552 42.0025 112.56 41.9307C112.576 41.803 112.552 41.6993 112.473 41.6196C112.393 41.5398 112.225 41.3962 111.962 41.1808C111.699 40.9654 111.507 40.7659 111.395 40.5744C111.284 40.383 111.244 40.1516 111.284 39.8883C111.308 39.7367 111.38 39.5931 111.499 39.4575C111.619 39.3219 111.778 39.2261 111.978 39.1623C112.177 39.0985 112.385 39.0825 112.624 39.1145C112.8 39.1384 112.959 39.1863 113.103 39.2421C113.246 39.3059 113.366 39.3857 113.47 39.4974C113.573 39.6011 113.645 39.7288 113.693 39.8724C113.741 40.016 113.749 40.1835 113.717 40.383C113.709 40.4228 113.709 40.4468 113.701 40.4627L112.8 40.3351C112.808 40.2952 112.816 40.2553 112.824 40.2234C112.855 40.0878 112.84 39.9761 112.784 39.8963ZM110.303 42.4892L109.345 42.2179L110.334 38.7235L111.292 38.9948L110.303 42.4892ZM109.026 41.3802L108.739 42.0504L106.752 41.1967L108.188 37.8619L109.098 38.2528L107.949 40.9255L109.026 41.3802ZM107.151 14.5022L106.242 15.2123L104.175 12.5715L105.197 11.7737C105.572 11.4785 105.978 11.3668 106.409 11.4466C106.84 11.5184 107.199 11.7498 107.486 12.1168C107.781 12.4918 107.901 12.8986 107.861 13.3294C107.829 13.7682 107.59 14.1592 107.151 14.5022ZM112.417 11.2631C112.576 11.4706 112.776 11.5743 113.039 11.5743C113.246 11.5743 113.422 11.5025 113.566 11.3668C113.709 11.2312 113.789 11.0637 113.813 10.8722L114.467 10.936C114.427 11.2711 114.276 11.5503 114.012 11.7658C113.749 11.9812 113.414 12.0929 112.991 12.0929C112.632 12.0929 112.345 12.0131 112.121 11.8615C111.898 11.7099 111.731 11.5025 111.611 11.2392C111.491 10.9759 111.427 10.6887 111.427 10.3696C111.427 9.859 111.571 9.44414 111.85 9.12502C112.129 8.8059 112.52 8.64634 113.015 8.64634C113.398 8.64634 113.725 8.75006 113.98 8.94951C114.236 9.14896 114.403 9.44414 114.467 9.82709L113.805 9.87496C113.685 9.37234 113.422 9.11704 113.007 9.11704C112.744 9.11704 112.536 9.22076 112.393 9.42819C112.249 9.63562 112.177 9.93878 112.177 10.3377C112.177 10.7446 112.257 11.0557 112.417 11.2631ZM111.435 12.5476L109.098 13.4012L107.917 10.1462L108.635 9.88294L109.624 12.6034L111.244 12.0131L111.435 12.5476ZM119.445 12.3561L119.054 12.5396L118.656 12.0609C118.56 12.0929 118.464 12.1088 118.36 12.1168C118.113 12.1327 117.85 12.0929 117.57 11.9971C117.291 11.9014 117.06 11.7658 116.876 11.5982C116.693 11.4307 116.573 11.2392 116.517 11.0238C116.462 10.8084 116.47 10.593 116.549 10.3696L116.852 9.49999C116.932 9.27661 117.06 9.09311 117.235 8.96546C117.411 8.83781 117.626 8.75803 117.874 8.74208C118.121 8.72612 118.384 8.76601 118.663 8.86175C118.943 8.95748 119.174 9.09311 119.358 9.26065C119.541 9.42819 119.661 9.61966 119.717 9.83507C119.772 10.0505 119.764 10.2659 119.685 10.4893L119.382 11.3589C119.31 11.5663 119.19 11.7338 119.038 11.8615L119.445 12.3561ZM125.078 15.0288L124.735 15.4596L122.98 14.0395L125.102 11.4227L125.644 11.8615L123.873 14.0475L125.078 15.0288ZM123.331 11.6381C123.195 11.9173 122.988 12.1008 122.716 12.1886C122.445 12.2763 122.166 12.2444 121.871 12.1088L121.097 11.7338L120.506 12.9545L119.948 12.6832L121.44 9.59573L122.7 10.21C123.059 10.3856 123.283 10.601 123.371 10.8722C123.466 11.1355 123.45 11.3908 123.331 11.6381ZM118.719 38.8831L118.855 39.5612L117.586 39.8165L117.722 40.4947L118.911 40.2553L119.062 41.0052L117.874 41.2446L118.025 41.9945L119.294 41.7392L119.437 42.4493L117.196 42.896L116.485 39.3299L118.719 38.8831ZM118.919 38.8432L119.956 38.4204C120.219 38.3166 120.435 38.2369 120.618 38.189C120.794 38.1411 120.953 38.1252 121.081 38.1411C121.208 38.1571 121.32 38.205 121.408 38.2847C121.496 38.3645 121.575 38.4842 121.639 38.6517L122.357 40.4228C122.461 40.6861 122.453 40.9175 122.325 41.1409C122.198 41.3563 121.934 41.5477 121.528 41.7153L120.283 42.2179L118.919 38.8432Z" fill="#454545" fill-opacity="0.5"/>
<path d="M121.256 41.0851C121.328 41.0372 121.384 40.9734 121.408 40.9016C121.432 40.8298 121.424 40.742 121.384 40.6463L120.77 39.1225C120.714 38.9789 120.626 38.915 120.514 38.915C120.403 38.923 120.259 38.9549 120.083 39.0267L120.977 41.2207C121.081 41.1808 121.176 41.1329 121.256 41.0851Z" fill="#454545" fill-opacity="0.5"/>
<path d="M106.21 12.0214C105.931 11.9496 105.683 11.9974 105.46 12.1729L104.981 12.5479L106.449 14.4227L106.864 14.0956C107.087 13.9201 107.215 13.6888 107.247 13.4095C107.279 13.1303 107.167 12.8271 106.92 12.516C106.728 12.2607 106.489 12.0932 106.21 12.0214Z" fill="#454545" fill-opacity="0.5"/>
<path d="M133.487 7.43355H134.332V4.5455H135.29V3.81152H132.529V4.5455H133.487V7.43355Z" fill="#454545" fill-opacity="0.5"/>
<path d="M136.446 6.1092C136.446 5.96559 136.446 5.76614 136.438 5.51084C136.43 5.25555 136.422 4.96834 136.414 4.64922L137.037 7.43355H137.882L138.521 4.64922C138.513 4.91249 138.505 5.15183 138.497 5.35128C138.489 5.55871 138.489 5.7103 138.489 5.82997V7.43355H139.263V3.81152H138.09L137.683 5.47095C137.635 5.65445 137.595 5.82997 137.555 5.98953C137.515 6.14909 137.484 6.30865 137.46 6.45225C137.436 6.31663 137.412 6.17302 137.38 6.02144C137.348 5.87783 137.316 5.72625 137.276 5.56669L136.837 3.81152H135.665V7.42557H136.446V6.1092Z" fill="#454545" fill-opacity="0.5"/>
<path d="M316.662 31.5391C318.431 31.5391 319.866 30.1046 319.866 28.335C319.866 26.5654 318.431 25.1309 316.662 25.1309C314.892 25.1309 313.458 26.5654 313.458 28.335C313.458 30.1046 314.892 31.5391 316.662 31.5391Z" fill="#454545" fill-opacity="0.5"/>
<path d="M316.333 23.4892C317.895 22.9205 318.696 21.1983 318.128 19.6363C317.687 18.4187 316.534 17.6577 315.308 17.6577C314.964 17.6577 314.619 17.7138 314.283 17.842C312.721 18.4107 311.92 20.1329 312.488 21.6949C312.929 22.9125 314.082 23.6735 315.308 23.6735C315.652 23.6655 315.997 23.6094 316.333 23.4892Z" fill="#454545" fill-opacity="0.5"/>
<path d="M311.415 16.72C312.048 16.72 312.689 16.5037 313.217 16.0632C314.403 15.0699 314.555 13.2996 313.562 12.1141C313.009 11.4492 312.216 11.1128 311.415 11.1128C310.782 11.1128 310.141 11.3291 309.613 11.7696C308.427 12.7629 308.275 14.5332 309.268 15.7187C309.821 16.3836 310.614 16.72 311.415 16.72Z" fill="#454545" fill-opacity="0.5"/>
<path d="M304.15 11.1689C304.558 11.4012 305.007 11.5134 305.447 11.5134C306.345 11.5134 307.226 11.0488 307.706 10.2077C308.427 8.96607 307.995 7.37201 306.753 6.65108C306.336 6.41879 305.888 6.30664 305.447 6.30664C304.55 6.30664 303.669 6.77124 303.188 7.61233C302.476 8.85393 302.9 10.448 304.15 11.1689Z" fill="#454545" fill-opacity="0.5"/>
<path d="M297.709 8.6138C297.853 8.63784 297.99 8.65386 298.126 8.65386C299.271 8.65386 300.281 7.8368 300.489 6.66729C300.721 5.36161 299.848 4.112 298.542 3.88771C298.398 3.86368 298.262 3.84766 298.126 3.84766C296.98 3.84766 295.971 4.66471 295.763 5.83422C295.53 7.1399 296.404 8.3815 297.709 8.6138Z" fill="#454545" fill-opacity="0.5"/>
<path d="M290.332 8.45354C290.46 8.45354 290.588 8.44552 290.716 8.42149C291.918 8.21323 292.711 7.06775 292.503 5.8662C292.31 4.80082 291.381 4.04785 290.34 4.04785C290.212 4.04785 290.083 4.05586 289.955 4.07989C288.754 4.28816 287.961 5.43364 288.169 6.63519C288.361 7.70056 289.29 8.45354 290.332 8.45354Z" fill="#454545" fill-opacity="0.5"/>
<path d="M283.018 10.9124C283.355 10.9124 283.699 10.8243 284.02 10.64C284.981 10.0873 285.309 8.86175 284.749 7.90852C284.38 7.26769 283.707 6.90723 283.018 6.90723C282.682 6.90723 282.338 6.99534 282.017 7.17958C281.056 7.73229 280.728 8.95787 281.288 9.9111C281.657 10.5519 282.33 10.9124 283.018 10.9124Z" fill="#454545" fill-opacity="0.5"/>
<path d="M277.051 15.7189C277.563 15.7189 278.076 15.5026 278.428 15.0781C279.069 14.3171 278.965 13.1796 278.204 12.5388C277.868 12.2584 277.459 12.1143 277.043 12.1143C276.53 12.1143 276.017 12.3305 275.665 12.7551C275.024 13.5161 275.128 14.6535 275.889 15.2944C276.234 15.5827 276.642 15.7189 277.051 15.7189Z" fill="#454545" fill-opacity="0.5"/>
<path d="M273.702 19.1557C273.518 19.0916 273.334 19.0596 273.158 19.0596C272.501 19.0596 271.892 19.4601 271.652 20.1169C271.347 20.95 271.78 21.8632 272.605 22.1676C272.789 22.2317 272.973 22.2637 273.15 22.2637C273.807 22.2637 274.415 21.8632 274.656 21.2063C274.968 20.3813 274.535 19.4601 273.702 19.1557Z" fill="#454545" fill-opacity="0.5"/>
<path d="M271.804 29.7367C272.578 29.7367 273.206 29.1091 273.206 28.3349C273.206 27.5607 272.578 26.9331 271.804 26.9331C271.03 26.9331 270.402 27.5607 270.402 28.3349C270.402 29.1091 271.03 29.7367 271.804 29.7367Z" fill="#454545" fill-opacity="0.5"/>
<path d="M306.008 16.4796C305.856 16.3434 305.671 16.2713 305.487 16.2713C305.215 16.2713 304.935 16.4155 304.782 16.6798L304.774 16.6959C304.59 17.0243 304.654 17.4248 304.927 17.6811C308.683 21.2057 310.83 26.4284 310.109 32.1318C309.14 39.7576 302.916 45.8455 295.274 46.6545C294.657 46.7266 294.04 46.7586 293.432 46.7586C283.755 46.7586 275.993 38.5881 276.65 28.7754C277.139 21.5341 282.369 15.3421 289.419 13.6119C290.788 13.2674 292.126 13.1153 293.432 13.1153C295.122 13.1153 296.756 13.3796 298.294 13.8442C298.374 13.8682 298.454 13.8842 298.534 13.8842C298.815 13.8842 299.079 13.7401 299.223 13.4917L299.231 13.4757C299.496 13.0191 299.255 12.4504 298.751 12.2982C297.076 11.7855 295.282 11.5132 293.432 11.5132C292.703 11.5132 291.974 11.5532 291.229 11.6413C282.738 12.6266 275.945 19.5475 275.104 28.0545C274.007 39.0767 282.634 48.3607 293.432 48.3607C294.065 48.3607 294.697 48.3287 295.338 48.2646C304.005 47.3915 310.982 40.3424 311.775 31.6672C312.32 25.6674 309.989 20.2044 306.008 16.4796Z" fill="#454545" fill-opacity="0.5"/>
<path d="M300.281 13.2758L296.043 20.6133C295.667 21.2701 295.891 22.1112 296.548 22.4877L298.334 23.521C298.55 23.6492 298.783 23.7053 299.015 23.7053C299.488 23.7053 299.952 23.4569 300.2 23.0164L304.438 15.6789C304.814 15.0221 304.59 14.181 303.933 13.8045L302.147 12.7712C301.931 12.643 301.698 12.5869 301.466 12.5869C300.993 12.5869 300.529 12.8352 300.281 13.2758Z" fill="#454545" fill-opacity="0.5"/>
<path d="M283.395 41.4163C284.268 41.4163 284.893 41.1279 285.285 40.5432C285.678 39.9584 285.87 39.1574 285.87 38.1401C285.87 37.1308 285.678 36.3378 285.285 35.753C284.893 35.1683 284.268 34.8799 283.395 34.8799C282.522 34.8799 281.897 35.1683 281.504 35.753C281.112 36.3378 280.92 37.1308 280.92 38.1401C280.92 39.1654 281.112 39.9664 281.504 40.5432C281.889 41.1199 282.522 41.4163 283.395 41.4163ZM282.586 36.7703C282.714 36.4499 282.986 36.2897 283.387 36.2897C283.787 36.2897 284.06 36.4499 284.188 36.7703C284.316 37.0907 284.38 37.5473 284.38 38.1401C284.38 38.5406 284.356 38.869 284.308 39.1334C284.26 39.3977 284.164 39.606 284.02 39.7662C283.875 39.9264 283.659 40.0065 283.379 40.0065C283.098 40.0065 282.882 39.9264 282.738 39.7662C282.594 39.606 282.498 39.3897 282.45 39.1334C282.402 38.869 282.378 38.5406 282.378 38.1401C282.394 37.5473 282.458 37.0907 282.586 36.7703Z" fill="#454545" fill-opacity="0.5"/>
<path d="M290.596 37.7231H286.719V38.9728H290.596V37.7231Z" fill="#454545" fill-opacity="0.5"/>
<path d="M294.057 41.4401V35.0078H291.614V36.4096H292.487V41.4401H294.057Z" fill="#454545" fill-opacity="0.5"/>
<path d="M297.557 41.4163C298.43 41.4163 299.055 41.1279 299.448 40.5432C299.84 39.9584 300.032 39.1574 300.032 38.1401C300.032 37.1308 299.84 36.3378 299.448 35.753C299.055 35.1683 298.43 34.8799 297.557 34.8799C296.692 34.8799 296.059 35.1683 295.667 35.753C295.274 36.3378 295.082 37.1308 295.082 38.1401C295.082 39.1654 295.274 39.9664 295.667 40.5432C296.059 41.1199 296.692 41.4163 297.557 41.4163ZM296.756 36.7703C296.884 36.4499 297.157 36.2897 297.557 36.2897C297.958 36.2897 298.23 36.4499 298.358 36.7703C298.486 37.0907 298.551 37.5473 298.551 38.1401C298.551 38.5406 298.526 38.869 298.478 39.1334C298.43 39.3977 298.334 39.606 298.19 39.7662C298.046 39.9264 297.83 40.0065 297.549 40.0065C297.269 40.0065 297.053 39.9264 296.908 39.7662C296.764 39.606 296.668 39.3897 296.62 39.1334C296.572 38.869 296.548 38.5406 296.548 38.1401C296.564 37.5473 296.628 37.0907 296.756 36.7703Z" fill="#454545" fill-opacity="0.5"/>
<path d="M303.645 39.9259L302.115 35.2559H300.513L302.708 41.4398H304.59L306.785 35.2559H305.191L303.645 39.9259Z" fill="#454545" fill-opacity="0.5"/>
<path d="M279.35 28.039C279.085 27.8547 278.781 27.7666 278.429 27.7666H277.347V32.2203H278.421C278.773 32.2203 279.077 32.1322 279.342 31.956C279.606 31.7798 279.806 31.5234 279.951 31.187C280.095 30.8506 280.167 30.4581 280.167 30.0095C280.167 29.5609 280.095 29.1604 279.951 28.824C279.806 28.4875 279.614 28.2152 279.35 28.039ZM279.31 31.195C279.101 31.4754 278.805 31.6196 278.421 31.6196H277.892V28.3594H278.429C278.813 28.3594 279.109 28.5036 279.318 28.7919C279.526 29.0803 279.622 29.4888 279.622 30.0015C279.622 30.5141 279.518 30.9147 279.31 31.195Z" fill="#454545" fill-opacity="0.5"/>
<path d="M280.984 28.6875H280.447V32.2201H280.984V28.6875Z" fill="#454545" fill-opacity="0.5"/>
<path d="M280.719 28.2152C280.816 28.2152 280.896 28.1672 280.96 28.0791C281.024 27.991 281.056 27.8788 281.056 27.7426C281.056 27.6065 281.024 27.5023 280.96 27.4062C280.896 27.3181 280.816 27.27 280.719 27.27C280.623 27.27 280.543 27.3181 280.471 27.4062C280.399 27.4943 280.375 27.6065 280.375 27.7426C280.375 27.8788 280.407 27.9829 280.471 28.0791C280.535 28.1752 280.623 28.2152 280.719 28.2152Z" fill="#454545" fill-opacity="0.5"/>
<path d="M281.432 28.6874V32.22H281.969V30.2494C281.969 29.937 282.025 29.6887 282.145 29.5205C282.265 29.3523 282.426 29.2642 282.626 29.2642C282.826 29.2642 282.986 29.3523 283.107 29.5205C283.227 29.6887 283.283 29.929 283.283 30.2494V32.22H283.819V30.2494C283.819 29.937 283.876 29.6887 283.996 29.5205C284.116 29.3523 284.276 29.2642 284.476 29.2642C284.677 29.2642 284.837 29.3523 284.957 29.5205C285.077 29.6887 285.133 29.929 285.133 30.2494V32.22H285.67V30.1373C285.67 29.8169 285.622 29.5445 285.534 29.3202C285.438 29.0959 285.309 28.9197 285.149 28.8076C284.989 28.6954 284.805 28.6313 284.596 28.6313C284.404 28.6313 284.22 28.6954 284.06 28.8236C283.892 28.9518 283.771 29.12 283.691 29.3363C283.603 29.112 283.475 28.9357 283.315 28.8156C283.155 28.6954 282.962 28.6394 282.754 28.6394C282.602 28.6394 282.45 28.6794 282.322 28.7595C282.185 28.8396 282.073 28.9518 281.985 29.0959V28.6954H281.432V28.6874Z" fill="#454545" fill-opacity="0.5"/>
<path d="M286.094 28.6874V32.22H286.631V30.2494C286.631 29.937 286.687 29.6887 286.807 29.5205C286.927 29.3523 287.088 29.2642 287.288 29.2642C287.488 29.2642 287.648 29.3523 287.768 29.5205C287.889 29.6887 287.945 29.929 287.945 30.2494V32.22H288.481V30.2494C288.481 29.937 288.537 29.6887 288.658 29.5205C288.778 29.3523 288.938 29.2642 289.138 29.2642C289.338 29.2642 289.499 29.3523 289.619 29.5205C289.739 29.6887 289.795 29.929 289.795 30.2494V32.22H290.332V30.1373C290.332 29.8169 290.284 29.5445 290.196 29.3202C290.099 29.0959 289.971 28.9197 289.811 28.8076C289.651 28.6954 289.467 28.6313 289.258 28.6313C289.066 28.6313 288.882 28.6954 288.722 28.8236C288.553 28.9518 288.433 29.12 288.353 29.3363C288.265 29.112 288.137 28.9357 287.977 28.8156C287.816 28.6954 287.624 28.6394 287.416 28.6394C287.264 28.6394 287.112 28.6794 286.983 28.7595C286.847 28.8396 286.735 28.9518 286.647 29.0959V28.6954H286.094V28.6874Z" fill="#454545" fill-opacity="0.5"/>
<path d="M291.293 28.6875H290.756V32.2201H291.293V28.6875Z" fill="#454545" fill-opacity="0.5"/>
<path d="M291.269 27.414C291.205 27.3259 291.125 27.2778 291.029 27.2778C290.933 27.2778 290.853 27.3259 290.78 27.414C290.708 27.5021 290.684 27.6143 290.684 27.7504C290.684 27.8866 290.716 27.9908 290.78 28.0869C290.845 28.183 290.933 28.2231 291.029 28.2231C291.125 28.2231 291.205 28.175 291.269 28.0869C291.333 27.9988 291.365 27.8866 291.365 27.7504C291.365 27.6143 291.333 27.5021 291.269 27.414Z" fill="#454545" fill-opacity="0.5"/>
<path d="M294.129 30.1373C294.129 29.8169 294.081 29.5445 293.993 29.3202C293.904 29.0959 293.776 28.9197 293.608 28.8076C293.448 28.6954 293.264 28.6313 293.055 28.6313C292.903 28.6313 292.751 28.6714 292.615 28.7515C292.479 28.8316 292.367 28.9438 292.278 29.0879V28.6874H291.742V32.22H292.278V30.2494C292.278 29.937 292.334 29.6887 292.455 29.5205C292.575 29.3523 292.735 29.2642 292.935 29.2642C293.135 29.2642 293.296 29.3523 293.416 29.5205C293.536 29.6887 293.592 29.929 293.592 30.2494V32.22H294.129V30.1373Z" fill="#454545" fill-opacity="0.5"/>
<path d="M296.307 33.0531C296.171 33.2293 295.995 33.3254 295.779 33.3254C295.594 33.3254 295.434 33.2693 295.298 33.1572C295.162 33.045 295.074 32.8928 295.034 32.7086H294.497C294.529 33.0931 294.665 33.3975 294.898 33.6218C295.13 33.8461 295.426 33.9582 295.779 33.9582C296.043 33.9582 296.275 33.8861 296.46 33.7419C296.652 33.5978 296.796 33.3975 296.9 33.1412C297.004 32.8848 297.052 32.5965 297.052 32.276V28.6874H296.508V29.2001C296.42 29.0399 296.299 28.9037 296.139 28.7916C295.979 28.6794 295.803 28.6313 295.602 28.6313C295.378 28.6313 295.17 28.7115 294.978 28.8556C294.793 29.0078 294.641 29.2241 294.529 29.4965C294.417 29.7688 294.369 30.0812 294.369 30.4417C294.369 30.7941 294.425 31.1146 294.529 31.3949C294.641 31.6753 294.785 31.8916 294.978 32.0518C295.162 32.204 295.37 32.2841 295.602 32.2841C295.803 32.2841 295.979 32.228 296.139 32.1158C296.299 32.0037 296.42 31.8595 296.508 31.6993V32.2921C296.508 32.6125 296.444 32.8768 296.307 33.0531ZM296.396 31.0825C296.323 31.2667 296.227 31.4029 296.107 31.499C295.987 31.5952 295.859 31.6432 295.723 31.6432C295.586 31.6432 295.458 31.5952 295.338 31.499C295.218 31.4029 295.122 31.2667 295.042 31.0825C294.97 30.8983 294.93 30.682 294.93 30.4417C294.93 30.2014 294.97 29.9851 295.042 29.8089C295.114 29.6326 295.21 29.4965 295.33 29.4084C295.45 29.3122 295.578 29.2722 295.723 29.2722C295.859 29.2722 295.995 29.3202 296.107 29.4164C296.227 29.5125 296.323 29.6487 296.396 29.8249C296.468 30.0011 296.508 30.2174 296.508 30.4577C296.508 30.698 296.468 30.9063 296.396 31.0825Z" fill="#454545" fill-opacity="0.5"/>
<path d="M300.985 32.2123L299.536 29.9935L300.969 27.7666H300.289L299.007 29.7932V27.7666H298.47V32.2123H299.007V30.2258L300.281 32.2123H300.985Z" fill="#454545" fill-opacity="0.5"/>
<path d="M301.202 28.6874V32.22H301.739V30.2494C301.739 29.937 301.795 29.6887 301.915 29.5205C302.035 29.3523 302.195 29.2642 302.395 29.2642C302.596 29.2642 302.756 29.3523 302.876 29.5205C302.996 29.6887 303.052 29.929 303.052 30.2494V32.22H303.589V30.1373C303.589 29.8169 303.541 29.5445 303.453 29.3202C303.365 29.0959 303.237 28.9197 303.068 28.8076C302.908 28.6954 302.724 28.6313 302.516 28.6313C302.363 28.6313 302.211 28.6714 302.075 28.7515C301.939 28.8316 301.827 28.9438 301.739 29.0879V28.6874H301.202Z" fill="#454545" fill-opacity="0.5"/>
<path d="M305.848 28.8483C305.647 28.6961 305.423 28.624 305.167 28.624C304.919 28.624 304.694 28.6961 304.486 28.8483C304.286 29.0005 304.125 29.2088 304.005 29.4891C303.885 29.7695 303.829 30.0819 303.829 30.4424C303.829 30.8028 303.885 31.1232 303.997 31.4036C304.109 31.676 304.27 31.8922 304.47 32.0444C304.67 32.1966 304.894 32.2687 305.135 32.2687C305.383 32.2687 305.615 32.1966 305.824 32.0444C306.032 31.8922 306.192 31.676 306.312 31.4036C306.432 31.1232 306.489 30.8108 306.489 30.4504C306.489 30.0899 306.432 29.7695 306.312 29.4971C306.208 29.2168 306.048 29.0005 305.848 28.8483ZM305.832 31.0992C305.76 31.2754 305.655 31.4116 305.535 31.4997C305.415 31.5878 305.287 31.6359 305.143 31.6359C304.927 31.6359 304.742 31.5318 304.598 31.3235C304.454 31.1152 304.382 30.8189 304.382 30.4424C304.382 30.186 304.414 29.9698 304.486 29.7935C304.558 29.6173 304.646 29.4811 304.766 29.393C304.886 29.3049 305.015 29.2568 305.151 29.2568C305.287 29.2568 305.423 29.3049 305.543 29.393C305.663 29.4811 305.76 29.6173 305.832 29.7935C305.904 29.9698 305.944 30.186 305.944 30.4424C305.944 30.6987 305.912 30.923 305.832 31.0992Z" fill="#454545" fill-opacity="0.5"/>
<path d="M306.777 27.4701V32.2122H307.314V31.6996C307.41 31.8678 307.53 32.004 307.682 32.1081C307.842 32.2122 308.019 32.2683 308.219 32.2683C308.443 32.2683 308.652 32.1882 308.844 32.036C309.036 31.8758 309.18 31.6595 309.284 31.3792C309.388 31.0988 309.445 30.7784 309.445 30.4259C309.445 30.0735 309.388 29.7531 309.284 29.4807C309.18 29.2084 309.028 28.9921 308.844 28.8399C308.66 28.6877 308.451 28.6156 308.219 28.6156C308.027 28.6156 307.842 28.6717 307.682 28.7758C307.522 28.8879 307.394 29.0241 307.306 29.1923V27.4541H306.777V27.4701ZM307.426 29.8091C307.498 29.6329 307.594 29.4967 307.722 29.4006C307.842 29.3045 307.971 29.2564 308.107 29.2564C308.243 29.2564 308.379 29.3045 308.499 29.3926C308.619 29.4807 308.716 29.6169 308.796 29.7931C308.868 29.9693 308.908 30.1776 308.908 30.4259C308.908 30.6662 308.868 30.8825 308.796 31.0668C308.724 31.251 308.627 31.3872 308.499 31.4833C308.379 31.5794 308.243 31.6275 308.107 31.6275C307.971 31.6275 307.842 31.5794 307.722 31.4833C307.602 31.3872 307.506 31.251 307.426 31.0668C307.346 30.8825 307.314 30.6743 307.314 30.4259C307.314 30.1776 307.354 29.9934 307.426 29.8091Z" fill="#454545" fill-opacity="0.5"/>
<path d="M195.44 35.54L196.37 33.2601C196.37 33.2601 187.141 29.4211 186.932 18.8429C186.932 18.8429 186.202 9.51369 195.431 4.42578C195.431 4.42578 202.48 0.0671076 210.678 4.42578C210.678 4.42578 218.867 8.36535 219.178 18.6334C219.178 18.6334 219.588 28.4823 209.639 33.2517L210.678 35.5316C210.678 35.5316 217.836 32.4219 220.426 25.0624C220.426 25.0624 223.436 17.3928 219.597 10.134C219.597 10.134 217.208 4.94547 211.407 1.94469C211.407 1.94469 203.939 -1.8943 196.37 1.21545C196.37 1.21545 189.731 3.49537 186.311 10.4441C186.311 10.4441 183.202 17.0827 185.071 23.4028C185.071 23.4028 186.84 31.3909 195.44 35.54Z" fill="#454545" fill-opacity="0.5"/>
<path d="M189.639 18.5327C189.539 28.6918 198.767 31.3908 198.767 31.3908V27.6608C193.269 24.7522 193.269 20.1924 193.269 20.1924H198.558V16.982H193.269C194.199 11.5924 198.767 9.72318 198.767 9.72318V6.09375C189.321 9.40466 189.639 18.5327 189.639 18.5327Z" fill="#454545" fill-opacity="0.5"/>
<path d="M199.488 5.88464V9.41349C199.488 9.41349 200.838 8.8938 201.558 8.8938V32.0199H204.668V8.8938C204.668 8.8938 206.328 8.99439 206.847 9.62304V5.98523C206.847 5.98523 203.117 4.63571 199.488 5.88464Z" fill="#454545" fill-opacity="0.5"/>
<path d="M207.577 6.19434V31.1813C217.426 27.3423 216.286 17.4934 216.286 17.4934H212.866C212.866 23.3021 210.586 24.9618 210.586 24.9618V7.74502C210.066 7.12474 207.577 6.19434 207.577 6.19434Z" fill="#454545" fill-opacity="0.5"/>
<path d="M213.453 15.4228C213.528 15.4228 213.595 15.4396 213.637 15.4815C213.687 15.5234 213.721 15.5821 213.738 15.6575H214.081C214.064 15.4731 214.006 15.339 213.888 15.2301C213.779 15.1295 213.637 15.0708 213.461 15.0708C213.243 15.0708 213.067 15.1462 212.933 15.3055C212.799 15.4648 212.732 15.6743 212.732 15.9425C212.732 16.194 212.799 16.4035 212.924 16.5544C213.05 16.7137 213.226 16.7891 213.436 16.7891C213.612 16.7891 213.754 16.7388 213.872 16.6299C213.981 16.5209 214.048 16.37 214.073 16.1772H213.729C213.721 16.2611 213.687 16.3281 213.637 16.3784C213.587 16.4203 213.52 16.4455 213.436 16.4455C213.335 16.4455 213.251 16.4035 213.193 16.3113C213.134 16.2191 213.109 16.1018 213.109 15.9425C213.109 15.7833 213.142 15.6575 213.201 15.5653C213.268 15.4731 213.352 15.4228 213.453 15.4228Z" fill="#454545" fill-opacity="0.5"/>
<path d="M215.523 16.0269V16.7478H215.858V15.1133H215.347L215.171 15.8593C215.154 15.9431 215.129 16.0185 215.121 16.094C215.104 16.1694 215.087 16.2365 215.079 16.3035C215.07 16.2449 215.054 16.1778 215.045 16.1107C215.028 16.0437 215.02 15.9766 214.995 15.9096L214.802 15.1133H214.291V16.7478H214.634V16.1527C214.634 16.0856 214.634 15.9934 214.634 15.8844C214.634 15.7671 214.626 15.6414 214.626 15.4905L214.894 16.7478H215.263L215.54 15.4905C215.531 15.6078 215.531 15.7168 215.531 15.809C215.531 15.9096 215.523 15.9766 215.523 16.0269Z" fill="#454545" fill-opacity="0.5"/>
<path d="M183.604 29.0771C183.562 29.3202 183.462 29.513 183.294 29.6387C183.126 29.7644 182.908 29.8315 182.623 29.8315C182.28 29.8315 182.012 29.7058 181.819 29.4543C181.634 29.2112 181.534 28.8592 181.534 28.4065C181.534 27.9539 181.634 27.5935 181.836 27.3336C182.037 27.0738 182.313 26.9397 182.657 26.9397C182.917 26.9397 183.126 26.9984 183.286 27.1073C183.445 27.2163 183.554 27.3839 183.613 27.6102H184.769C184.719 27.0989 184.509 26.6966 184.132 26.4032C183.763 26.1099 183.286 25.959 182.699 25.959C181.961 25.959 181.374 26.1853 180.93 26.6296C180.486 27.0738 180.268 27.6773 180.268 28.4233C180.268 29.1442 180.486 29.7225 180.913 30.1668C181.341 30.611 181.919 30.829 182.623 30.829C183.21 30.829 183.696 30.6781 184.065 30.3679C184.434 30.0662 184.669 29.6303 184.752 29.0771H183.604Z" fill="#454545" fill-opacity="0.5"/>
<path d="M224.19 28.977C224.19 29.3039 224.131 29.5386 224.014 29.6727C223.897 29.8152 223.712 29.8823 223.444 29.8823C223.176 29.8823 222.983 29.8152 222.866 29.6727C222.748 29.5302 222.69 29.3039 222.69 28.977V26.0098H221.566V28.8345C221.566 29.2285 221.6 29.547 221.675 29.7817C221.751 30.0164 221.877 30.2176 222.044 30.3852C222.22 30.5528 222.421 30.6786 222.656 30.7708C222.891 30.8546 223.151 30.8965 223.444 30.8965C223.737 30.8965 223.997 30.8546 224.232 30.7708C224.467 30.687 224.668 30.5612 224.844 30.3852C225.011 30.2259 225.129 30.0248 225.204 29.7817C225.28 29.547 225.313 29.2285 225.313 28.8345V26.0098H224.173V28.977H224.19Z" fill="#454545" fill-opacity="0.5"/>
<path d="M229.63 28.8343C229.555 28.6666 229.446 28.5158 229.303 28.39C229.161 28.2727 228.809 28.1134 228.239 27.9122L228.197 27.8955C228.146 27.8787 228.071 27.8536 227.97 27.82C227.426 27.6356 227.149 27.4345 227.149 27.2249C227.149 27.0992 227.208 26.9986 227.325 26.9148C227.442 26.831 227.593 26.7974 227.778 26.7974C228.012 26.7974 228.188 26.8477 228.306 26.9567C228.431 27.0657 228.499 27.2249 228.524 27.4429H229.605C229.605 26.9651 229.446 26.5795 229.136 26.3029C228.817 26.0179 228.39 25.8838 227.853 25.8838C227.308 25.8838 226.872 26.0179 226.554 26.2861C226.235 26.5544 226.076 26.9148 226.076 27.3674C226.076 27.6608 226.16 27.9206 226.328 28.1469C226.495 28.3733 226.738 28.5493 227.057 28.6834C227.283 28.7756 227.551 28.8762 227.878 28.9768C228.205 29.0774 228.406 29.1528 228.49 29.2031C228.549 29.2366 228.591 29.2785 228.616 29.3372C228.649 29.3959 228.658 29.4629 228.658 29.5384C228.658 29.6892 228.591 29.7982 228.465 29.882C228.339 29.9659 228.155 30.0078 227.929 30.0078C227.652 30.0078 227.451 29.9407 227.308 29.8066C227.166 29.6725 227.09 29.4629 227.082 29.1947H225.959C225.992 29.7647 226.16 30.2006 226.462 30.4772C226.763 30.7622 227.208 30.9046 227.786 30.9046C228.398 30.9046 228.876 30.7705 229.219 30.5107C229.563 30.2508 229.731 29.882 229.731 29.4043C229.739 29.1863 229.706 29.0019 229.63 28.8343Z" fill="#454545" fill-opacity="0.5"/>
<path d="M197.996 36.3111L198.172 35.8417L196.94 35.3807L197.569 33.6707L196.923 33.436L196.119 35.6154L197.996 36.3111Z" fill="#454545" fill-opacity="0.5"/>
<path d="M199.009 34.1434L198.454 36.4067L199.121 36.5704L199.676 34.3071L199.009 34.1434Z" fill="#454545" fill-opacity="0.5"/>
<path d="M200.729 34.9532C200.804 34.9196 200.896 34.9113 201.005 34.928C201.148 34.9448 201.248 34.9867 201.315 35.0454C201.382 35.104 201.416 35.1879 201.416 35.2968L202.061 35.3723C202.086 35.1376 202.019 34.9448 201.843 34.7855C201.667 34.6263 201.424 34.5257 201.097 34.4838C200.771 34.4419 200.502 34.4754 200.293 34.5844C200.083 34.6933 199.966 34.8526 199.941 35.0789C199.924 35.2214 199.957 35.3555 200.041 35.4729C200.125 35.5902 200.268 35.6992 200.452 35.7914C200.578 35.85 200.737 35.9255 200.93 35.9925C201.114 36.068 201.232 36.1183 201.282 36.1434C201.315 36.1602 201.332 36.1853 201.349 36.2189C201.366 36.2524 201.366 36.2859 201.366 36.3194C201.357 36.3949 201.315 36.4452 201.232 36.4703C201.148 36.5038 201.039 36.5038 200.896 36.4871C200.729 36.4703 200.611 36.42 200.536 36.3446C200.46 36.2692 200.427 36.1602 200.435 36.0345L199.773 35.9506C199.756 36.2356 199.832 36.4536 199.999 36.6128C200.167 36.7721 200.418 36.8727 200.771 36.9146C201.139 36.9565 201.433 36.9313 201.651 36.8307C201.869 36.7302 201.994 36.5625 202.019 36.3278C202.028 36.2272 202.019 36.135 201.986 36.0428C201.952 35.959 201.894 35.8752 201.818 35.8081C201.743 35.7411 201.533 35.6321 201.206 35.498L201.181 35.4896C201.148 35.4812 201.106 35.4561 201.047 35.4393C200.729 35.3052 200.578 35.1879 200.586 35.0873C200.62 35.0286 200.653 34.9783 200.729 34.9532Z" fill="#454545" fill-opacity="0.5"/>
<path d="M204.517 34.6348L202.279 34.6851L202.288 35.1628L203.067 35.1461L203.109 36.9985L203.796 36.9817L203.755 35.1293L204.534 35.1125L204.517 34.6348Z" fill="#454545" fill-opacity="0.5"/>
<path d="M205.599 35.8335L206.831 35.6323L206.747 35.1713L205.523 35.3725L205.456 34.9701L206.797 34.7438L206.722 34.2744L204.693 34.6097L205.079 36.9064L207.149 36.5627L207.065 36.0933L205.682 36.328L205.599 35.8335Z" fill="#454545" fill-opacity="0.5"/>
<path d="M207.778 36.4118L208.784 36.0682C209.203 35.9257 209.488 35.7245 209.639 35.473C209.781 35.2216 209.798 34.9114 209.672 34.5426C209.555 34.1906 209.354 33.9475 209.086 33.8302C208.817 33.7128 208.499 33.7128 208.122 33.8469L207.032 34.2241L207.778 36.4118ZM208.197 34.3247C208.398 34.2576 208.566 34.2576 208.692 34.3247C208.817 34.3918 208.926 34.5426 209.002 34.7606C209.077 34.9785 209.086 35.1545 209.027 35.2886C208.968 35.4228 208.834 35.5233 208.633 35.5988L208.281 35.7245L207.845 34.4504L208.197 34.3247Z" fill="#454545" fill-opacity="0.5"/>
<path d="M221.575 39.8901H184.451V40.8205H221.575V39.8901Z" fill="#454545" fill-opacity="0.5"/>
<path d="M192.162 46.9393C192.146 46.8974 192.112 46.8722 192.095 46.8303C192.07 46.7884 192.045 46.7465 192.011 46.7046C191.886 46.5453 191.718 46.4196 191.542 46.3274C191.316 46.21 191.056 46.1346 190.804 46.1011C190.369 46.0424 189.924 46.0843 189.522 46.2603C189.12 46.4363 188.776 46.7549 188.617 47.1572C188.617 46.8471 188.608 46.5369 188.608 46.2184C188.156 46.2184 187.711 46.2184 187.259 46.2184C187.259 48.0876 187.259 49.9484 187.259 51.8176C187.711 51.8176 188.156 51.8176 188.608 51.8176C188.608 50.4681 188.608 49.1186 188.608 47.7691C188.608 47.6937 188.608 47.6098 188.65 47.5428C188.684 47.4925 188.742 47.459 188.801 47.4338C189.178 47.241 189.589 47.0985 190.008 47.1321C190.427 47.1656 190.846 47.4338 190.955 47.8362C190.997 47.987 190.997 48.1379 190.997 48.2888C190.997 49.4623 190.997 50.6358 190.989 51.8093C191.433 51.8093 191.886 51.8093 192.33 51.8093C192.338 50.8202 192.347 49.8311 192.355 48.842C192.363 48.3307 192.363 47.811 192.263 47.2997C192.229 47.1907 192.204 47.0566 192.162 46.9393Z" fill="#454545" fill-opacity="0.5"/>
<path d="M186.01 43.8384H184.451V51.8265H186.01V43.8384Z" fill="#454545" fill-opacity="0.5"/>
<path d="M195.423 50.8372C195.314 50.8037 195.197 50.7534 195.129 50.6612C195.029 50.5355 195.029 50.3595 195.029 50.2002C195.029 49.186 195.029 48.1718 195.029 47.1491C195.44 47.1491 195.859 47.1491 196.269 47.1491C196.269 47.1491 196.261 46.4031 196.261 46.3361C196.261 46.3026 196.261 46.2523 196.228 46.2355C196.186 46.2103 196.11 46.2271 196.06 46.2187C195.926 46.2187 195.783 46.2104 195.649 46.2104C195.44 46.2104 195.238 46.2104 195.029 46.2104C195.029 45.7242 195.029 45.2464 195.029 44.7603C194.618 44.8944 194.199 45.0369 193.788 45.171C193.788 45.5146 193.788 45.8583 193.788 46.202C193.73 46.1768 193.663 46.2355 193.621 46.2858C193.403 46.5708 193.176 46.8474 192.958 47.1324C193.235 47.1324 193.512 47.1324 193.788 47.1324C193.788 48.1718 193.78 49.2111 193.78 50.2505C193.78 50.5271 193.78 50.8037 193.847 51.0719C193.914 51.3402 194.065 51.6 194.308 51.7425C194.576 51.9018 194.903 51.8934 195.213 51.9102C195.389 51.9185 195.582 51.9353 195.733 51.8599C195.733 51.8599 195.733 51.8599 195.741 51.8599C195.842 51.8096 195.909 51.7174 195.984 51.6335C196.219 51.3486 196.454 51.0552 196.689 50.7618C196.269 50.8708 195.834 50.963 195.423 50.8372Z" fill="#454545" fill-opacity="0.5"/>
<path d="M209.01 50.8372C208.901 50.8037 208.784 50.7534 208.717 50.6612C208.616 50.5355 208.616 50.3595 208.616 50.2002C208.616 49.186 208.616 48.1718 208.616 47.1491C209.027 47.1491 209.446 47.1491 209.857 47.1491C209.857 47.1491 209.848 46.4031 209.848 46.3361C209.848 46.3026 209.848 46.2523 209.815 46.2355C209.773 46.2103 209.698 46.2271 209.647 46.2187C209.513 46.2187 209.371 46.2104 209.237 46.2104C209.027 46.2104 208.826 46.2104 208.616 46.2104C208.616 45.7242 208.616 45.2464 208.616 44.7603C208.206 44.8944 207.786 45.0369 207.376 45.171C207.376 45.5146 207.376 45.8583 207.376 46.202C207.317 46.1768 207.25 46.2355 207.208 46.2858C206.99 46.5708 206.764 46.8474 206.546 47.1324C206.823 47.1324 207.099 47.1324 207.376 47.1324C207.376 48.1718 207.367 49.2111 207.367 50.2505C207.367 50.5271 207.367 50.8037 207.434 51.0719C207.501 51.3402 207.652 51.6 207.895 51.7425C208.164 51.9018 208.491 51.8934 208.801 51.9102C208.977 51.9185 209.169 51.9353 209.32 51.8599C209.32 51.8599 209.32 51.8599 209.329 51.8599C209.429 51.8096 209.496 51.7174 209.572 51.6335C209.807 51.3486 210.041 51.0552 210.276 50.7618C209.848 50.8708 209.413 50.963 209.01 50.8372Z" fill="#454545" fill-opacity="0.5"/>
<path d="M201.483 47.1241C201.198 46.5792 200.519 46.2523 199.932 46.1434C199.362 46.0344 198.767 46.1182 198.231 46.3529C197.753 46.5625 197.326 46.8894 197.057 47.3336C196.747 47.8282 196.663 48.4401 196.663 49.0184C196.672 49.798 196.865 50.6194 197.409 51.1726C197.795 51.5666 198.323 51.8013 198.868 51.9019C199.413 52.0024 199.966 51.9773 200.519 51.9102C200.67 51.8935 200.829 51.8683 200.947 51.7761C201.039 51.7091 201.097 51.6169 201.156 51.5163C201.349 51.2061 201.55 50.8876 201.743 50.5775C201.257 50.7954 200.737 50.9631 200.209 50.9882C199.672 51.0134 199.119 50.8792 198.709 50.544C198.298 50.2087 198.046 49.6471 198.155 49.1274C199.396 49.1274 200.628 49.1274 201.869 49.1274C201.877 49.1274 201.877 49.1274 201.885 49.1274C201.952 49.1274 201.843 48.197 201.827 48.1132C201.76 47.7611 201.642 47.4342 201.483 47.1241ZM198.139 48.2976C198.197 47.8198 198.482 47.3588 198.918 47.1492C199.094 47.0654 199.295 47.0403 199.488 47.057C199.647 47.0738 199.807 47.1241 199.941 47.2079C200.284 47.4258 200.452 47.9036 200.527 48.2892C199.731 48.2892 198.935 48.2976 198.139 48.2976Z" fill="#454545" fill-opacity="0.5"/>
<path d="M215.062 47.1241C214.777 46.5792 214.098 46.2523 213.511 46.1434C212.941 46.0344 212.346 46.1182 211.81 46.3529C211.332 46.5625 210.905 46.8894 210.636 47.3336C210.326 47.8282 210.242 48.4401 210.242 49.0184C210.251 49.798 210.444 50.6194 210.988 51.1726C211.374 51.5666 211.902 51.8013 212.447 51.9019C212.992 52.0024 213.545 51.9773 214.098 51.9102C214.249 51.8935 214.408 51.8683 214.526 51.7761C214.618 51.7091 214.677 51.6169 214.735 51.5163C214.928 51.2061 215.129 50.8876 215.322 50.5775C214.836 50.7954 214.316 50.9631 213.788 50.9882C213.26 51.0134 212.698 50.8792 212.288 50.544C211.877 50.2087 211.625 49.6471 211.734 49.1274C212.975 49.1274 214.207 49.1274 215.448 49.1274C215.456 49.1274 215.456 49.1274 215.464 49.1274C215.532 49.1274 215.423 48.197 215.406 48.1132C215.347 47.7611 215.23 47.4342 215.062 47.1241ZM211.718 48.2976C211.776 47.8198 212.061 47.3588 212.497 47.1492C212.673 47.0654 212.874 47.0403 213.067 47.057C213.226 47.0738 213.386 47.1241 213.52 47.2079C213.863 47.4258 214.031 47.9036 214.107 48.2892C213.31 48.2976 212.514 48.2976 211.718 48.2976Z" fill="#454545" fill-opacity="0.5"/>
<path d="M203.947 47.1492V46.2187H202.598V51.818H203.947V47.5683C203.947 47.5683 205.297 46.7384 206.227 47.5683V46.1182H205.087C205.087 46.1182 204.568 46.1182 203.947 47.1492Z" fill="#454545" fill-opacity="0.5"/>
<path d="M221.365 46.2189H219.706L217.635 48.4988H217.526V43.8384H216.076V51.9187H217.526V49.0185H217.635L220.125 51.9187H221.776L218.976 48.7084L221.365 46.2189Z" fill="#454545" fill-opacity="0.5"/>
<path d="M371.72 29.4746V33.1917H373.285V32.8901H372.063V29.4746H371.72Z" fill="#454545" fill-opacity="0.5"/>
<path d="M374.255 33.1675C374.443 33.2572 374.663 33.3061 374.907 33.3061C375.152 33.3061 375.372 33.2572 375.559 33.1675C375.747 33.0779 375.894 32.9474 375.991 32.7762C376.089 32.6051 376.146 32.4094 376.146 32.1812C376.146 31.9366 376.081 31.7328 375.959 31.5617C375.828 31.3905 375.657 31.2764 375.437 31.2193C375.641 31.1541 375.796 31.04 375.902 30.8851C376.008 30.7302 376.065 30.5427 376.065 30.3308C376.065 30.1433 376.024 29.9721 375.926 29.8172C375.828 29.6623 375.706 29.5482 375.535 29.4586C375.364 29.3689 375.152 29.3281 374.915 29.3281C374.679 29.3281 374.467 29.3689 374.296 29.4586C374.125 29.5482 373.994 29.6623 373.905 29.8172C373.815 29.964 373.766 30.1351 373.766 30.3308C373.766 30.5427 373.823 30.7302 373.929 30.8851C374.035 31.04 374.19 31.1459 374.394 31.2193C374.174 31.2764 373.994 31.3986 373.872 31.5617C373.742 31.7328 373.685 31.9366 373.685 32.1812C373.685 32.4094 373.733 32.6051 373.839 32.7762C373.945 32.9474 374.068 33.0697 374.255 33.1675ZM374.32 30.8932C374.174 30.7628 374.092 30.5835 374.092 30.3634C374.092 30.127 374.166 29.9476 374.312 29.8172C374.459 29.6949 374.655 29.6297 374.907 29.6297C375.16 29.6297 375.356 29.6949 375.502 29.8254C375.649 29.9558 375.722 30.1351 375.722 30.3634C375.722 30.5835 375.649 30.7547 375.494 30.8932C375.347 31.0237 375.144 31.0889 374.899 31.0889C374.655 31.0889 374.467 31.0237 374.32 30.8932ZM374.255 31.578C374.426 31.4475 374.646 31.3823 374.907 31.3823C375.168 31.3823 375.388 31.4475 375.559 31.5861C375.731 31.7165 375.812 31.9122 375.812 32.1812C375.812 32.4339 375.731 32.6295 375.568 32.7762C375.405 32.923 375.184 32.9963 374.907 32.9963C374.63 32.9963 374.402 32.923 374.239 32.7762C374.076 32.6295 373.994 32.4339 373.994 32.173C374.002 31.904 374.084 31.7084 374.255 31.578Z" fill="#454545" fill-opacity="0.5"/>
<path d="M377.948 33.2005C378.396 33.2005 378.706 33.0293 378.877 32.6869C379.048 32.3445 379.138 31.8636 379.138 31.2441C379.138 30.6327 379.048 30.1599 378.877 29.8257C378.706 29.4915 378.396 29.3203 377.948 29.3203C377.5 29.3203 377.19 29.4915 377.019 29.8257C376.847 30.1599 376.758 30.6327 376.758 31.2441C376.758 31.8636 376.839 32.3445 377.011 32.6869C377.182 33.0293 377.491 33.2005 377.948 33.2005ZM377.157 30.4208C377.198 30.1925 377.28 30.0132 377.41 29.8746C377.532 29.736 377.712 29.6708 377.948 29.6708C378.184 29.6708 378.364 29.736 378.486 29.8746C378.608 30.0132 378.69 30.1925 378.739 30.4208C378.779 30.649 378.804 30.9262 378.804 31.2522C378.804 31.5946 378.779 31.8799 378.739 32.1082C378.698 32.3364 378.616 32.5157 378.486 32.6543C378.364 32.7929 378.184 32.8581 377.948 32.8581C377.712 32.8581 377.532 32.7929 377.41 32.6543C377.288 32.5157 377.206 32.3364 377.157 32.1082C377.116 31.8799 377.092 31.5946 377.092 31.2522C377.092 30.9262 377.116 30.649 377.157 30.4208Z" fill="#454545" fill-opacity="0.5"/>
<path d="M381.184 29.4746V33.1917H382.749V32.8901H381.526V29.4746H381.184Z" fill="#454545" fill-opacity="0.5"/>
<path d="M383.581 30.29H383.238V33.192H383.581V30.29Z" fill="#454545" fill-opacity="0.5"/>
<path d="M383.662 29.4668C383.662 29.3852 383.638 29.3282 383.589 29.2711C383.54 29.2222 383.483 29.1978 383.409 29.1978C383.336 29.1978 383.279 29.2222 383.23 29.2711C383.181 29.32 383.157 29.3852 383.157 29.4668C383.157 29.5483 383.181 29.6135 383.23 29.6624C383.279 29.7113 383.336 29.7439 383.409 29.7439C383.483 29.7439 383.54 29.7195 383.589 29.6624C383.638 29.6135 383.662 29.5483 383.662 29.4668Z" fill="#454545" fill-opacity="0.5"/>
<path d="M384.795 33.1921V30.608H385.415V30.2983H384.795V30.0945C384.795 29.8744 384.836 29.7276 384.934 29.6298C385.032 29.532 385.17 29.4913 385.39 29.4913V29.1733C385.056 29.1733 384.82 29.2467 384.665 29.3934C384.518 29.5402 384.445 29.7766 384.445 30.0863V30.2901H384.07V30.5999H384.445V33.1839H384.795V33.1921Z" fill="#454545" fill-opacity="0.5"/>
<path d="M388.366 31.594C388.366 31.3495 388.317 31.1212 388.211 30.9175C388.105 30.7137 387.958 30.5506 387.771 30.4284C387.583 30.3061 387.355 30.249 387.102 30.249C386.849 30.249 386.621 30.3061 386.426 30.4284C386.23 30.5506 386.075 30.7218 385.961 30.9501C385.847 31.1783 385.798 31.4392 385.798 31.7408C385.798 32.0424 385.855 32.3032 385.969 32.5315C386.083 32.7597 386.238 32.9309 386.434 33.0532C386.629 33.1754 386.858 33.2325 387.11 33.2325C387.436 33.2325 387.705 33.1428 387.917 32.9635C388.129 32.7842 388.268 32.5559 388.333 32.2706H387.974C387.925 32.4663 387.828 32.6293 387.673 32.7434C387.518 32.8575 387.33 32.9227 387.11 32.9227C386.939 32.9227 386.784 32.882 386.637 32.8005C386.491 32.719 386.377 32.6048 386.295 32.45C386.205 32.2951 386.157 32.1076 386.148 31.8875H388.366C388.366 31.8141 388.366 31.7163 388.366 31.594ZM386.14 31.5777C386.157 31.2517 386.262 31.0071 386.442 30.8278C386.621 30.6485 386.841 30.5588 387.094 30.5588C387.265 30.5588 387.42 30.5995 387.567 30.6729C387.713 30.7463 387.819 30.8685 387.909 31.0153C387.991 31.1702 388.031 31.3495 388.031 31.5696H386.14V31.5777Z" fill="#454545" fill-opacity="0.5"/>
<path d="M390.167 30.608V30.2982H389.433V29.5728H389.083V30.2982H388.708V30.608H389.083V32.4095C389.083 32.6867 389.14 32.8904 389.262 33.0127C389.376 33.135 389.556 33.1921 389.8 33.1921H390.167V32.8741H389.857C389.703 32.8741 389.588 32.8415 389.531 32.7763C389.466 32.7111 389.442 32.5888 389.442 32.4095V30.608H390.167Z" fill="#454545" fill-opacity="0.5"/>
<path d="M391.08 30.29H390.738V33.192H391.08V30.29Z" fill="#454545" fill-opacity="0.5"/>
<path d="M391.154 29.4668C391.154 29.3852 391.129 29.3282 391.08 29.2711C391.031 29.2222 390.974 29.1978 390.901 29.1978C390.828 29.1978 390.77 29.2222 390.722 29.2711C390.673 29.32 390.648 29.3852 390.648 29.4668C390.648 29.5483 390.673 29.6135 390.722 29.6624C390.77 29.7113 390.828 29.7439 390.901 29.7439C390.974 29.7439 391.031 29.7195 391.08 29.6624C391.129 29.6135 391.154 29.5483 391.154 29.4668Z" fill="#454545" fill-opacity="0.5"/>
<path d="M396.093 33.1916V31.4879C396.093 31.0803 395.995 30.7706 395.8 30.5586C395.604 30.3467 395.343 30.2407 395.034 30.2407C394.814 30.2407 394.618 30.3059 394.439 30.4282C394.267 30.5505 394.137 30.7298 394.072 30.9581C393.99 30.7217 393.868 30.5505 393.697 30.4282C393.526 30.3059 393.322 30.2489 393.085 30.2489C392.89 30.2489 392.719 30.2978 392.564 30.3875C392.409 30.4853 392.287 30.6157 392.205 30.8032V30.3059H391.854V33.2079H392.197V31.6346C392.197 31.2923 392.27 31.0314 392.425 30.8521C392.572 30.6728 392.776 30.5831 393.028 30.5831C393.273 30.5831 393.469 30.6646 393.607 30.8358C393.746 31.007 393.819 31.2434 393.819 31.5613V33.2161H394.153V31.6428C394.153 31.3004 394.227 31.0396 394.381 30.8602C394.528 30.6809 394.732 30.5912 394.985 30.5912C395.229 30.5912 395.417 30.6728 395.555 30.8439C395.694 31.0151 395.767 31.2515 395.767 31.5694V33.2242H396.093V33.1916Z" fill="#454545" fill-opacity="0.5"/>
<path d="M399.272 31.594C399.272 31.3495 399.223 31.1212 399.117 30.9175C399.011 30.7137 398.865 30.5506 398.677 30.4284C398.49 30.3061 398.262 30.249 398.009 30.249C397.756 30.249 397.528 30.3061 397.332 30.4284C397.137 30.5506 396.982 30.7218 396.868 30.9501C396.753 31.1783 396.705 31.4392 396.705 31.7408C396.705 32.0424 396.762 32.3032 396.876 32.5315C396.99 32.7597 397.145 32.9309 397.34 33.0532C397.536 33.1754 397.764 33.2325 398.017 33.2325C398.343 33.2325 398.604 33.1428 398.824 32.9635C399.036 32.7842 399.175 32.5559 399.24 32.2706H398.865C398.816 32.4663 398.718 32.6293 398.563 32.7434C398.408 32.8575 398.221 32.9227 398.001 32.9227C397.83 32.9227 397.675 32.882 397.528 32.8005C397.381 32.719 397.267 32.6048 397.177 32.45C397.088 32.2951 397.039 32.1076 397.031 31.8875H399.248C399.264 31.8141 399.272 31.7163 399.272 31.594ZM397.039 31.5777C397.055 31.2517 397.161 31.0071 397.34 30.8278C397.52 30.6485 397.74 30.5588 397.993 30.5588C398.164 30.5588 398.319 30.5995 398.465 30.6729C398.612 30.7463 398.718 30.8685 398.808 31.0153C398.889 31.1702 398.93 31.3495 398.93 31.5696H397.039V31.5777Z" fill="#454545" fill-opacity="0.5"/>
<path d="M373.513 21.3966C373.407 21.046 373.236 20.7689 373.008 20.5488C372.78 20.3287 372.486 20.2227 372.136 20.2227C371.94 20.2227 371.753 20.2716 371.59 20.3613C371.427 20.451 371.288 20.5651 371.198 20.7037V19.375H373.391V17.9321H370.114V22.122H371.272C371.304 21.9509 371.37 21.8123 371.476 21.7063C371.581 21.6003 371.712 21.5514 371.867 21.5514C372.079 21.5514 372.242 21.6329 372.356 21.8041C372.47 21.9753 372.527 22.2117 372.527 22.5296C372.527 22.8475 372.47 23.1084 372.364 23.2959C372.258 23.4915 372.095 23.5812 371.875 23.5812C371.687 23.5812 371.541 23.516 371.435 23.3855C371.329 23.2551 371.255 23.0921 371.231 22.8883H370.057C370.073 23.2959 370.155 23.6627 370.302 23.9725C370.448 24.2904 370.66 24.5349 370.937 24.7061C371.215 24.8854 371.541 24.9669 371.916 24.9669C372.478 24.9669 372.91 24.7469 373.22 24.3067C373.53 23.8665 373.685 23.2714 373.685 22.5215C373.668 22.122 373.619 21.7471 373.513 21.3966Z" fill="#454545" fill-opacity="0.5"/>
<path d="M377.809 23.9888C378.119 23.353 378.274 22.4808 378.274 21.364C378.274 20.2635 378.119 19.3913 377.809 18.7555C377.5 18.1197 376.994 17.8018 376.301 17.8018C375.608 17.8018 375.103 18.1197 374.793 18.7555C374.483 19.3913 374.329 20.2635 374.329 21.364C374.329 22.4808 374.483 23.353 374.793 23.9888C375.103 24.6246 375.608 24.9425 376.301 24.9425C376.994 24.9425 377.5 24.6246 377.809 23.9888ZM375.568 22.44C375.527 22.1547 375.511 21.796 375.511 21.3558C375.511 20.7037 375.56 20.2065 375.665 19.856C375.771 19.5054 375.983 19.3343 376.301 19.3343C376.627 19.3343 376.839 19.5054 376.937 19.856C377.043 20.2065 377.092 20.7037 377.092 21.3558C377.092 21.796 377.076 22.1547 377.035 22.44C376.994 22.7253 376.921 22.9536 376.807 23.1329C376.693 23.3122 376.521 23.3937 376.301 23.3937C376.073 23.3937 375.91 23.3041 375.796 23.1329C375.682 22.9617 375.6 22.7253 375.568 22.44Z" fill="#454545" fill-opacity="0.5"/>
<path d="M380.32 23.4507H379.179L378.771 26.2141H379.537L380.32 23.4507Z" fill="#454545" fill-opacity="0.5"/>
<path d="M384.404 23.9888C384.714 23.353 384.869 22.4808 384.869 21.364C384.869 20.2635 384.714 19.3913 384.404 18.7555C384.094 18.1197 383.589 17.8018 382.896 17.8018C382.203 17.8018 381.698 18.1197 381.388 18.7555C381.078 19.3913 380.923 20.2635 380.923 21.364C380.923 22.4808 381.078 23.353 381.388 23.9888C381.698 24.6246 382.203 24.9425 382.896 24.9425C383.589 24.9425 384.086 24.6246 384.404 23.9888ZM383.63 22.44C383.589 22.7253 383.516 22.9536 383.401 23.1329C383.287 23.3122 383.116 23.3937 382.896 23.3937C382.668 23.3937 382.505 23.3041 382.391 23.1329C382.277 22.9617 382.203 22.7253 382.162 22.44C382.122 22.1547 382.105 21.796 382.105 21.3558C382.105 20.7037 382.154 20.2065 382.26 19.856C382.366 19.5054 382.578 19.3343 382.896 19.3343C383.222 19.3343 383.434 19.5054 383.532 19.856C383.638 20.2065 383.687 20.7037 383.687 21.3558C383.687 21.796 383.67 22.1547 383.63 22.44Z" fill="#454545" fill-opacity="0.5"/>
<path d="M388.977 23.9888C389.287 23.353 389.442 22.4808 389.442 21.364C389.442 20.2635 389.287 19.3913 388.977 18.7555C388.667 18.1197 388.162 17.8018 387.469 17.8018C386.776 17.8018 386.279 18.1197 385.961 18.7555C385.651 19.3913 385.496 20.2635 385.496 21.364C385.496 22.4808 385.651 23.353 385.961 23.9888C386.271 24.6246 386.776 24.9425 387.469 24.9425C388.162 24.9425 388.667 24.6246 388.977 23.9888ZM388.211 22.44C388.178 22.7253 388.097 22.9536 387.983 23.1329C387.868 23.3122 387.697 23.3937 387.469 23.3937C387.241 23.3937 387.078 23.3041 386.955 23.1329C386.833 22.9617 386.768 22.7253 386.727 22.44C386.686 22.1547 386.67 21.796 386.67 21.3558C386.67 20.7037 386.719 20.2065 386.825 19.856C386.931 19.5054 387.143 19.3343 387.461 19.3343C387.779 19.3343 387.999 19.5054 388.097 19.856C388.203 20.2065 388.252 20.7037 388.252 21.3558C388.268 21.796 388.243 22.1547 388.211 22.44Z" fill="#454545" fill-opacity="0.5"/>
<path d="M393.558 23.9888C393.868 23.353 394.023 22.4808 394.023 21.364C394.023 20.2635 393.868 19.3913 393.558 18.7555C393.248 18.1197 392.743 17.8018 392.05 17.8018C391.357 17.8018 390.852 18.1197 390.542 18.7555C390.232 19.3913 390.077 20.2635 390.077 21.364C390.077 22.4808 390.232 23.353 390.542 23.9888C390.852 24.6246 391.357 24.9425 392.05 24.9425C392.743 24.9425 393.24 24.6246 393.558 23.9888ZM391.308 22.44C391.268 22.1547 391.251 21.796 391.251 21.3558C391.251 20.7037 391.3 20.2065 391.406 19.856C391.512 19.5054 391.724 19.3343 392.042 19.3343C392.368 19.3343 392.58 19.5054 392.678 19.856C392.776 20.2065 392.833 20.7037 392.833 21.3558C392.833 21.796 392.816 22.1547 392.776 22.44C392.751 22.7253 392.67 22.9617 392.555 23.1329C392.441 23.3041 392.27 23.3937 392.05 23.3937C391.83 23.3937 391.659 23.3041 391.537 23.1329C391.414 22.9617 391.349 22.7253 391.308 22.44Z" fill="#454545" fill-opacity="0.5"/>
<path d="M396.925 24.6166H397.65V20.5571H396.925V22.1467H395.808V20.5571H395.091V24.6166H395.808V22.9455H396.925V24.6166Z" fill="#454545" fill-opacity="0.5"/>
<path d="M399.623 22.3994V21.356C399.468 21.356 399.329 21.4049 399.199 21.5108C399.069 21.6168 398.971 21.7554 398.881 21.9266V21.3886H398.164V24.6084H398.881V23.1167C398.881 22.8477 398.922 22.6684 399.02 22.5624C399.109 22.4564 399.248 22.4075 399.427 22.4075H399.623V22.3994Z" fill="#454545" fill-opacity="0.5"/>
<path d="M400.919 23.9319C400.821 23.9319 400.74 23.8993 400.666 23.8259C400.601 23.7525 400.56 23.6629 400.552 23.5569H399.843C399.851 23.7607 399.908 23.9563 399.998 24.1193C400.088 24.2905 400.218 24.421 400.373 24.5188C400.536 24.6166 400.715 24.6655 400.919 24.6655C401.107 24.6655 401.278 24.6247 401.424 24.5351C401.571 24.4536 401.677 24.3313 401.759 24.1846C401.84 24.0378 401.873 23.8666 401.873 23.6792C401.873 23.4591 401.824 23.2797 401.742 23.1412C401.661 23.0026 401.563 22.9129 401.457 22.8558C401.351 22.7988 401.204 22.7336 401.033 22.6765C400.878 22.6276 400.772 22.5868 400.699 22.5379C400.626 22.489 400.593 22.4238 400.593 22.3341C400.593 22.2608 400.617 22.1956 400.658 22.1548C400.699 22.1141 400.764 22.0896 400.854 22.0896C400.952 22.0896 401.033 22.1222 401.09 22.1874C401.147 22.2526 401.188 22.3423 401.196 22.4564H401.865C401.84 22.1222 401.742 21.8614 401.571 21.6576C401.4 21.4538 401.172 21.356 400.878 21.356C400.674 21.356 400.503 21.3967 400.365 21.4864C400.218 21.576 400.112 21.6983 400.039 21.8451C399.965 21.9999 399.925 22.163 399.925 22.3504C399.925 22.5705 399.965 22.7417 400.047 22.8722C400.128 23.0026 400.226 23.0922 400.34 23.1575C400.454 23.2227 400.593 23.2716 400.764 23.3286C400.919 23.3857 401.033 23.4346 401.107 23.4754C401.18 23.5161 401.212 23.5895 401.212 23.6792C401.212 23.7525 401.188 23.8177 401.139 23.8666C401.074 23.9074 401.009 23.9319 400.919 23.9319Z" fill="#454545" fill-opacity="0.5"/>
<path d="M364.098 23.9562C364.808 24.8121 365.566 25.5946 366.299 26.2875C366.365 25.505 366.34 24.7143 366.462 23.9317C366.976 19.4239 369.307 15.2014 372.69 12.1608C374.386 10.6365 376.334 9.38928 378.445 8.51706C378.975 8.31327 379.521 8.13394 380.059 7.9383C380.597 7.73451 381.168 7.65299 381.714 7.49811L382.268 7.35954C382.334 7.34323 382.399 7.34323 382.456 7.32693L382.839 7.26987L383.108 8.84312C383.54 8.13394 384.013 7.35139 384.559 6.6748C385.105 5.99822 385.7 5.31349 386.352 4.6206C385.7 4.00108 384.991 3.37341 384.225 2.76204C383.458 2.14252 382.651 1.64528 381.787 1.09912L382.056 2.67238L381.584 2.74574C381.502 2.76204 381.429 2.7702 381.347 2.7865L380.662 2.95768C379.986 3.13702 379.293 3.25929 378.633 3.50384C377.972 3.74023 377.304 3.96033 376.652 4.21303C374.052 5.28903 371.655 6.82153 369.56 8.6964C365.386 12.4461 362.476 17.712 361.824 23.3529C361.677 24.323 361.686 25.3093 361.62 26.2875C362.46 25.4234 363.267 24.649 364.098 23.9562Z" fill="#454545" fill-opacity="0.5"/>
<path d="M387.518 4.62918C386.678 5.33021 385.92 6.06386 385.244 6.78119C386.01 6.84641 386.792 6.82195 387.55 6.93607C391.977 7.43332 396.118 9.68316 399.126 12.9601C400.626 14.5986 401.873 16.4979 402.729 18.5602C402.941 19.0738 403.104 19.6118 403.299 20.1335C403.503 20.6552 403.585 21.2095 403.739 21.7475L403.878 22.2937C403.894 22.3507 403.902 22.4159 403.911 22.4811L403.968 22.8561L402.427 23.1251C403.12 23.5408 403.886 24.0055 404.555 24.5353C405.223 25.0652 405.891 25.6521 406.56 26.2879C407.171 25.6521 407.774 24.9511 408.378 24.2093C408.981 23.4593 409.462 22.6686 410 21.8127L408.459 22.0817L408.386 21.6252C408.37 21.5519 408.37 21.4703 408.345 21.397L408.182 20.7285C408.003 20.0683 407.88 19.3835 407.636 18.7396C407.4 18.0956 407.188 17.4353 406.927 16.7995C405.867 14.2562 404.343 11.9248 402.484 9.8951C398.775 5.83561 393.615 3.03962 388.105 2.41195C387.159 2.27337 386.197 2.28152 385.235 2.21631C386.075 3.02332 386.841 3.81402 387.518 4.62918Z" fill="#454545" fill-opacity="0.5"/>
<path d="M406.43 27.347C405.72 26.4911 404.962 25.7085 404.229 25.0156C404.163 25.7982 404.188 26.5889 404.066 27.3714C403.552 31.8793 401.221 36.1018 397.838 39.1423C396.142 40.6667 394.194 41.9139 392.083 42.7861C391.553 42.9899 391.007 43.1692 390.469 43.3648C389.931 43.5686 389.36 43.6501 388.814 43.805L388.26 43.9436C388.195 43.9599 388.129 43.9599 388.072 43.9762L387.689 44.0333L387.42 42.46C386.988 43.1692 386.515 43.9518 385.969 44.6283C385.423 45.3049 384.828 45.9896 384.176 46.6825C384.828 47.3021 385.537 47.9297 386.303 48.5411C387.07 49.1606 387.877 49.6579 388.741 50.204L388.472 48.6308L388.944 48.5574C389.026 48.5411 389.099 48.5329 389.181 48.5166L389.866 48.3455C390.542 48.1661 391.235 48.0438 391.895 47.7993C392.556 47.5629 393.224 47.3428 393.876 47.0901C396.477 46.0141 398.873 44.4816 400.968 42.6067C405.142 38.857 408.052 33.5911 408.704 27.9502C408.851 26.9802 408.842 25.9938 408.908 25.0156C408.068 25.8797 407.261 26.6622 406.43 27.347Z" fill="#454545" fill-opacity="0.5"/>
<path d="M383.018 46.6744C383.858 45.9733 384.616 45.2397 385.292 44.5224C384.526 44.4571 383.744 44.4816 382.986 44.3675C378.559 43.8702 374.418 41.6204 371.41 38.3435C369.91 36.705 368.663 34.8057 367.807 32.7433C367.595 32.2298 367.432 31.6918 367.237 31.1701C367.033 30.6484 366.951 30.0941 366.797 29.5561L366.658 29.0099C366.642 28.9528 366.634 28.8876 366.625 28.8224L366.568 28.4474L368.109 28.1784C367.416 27.7627 366.65 27.2981 365.981 26.7682C365.313 26.2384 364.645 25.6514 363.976 25.0156C363.365 25.6514 362.762 26.3525 362.158 27.0943C361.555 27.8442 361.074 28.6349 360.536 29.4908L362.077 29.2218L362.15 29.6783C362.166 29.7517 362.166 29.8332 362.191 29.9066L362.354 30.575C362.533 31.2353 362.656 31.92 362.9 32.564C363.136 33.208 363.348 33.8682 363.609 34.5041C364.669 37.0474 366.193 39.3787 368.052 41.4085C371.761 45.4598 376.929 48.2476 382.439 48.8753C383.385 49.0139 384.347 49.0057 385.309 49.0709C384.453 48.2802 383.687 47.4895 383.018 46.6744Z" fill="#454545" fill-opacity="0.5"/>
</svg>
