<svg width="42" height="42" viewBox="0 0 42 42" fill="none" xmlns="http://www.w3.org/2000/svg">
<rect width="42" height="42" rx="21" fill="#454545" fill-opacity="0.4"/>
<path fill-rule="evenodd" clip-rule="evenodd" d="M27.9445 14.0483C26.102 12.2125 23.6517 11.2011 21.0411 11.2C15.6621 11.2 11.2841 15.5567 11.282 20.9116C11.2813 22.6235 11.7307 24.2943 12.5847 25.7672L11.2002 30.8L16.3736 29.4494C17.799 30.2232 19.4039 30.631 21.0372 30.6316H21.0412C21.0409 30.6316 21.0415 30.6316 21.0412 30.6316C26.4196 30.6316 30.7979 26.2745 30.8002 20.9194C30.8011 18.3242 29.787 15.8841 27.9445 14.0483ZM21.0411 28.9913H21.0378C19.5824 28.9908 18.1549 28.6016 16.9095 27.8661L16.6133 27.6912L13.5433 28.4926L14.3628 25.5137L14.1699 25.2083C13.358 23.923 12.9292 22.4375 12.9298 20.9122C12.9315 16.4614 16.5703 12.8404 21.0444 12.8404C23.2109 12.841 25.2475 13.6818 26.779 15.2077C28.3104 16.7336 29.1533 18.7618 29.1524 20.9187C29.1506 25.3699 25.5119 28.9913 21.0411 28.9913Z" fill="white"/>
<path fill-rule="evenodd" clip-rule="evenodd" d="M25.4905 22.9453C25.2467 22.8239 24.0478 22.2369 23.8243 22.1558C23.6008 22.0748 23.4382 22.0344 23.2757 22.2773C23.1132 22.5202 22.6458 23.0668 22.5036 23.2288C22.3614 23.3907 22.2191 23.4111 21.9753 23.2895C21.7315 23.1681 20.9457 22.9118 20.0144 22.0851C19.2894 21.4415 18.8001 20.6469 18.6578 20.4039C18.5156 20.161 18.6427 20.0296 18.7648 19.9086C18.8744 19.7998 19.0086 19.6252 19.1305 19.4835C19.2524 19.3418 19.2931 19.2405 19.3744 19.0786C19.4557 18.9166 19.4151 18.7749 19.3541 18.6535C19.2931 18.532 18.8054 17.3375 18.6023 16.8515C18.4043 16.3784 18.2033 16.4425 18.0536 16.435C17.9115 16.4279 17.7488 16.4265 17.5862 16.4265C17.4237 16.4265 17.1595 16.4872 16.936 16.7301C16.7125 16.9731 16.0825 17.5602 16.0825 18.7546C16.0825 19.9491 16.9563 21.1031 17.0782 21.265C17.2001 21.4271 18.7977 23.8782 21.2438 24.9294C21.8255 25.1794 22.2798 25.3287 22.6339 25.4405C23.218 25.6253 23.7496 25.5992 24.1697 25.5367C24.6383 25.467 25.6124 24.9497 25.8156 24.3829C26.0188 23.8159 26.0189 23.33 25.9578 23.2288C25.8969 23.1276 25.7343 23.0668 25.4905 22.9453Z" fill="white"/>
</svg>
