<svg width="179" height="80" viewBox="0 0 179 80" fill="none" xmlns="http://www.w3.org/2000/svg">
<path d="M101.726 16.4838C101.632 16.0911 101.28 15.8145 100.877 15.8145C100.875 15.8145 100.873 15.8145 100.871 15.8145C96.2751 15.8433 85.0972 16.6139 80.5843 23.1279C78.2401 26.5123 78.0385 30.9065 79.9848 36.1883C79.9996 36.2293 80.0301 36.2572 80.0502 36.2947C79.3547 38.0166 79.085 39.1625 79.078 39.1948C78.9767 39.666 79.2778 40.1304 79.7491 40.2316C79.8102 40.2447 79.8713 40.2508 79.9324 40.2508C80.3347 40.2508 80.6969 39.9706 80.7851 39.5613C80.8034 39.4723 83.0271 30.5085 90.8886 25.2679C91.2901 25.0008 91.3982 24.4589 91.1303 24.0573C90.8624 23.6559 90.3213 23.5468 89.9199 23.8156C85.462 26.7872 82.7163 30.8044 81.1019 33.9881C79.9463 29.9928 80.2492 26.6772 82.0199 24.122C85.5047 19.0916 93.7704 17.8784 98.7597 17.6219C97.6863 19.1937 96.5133 22.0753 96.5133 27.1599C96.5133 29.8828 95.741 31.9791 94.2189 33.3912C91.7788 35.6524 87.8149 35.8645 84.9157 35.6463C84.4339 35.607 84.0159 35.97 83.9793 36.4509C83.9426 36.931 84.303 37.3499 84.783 37.3865C85.3633 37.431 85.983 37.4581 86.6271 37.4581C89.5786 37.4581 93.0215 36.8794 95.4049 34.6706C97.2988 32.9155 98.2588 30.3889 98.2588 27.1608C98.2588 19.2198 101.252 17.477 101.267 17.4691C101.63 17.2867 101.821 16.8783 101.726 16.4838Z" fill="white"/>
<path fill-rule="evenodd" clip-rule="evenodd" d="M61 28.282C61 12.6623 73.6623 0 89.282 0C104.902 0 117.564 12.6623 117.564 28.282C117.564 32.394 116.686 36.301 115.108 39.826H112.038C113.8 36.3596 114.793 32.4368 114.793 28.2821C114.793 14.1925 103.372 2.7706 89.2819 2.7706C75.1923 2.7706 63.7705 14.1925 63.7705 28.2821C63.7705 32.4368 64.7637 36.3596 66.5256 39.826H63.4556C61.8775 36.301 61 32.394 61 28.282Z" fill="#CBCBCB"/>
<path d="M5.86523 60.9355L4.33984 69.0137C4.19661 69.8587 4.125 70.3887 4.125 70.6035C4.125 70.8184 4.18587 70.9473 4.30762 70.9902C4.42936 71.0332 4.8125 71.0547 5.45703 71.0547H6.42383C7.67708 71.0547 8.54362 70.9329 9.02344 70.6895C9.2526 70.5749 9.52116 70.3206 9.8291 69.9268C10.137 69.5329 10.4271 69.0638 10.6992 68.5195C10.7422 68.4336 10.8496 68.3906 11.0215 68.3906C11.2721 68.3906 11.4225 68.4336 11.4727 68.5195C10.4701 70.3887 9.88281 71.5775 9.71094 72.0859C8.96615 72.0859 7.79167 72.0645 6.1875 72.0215C4.59049 71.9785 3.50195 71.957 2.92188 71.957L0.537109 72.0645C0.522786 72.0501 0.515625 71.9928 0.515625 71.8926C0.515625 71.5488 0.565755 71.377 0.666016 71.377C0.794922 71.377 0.959635 71.359 1.16016 71.3232C1.36784 71.2803 1.5612 71.2266 1.74023 71.1621C1.91927 71.0905 2.02669 71.0189 2.0625 70.9473C2.26302 70.5391 2.44922 69.873 2.62109 68.9492L4.14648 61C4.30404 60.2337 4.38281 59.5749 4.38281 59.0234C4.38281 58.916 4.30762 58.8193 4.15723 58.7334C4.014 58.6475 3.8457 58.5794 3.65234 58.5293C3.46615 58.472 3.30859 58.4434 3.17969 58.4434C3.15104 58.4434 3.13672 58.4076 3.13672 58.3359C3.13672 58.1354 3.19401 57.9779 3.30859 57.8633C3.42318 57.8704 3.61654 57.8848 3.88867 57.9062C4.16797 57.9277 4.46875 57.9492 4.79102 57.9707C5.11328 57.985 5.39258 57.9922 5.62891 57.9922C5.97266 57.9922 6.41309 57.9707 6.9502 57.9277C7.4873 57.8848 7.80599 57.8633 7.90625 57.8633V57.9277C7.90625 58.2715 7.85612 58.4434 7.75586 58.4434C7.68424 58.4434 7.5446 58.472 7.33691 58.5293C7.13639 58.5794 6.93945 58.6439 6.74609 58.7227C6.5599 58.7943 6.45247 58.8659 6.42383 58.9375C6.23047 59.36 6.04427 60.026 5.86523 60.9355ZM20.3066 57.9062C20.6003 57.9062 20.9977 57.8991 21.499 57.8848C22.0075 57.8704 22.6198 57.849 23.3359 57.8203C24.0521 57.7917 24.6823 57.7702 25.2266 57.7559C25.7708 57.7415 26.2292 57.7344 26.6016 57.7344C26.5944 57.8346 26.5872 57.9564 26.5801 58.0996C26.5801 58.2357 26.5801 58.3932 26.5801 58.5723C26.5801 58.694 26.5801 58.8444 26.5801 59.0234C26.5872 59.1953 26.5944 59.3958 26.6016 59.625C26.6087 59.8542 26.6123 60.0547 26.6123 60.2266C26.6195 60.3984 26.623 60.5417 26.623 60.6562C26.5514 60.7279 26.4225 60.7637 26.2363 60.7637C26.0645 60.7637 25.9785 60.7135 25.9785 60.6133C25.9355 59.8112 25.7493 59.3027 25.4199 59.0879C25.0905 58.873 24.5677 58.7656 23.8516 58.7656H22.6914C21.6816 58.7656 21.1374 58.8587 21.0586 59.0449C20.901 59.4746 20.7721 59.9544 20.6719 60.4844L19.9844 64.2441C19.9844 64.3301 20.0703 64.3802 20.2422 64.3945C20.4141 64.4089 20.5931 64.416 20.7793 64.416H21.7461C22.2188 64.416 22.5911 64.4053 22.8633 64.3838C23.1354 64.3623 23.3503 64.305 23.5078 64.2119C23.6654 64.1188 23.8014 63.9684 23.916 63.7607C24.0378 63.5531 24.181 63.263 24.3457 62.8906C24.3887 62.7904 24.4889 62.7402 24.6465 62.7402C24.8184 62.7402 24.9258 62.776 24.9688 62.8477L24.1738 66.9727C24.0807 67.0299 23.9805 67.0586 23.873 67.0586C23.6797 67.0586 23.5794 67.0013 23.5723 66.8867C23.5651 66.5215 23.5365 66.2314 23.4863 66.0166C23.4577 65.8805 23.4326 65.7839 23.4111 65.7266C23.3896 65.6693 23.3359 65.6048 23.25 65.5332C23.1139 65.4186 22.4193 65.3613 21.166 65.3613C20.2279 65.3613 19.7409 65.4258 19.7051 65.5547L19.082 68.7344C18.9245 69.4792 18.8457 70.1022 18.8457 70.6035C18.8457 70.8184 18.903 70.9473 19.0176 70.9902C19.1393 71.0332 19.5189 71.0547 20.1562 71.0547H21.123C22.3763 71.0547 23.2428 70.9329 23.7227 70.6895C23.9518 70.5749 24.2204 70.3206 24.5283 69.9268C24.8363 69.5329 25.1263 69.0638 25.3984 68.5195C25.4414 68.4336 25.5488 68.3906 25.7207 68.3906C25.9714 68.3906 26.1217 68.4336 26.1719 68.5195C25.1693 70.3887 24.582 71.5775 24.4102 72.0859C23.6582 72.0859 22.4801 72.0645 20.876 72.0215C19.279 71.9785 18.194 71.957 17.6211 71.957L15.2363 72.0645C15.222 72.0501 15.2148 71.9928 15.2148 71.8926C15.2148 71.6204 15.2507 71.4844 15.3223 71.4844C15.4297 71.4844 15.5908 71.4593 15.8057 71.4092C16.0205 71.3519 16.2246 71.2839 16.418 71.2051C16.6113 71.1191 16.7259 71.0332 16.7617 70.9473C16.9622 70.5391 17.1484 69.873 17.3203 68.9492L18.8672 60.957C19.0534 59.9115 19.1322 59.2454 19.1035 58.959C19.0964 58.8802 19.014 58.8014 18.8564 58.7227C18.6989 58.6439 18.527 58.5794 18.3408 58.5293C18.1546 58.472 18.0078 58.4434 17.9004 58.4434C17.8717 58.4434 17.8574 58.4147 17.8574 58.3574C17.8574 58.1283 17.9076 57.9635 18.0078 57.8633C18.3372 57.8776 18.6917 57.8883 19.0713 57.8955C19.458 57.9027 19.8698 57.9062 20.3066 57.9062ZM38.959 57.8633C40.2051 57.8633 41.2471 58.0996 42.085 58.5723C42.93 59.0449 43.5638 59.6895 43.9863 60.5059C44.416 61.3223 44.6309 62.2533 44.6309 63.2988C44.6309 64.0293 44.5234 64.7884 44.3086 65.5762C44.0938 66.3639 43.7536 67.1445 43.2881 67.918C42.8226 68.6914 42.2676 69.3861 41.623 70.002C40.9785 70.6178 40.1836 71.1156 39.2383 71.4951C38.293 71.8747 37.2689 72.0645 36.166 72.0645C36.0371 72.0645 35.8438 72.0573 35.5859 72.043C35.3353 72.0358 35.0202 72.0251 34.6406 72.0107C34.2611 71.9964 33.9137 71.9857 33.5986 71.9785C33.2907 71.9642 33.015 71.957 32.7715 71.957L30.3867 72.0645C30.3724 72.0501 30.3652 71.9928 30.3652 71.8926C30.3652 71.6204 30.401 71.4844 30.4727 71.4844C30.5801 71.4844 30.7412 71.4593 30.9561 71.4092C31.1709 71.3519 31.375 71.2839 31.5684 71.2051C31.7617 71.1191 31.8763 71.0332 31.9121 70.9473C32.1126 70.5391 32.2988 69.873 32.4707 68.9492L34.0176 60.957C34.2038 59.9115 34.2826 59.2454 34.2539 58.959C34.2467 58.8802 34.1644 58.8014 34.0068 58.7227C33.8493 58.6439 33.6774 58.5794 33.4912 58.5293C33.305 58.472 33.1582 58.4434 33.0508 58.4434C33.0221 58.4434 33.0078 58.4147 33.0078 58.3574C33.0078 58.1283 33.0579 57.9635 33.1582 57.8633C33.4876 57.8776 33.8421 57.8883 34.2217 57.8955C34.6084 57.9027 35.0202 57.9062 35.457 57.9062C35.7077 57.9062 35.9941 57.9062 36.3164 57.9062C36.6387 57.8991 36.9967 57.8919 37.3906 57.8848C37.7845 57.8776 38.1104 57.874 38.3682 57.874C38.6331 57.8669 38.8301 57.8633 38.959 57.8633ZM38.916 58.8086C37.3835 58.8086 36.5241 58.9232 36.3379 59.1523C36.1087 59.446 35.9154 60.0117 35.7578 60.8496L34.1895 69.0137C34.1465 69.2142 34.125 69.5186 34.125 69.9268C34.125 70.3421 34.1393 70.582 34.168 70.6465C34.2969 70.9329 35.1276 71.0762 36.6602 71.0762C37.8704 71.0762 38.9447 70.6859 39.8828 69.9053C40.8281 69.1247 41.5407 68.1328 42.0205 66.9297C42.5003 65.7266 42.7402 64.4518 42.7402 63.1055C42.7402 61.8451 42.4251 60.8138 41.7949 60.0117C41.1647 59.2096 40.2051 58.8086 38.916 58.8086ZM55.8281 68.3047C55.8281 67.875 55.6562 67.4561 55.3125 67.0479C54.9688 66.6396 54.5534 66.2673 54.0664 65.9307C53.8229 65.766 53.5794 65.5977 53.3359 65.4258C53.0924 65.2539 52.8454 65.0785 52.5947 64.8994C52.1006 64.5485 51.6816 64.1367 51.3379 63.6641C50.9941 63.1914 50.8223 62.6901 50.8223 62.1602C50.8223 61.3008 51.0371 60.5345 51.4668 59.8613C51.9036 59.1882 52.4837 58.6582 53.207 58.2715C53.9375 57.8848 54.7467 57.6914 55.6348 57.6914C56.0143 57.6914 56.4941 57.7702 57.0742 57.9277C57.3678 58.0065 57.6257 58.071 57.8477 58.1211C58.0697 58.1641 58.2559 58.1927 58.4062 58.207C58.3561 58.6009 58.306 58.9984 58.2559 59.3994C58.2129 59.7933 58.1699 60.1908 58.127 60.5918C58.084 61 58.0518 61.2435 58.0303 61.3223C58.0088 61.3939 57.9766 61.4297 57.9336 61.4297C57.7259 61.4297 57.5612 61.3867 57.4395 61.3008C57.4108 61.2936 57.3965 61.2077 57.3965 61.043C57.3965 60.5918 57.2962 60.1836 57.0957 59.8184C56.8952 59.4531 56.6302 59.1631 56.3008 58.9482C55.9714 58.7262 55.6133 58.6152 55.2266 58.6152C54.4102 58.6152 53.7513 58.8623 53.25 59.3564C52.7487 59.8506 52.498 60.4701 52.498 61.2148C52.498 61.974 52.849 62.6328 53.5508 63.1914C53.9518 63.5065 54.4209 63.8467 54.958 64.2119C55.5023 64.57 55.9749 64.9173 56.376 65.2539C56.6696 65.4974 56.9596 65.8447 57.2461 66.2959C57.5326 66.7471 57.6758 67.2233 57.6758 67.7246C57.6758 68.1686 57.5684 68.6413 57.3535 69.1426C57.1387 69.6439 56.8307 70.1201 56.4297 70.5713C56.0286 71.0225 55.4987 71.3949 54.8398 71.6885C54.181 71.9821 53.4577 72.1289 52.6699 72.1289C51.8965 72.1289 50.7578 71.957 49.2539 71.6133C49.2826 71.1549 49.304 70.7826 49.3184 70.4961C49.3327 70.2025 49.3398 69.9948 49.3398 69.873C49.3398 69.5579 49.3327 69.2428 49.3184 68.9277C49.304 68.6126 49.2969 68.3763 49.2969 68.2188C49.2969 68.1185 49.4329 68.0684 49.7051 68.0684C49.8411 68.0684 49.9772 68.1257 50.1133 68.2402C50.1133 68.541 50.1455 68.8418 50.21 69.1426C50.2744 69.4434 50.3962 69.7656 50.5752 70.1094C50.7542 70.4531 51.0407 70.7288 51.4346 70.9365C51.8285 71.1442 52.3047 71.248 52.8633 71.248C53.3717 71.248 53.8516 71.1299 54.3027 70.8936C54.7539 70.6572 55.1191 70.3206 55.3984 69.8838C55.6849 69.4398 55.8281 68.9134 55.8281 68.3047ZM70.0332 57.8633C70.5918 57.8633 71.1504 58.0065 71.709 58.293C72.2747 58.5723 72.7438 58.9626 73.1162 59.4639C73.4958 59.958 73.6855 60.5273 73.6855 61.1719C73.6855 61.7878 73.5495 62.3678 73.2773 62.9121C73.0052 63.4492 72.6364 63.9255 72.1709 64.3408C71.7054 64.7562 71.1826 65.082 70.6025 65.3184C70.0296 65.5475 69.4388 65.6621 68.8301 65.6621C68.1712 65.6621 67.6699 65.5977 67.3262 65.4688C67.2975 65.3828 67.2832 65.3112 67.2832 65.2539C67.2832 65.1107 67.3262 64.9961 67.4121 64.9102C67.5911 64.9388 67.763 64.9531 67.9277 64.9531C68.5794 64.9531 69.2025 64.792 69.7969 64.4697C70.3984 64.1475 70.8926 63.6855 71.2793 63.084C71.666 62.4753 71.8594 61.752 71.8594 60.9141C71.8594 59.4102 71.0859 58.6582 69.5391 58.6582C68.873 58.6582 68.4255 58.6904 68.1963 58.7549C67.9743 58.8193 67.849 58.9303 67.8203 59.0879L65.8223 69.25C65.6934 69.8945 65.6289 70.4603 65.6289 70.9473C65.6289 71.0618 65.7435 71.1657 65.9727 71.2588C66.2018 71.3519 66.431 71.4128 66.6602 71.4414L67.0254 71.4844C67.054 71.4844 67.0684 71.5417 67.0684 71.6562C67.0684 71.8424 67.0254 71.9785 66.9395 72.0645C66.2734 72.0286 65.7578 72.0036 65.3926 71.9893C65.0273 71.9678 64.8125 71.957 64.748 71.957C64.7266 71.957 64.4938 71.9678 64.0498 71.9893C63.613 72.0036 62.9648 72.0286 62.1055 72.0645C62.0768 72.0358 62.0625 71.9785 62.0625 71.8926C62.0625 71.6204 62.1126 71.4844 62.2129 71.4844C62.3203 71.4844 62.4743 71.4629 62.6748 71.4199C62.8753 71.3698 63.0687 71.3089 63.2549 71.2373C63.4411 71.1585 63.5521 71.0833 63.5879 71.0117C63.7383 70.6966 63.9245 70.0091 64.1465 68.9492L65.9082 60.0977C65.9798 59.7611 66.0156 59.3887 66.0156 58.9805C66.0156 58.8086 65.876 58.6761 65.5967 58.583C65.3174 58.4899 65.0775 58.4434 64.877 58.4434C64.8483 58.4434 64.834 58.3932 64.834 58.293C64.834 58.0853 64.8841 57.9421 64.9844 57.8633C65.6003 57.9062 66.3451 57.9277 67.2188 57.9277C67.6198 57.9277 68.0924 57.917 68.6367 57.8955C69.1882 57.874 69.6536 57.8633 70.0332 57.8633ZM82.0039 57.9062C82.2975 57.9062 82.695 57.8991 83.1963 57.8848C83.7048 57.8704 84.3171 57.849 85.0332 57.8203C85.7493 57.7917 86.3796 57.7702 86.9238 57.7559C87.4681 57.7415 87.9264 57.7344 88.2988 57.7344C88.2917 57.8346 88.2845 57.9564 88.2773 58.0996C88.2773 58.2357 88.2773 58.3932 88.2773 58.5723C88.2773 58.694 88.2773 58.8444 88.2773 59.0234C88.2845 59.1953 88.2917 59.3958 88.2988 59.625C88.306 59.8542 88.3096 60.0547 88.3096 60.2266C88.3167 60.3984 88.3203 60.5417 88.3203 60.6562C88.2487 60.7279 88.1198 60.7637 87.9336 60.7637C87.7617 60.7637 87.6758 60.7135 87.6758 60.6133C87.6328 59.8112 87.4466 59.3027 87.1172 59.0879C86.7878 58.873 86.265 58.7656 85.5488 58.7656H84.3887C83.3789 58.7656 82.8346 58.8587 82.7559 59.0449C82.5983 59.4746 82.4694 59.9544 82.3691 60.4844L81.6816 64.2441C81.6816 64.3301 81.7676 64.3802 81.9395 64.3945C82.1113 64.4089 82.2904 64.416 82.4766 64.416H83.4434C83.916 64.416 84.2884 64.4053 84.5605 64.3838C84.8327 64.3623 85.0475 64.305 85.2051 64.2119C85.3626 64.1188 85.4987 63.9684 85.6133 63.7607C85.735 63.5531 85.8783 63.263 86.043 62.8906C86.0859 62.7904 86.1862 62.7402 86.3438 62.7402C86.5156 62.7402 86.623 62.776 86.666 62.8477L85.8711 66.9727C85.778 67.0299 85.6777 67.0586 85.5703 67.0586C85.377 67.0586 85.2767 67.0013 85.2695 66.8867C85.2624 66.5215 85.2337 66.2314 85.1836 66.0166C85.1549 65.8805 85.1299 65.7839 85.1084 65.7266C85.0869 65.6693 85.0332 65.6048 84.9473 65.5332C84.8112 65.4186 84.1165 65.3613 82.8633 65.3613C81.9251 65.3613 81.4382 65.4258 81.4023 65.5547L80.7793 68.7344C80.6217 69.4792 80.543 70.1022 80.543 70.6035C80.543 70.8184 80.6003 70.9473 80.7148 70.9902C80.8366 71.0332 81.2161 71.0547 81.8535 71.0547H82.8203C84.0736 71.0547 84.9401 70.9329 85.4199 70.6895C85.6491 70.5749 85.9176 70.3206 86.2256 69.9268C86.5335 69.5329 86.8236 69.0638 87.0957 68.5195C87.1387 68.4336 87.2461 68.3906 87.418 68.3906C87.6686 68.3906 87.819 68.4336 87.8691 68.5195C86.8665 70.3887 86.2793 71.5775 86.1074 72.0859C85.3555 72.0859 84.1774 72.0645 82.5732 72.0215C80.9762 71.9785 79.8913 71.957 79.3184 71.957L76.9336 72.0645C76.9193 72.0501 76.9121 71.9928 76.9121 71.8926C76.9121 71.6204 76.9479 71.4844 77.0195 71.4844C77.127 71.4844 77.2881 71.4593 77.5029 71.4092C77.7178 71.3519 77.9219 71.2839 78.1152 71.2051C78.3086 71.1191 78.4232 71.0332 78.459 70.9473C78.6595 70.5391 78.8457 69.873 79.0176 68.9492L80.5645 60.957C80.7507 59.9115 80.8294 59.2454 80.8008 58.959C80.7936 58.8802 80.7113 58.8014 80.5537 58.7227C80.3962 58.6439 80.2243 58.5794 80.0381 58.5293C79.8519 58.472 79.7051 58.4434 79.5977 58.4434C79.569 58.4434 79.5547 58.4147 79.5547 58.3574C79.5547 58.1283 79.6048 57.9635 79.7051 57.8633C80.0345 57.8776 80.389 57.8883 80.7686 57.8955C81.1553 57.9027 81.5671 57.9062 82.0039 57.9062ZM97.3906 60.9355L95.8652 69.0137C95.7077 69.7799 95.6289 70.4245 95.6289 70.9473C95.6289 71.0618 95.7256 71.1657 95.9189 71.2588C96.1123 71.3519 96.3021 71.4128 96.4883 71.4414L96.7891 71.4844C96.8177 71.4844 96.832 71.513 96.832 71.5703C96.832 71.7279 96.7891 71.8926 96.7031 72.0645C96.0443 72.0286 95.5286 72.0036 95.1562 71.9893C94.7839 71.9678 94.5547 71.957 94.4688 71.957C94.4544 71.957 94.2503 71.9678 93.8564 71.9893C93.4626 72.0036 92.8789 72.0286 92.1055 72.0645C92.0768 72.0358 92.0625 71.9785 92.0625 71.8926C92.0625 71.6204 92.1126 71.4844 92.2129 71.4844C92.3275 71.4844 92.485 71.4629 92.6855 71.4199C92.8932 71.377 93.0866 71.3197 93.2656 71.248C93.4447 71.1764 93.5521 71.0977 93.5879 71.0117C93.7956 70.5391 93.9818 69.8516 94.1465 68.9492L95.6719 61C95.8294 60.2337 95.9082 59.5749 95.9082 59.0234C95.9082 58.916 95.833 58.8193 95.6826 58.7334C95.5394 58.6475 95.3711 58.5794 95.1777 58.5293C94.9915 58.472 94.834 58.4434 94.7051 58.4434C94.6764 58.4434 94.6621 58.4076 94.6621 58.3359C94.6621 58.1354 94.7194 57.9779 94.834 57.8633C94.9486 57.8704 95.1419 57.8848 95.4141 57.9062C95.6934 57.9277 95.9941 57.9492 96.3164 57.9707C96.6387 57.985 96.918 57.9922 97.1543 57.9922C97.498 57.9922 97.9385 57.9707 98.4756 57.9277C99.0127 57.8848 99.3314 57.8633 99.4316 57.8633V57.9277C99.4316 58.2715 99.3815 58.4434 99.2812 58.4434C99.2096 58.4434 99.07 58.472 98.8623 58.5293C98.6618 58.5794 98.4648 58.6439 98.2715 58.7227C98.0853 58.7943 97.9779 58.8659 97.9492 58.9375C97.7559 59.36 97.5697 60.026 97.3906 60.9355ZM96.6387 64.9961C97.0827 64.724 97.6305 64.3014 98.2822 63.7285C98.9339 63.1556 99.625 62.5039 100.355 61.7734C101.093 61.043 101.795 60.3125 102.461 59.582C102.533 59.5104 102.658 59.3743 102.837 59.1738C103.016 58.9661 103.105 58.8158 103.105 58.7227C103.105 58.5938 102.98 58.5007 102.729 58.4434C102.479 58.3861 102.26 58.3574 102.074 58.3574C102.031 58.3574 102.01 58.3145 102.01 58.2285C102.01 58.0996 102.046 57.9779 102.117 57.8633C102.289 57.8776 102.515 57.8955 102.794 57.917C103.073 57.9385 103.345 57.9564 103.61 57.9707C103.882 57.985 104.087 57.9922 104.223 57.9922C104.574 57.9922 105.021 57.9707 105.565 57.9277C106.117 57.8848 106.436 57.8633 106.521 57.8633C106.521 58.1927 106.479 58.3574 106.393 58.3574C105.383 58.4792 104.624 58.7943 104.115 59.3027L98.873 64.5449C98.8014 64.6165 98.7656 64.7025 98.7656 64.8027C98.7656 64.9102 98.8086 65.0247 98.8945 65.1465L103.277 70.4531C103.442 70.6536 103.675 70.8255 103.976 70.9688C104.284 71.1048 104.588 71.2122 104.889 71.291C105.189 71.3626 105.404 71.3984 105.533 71.3984C105.562 71.3984 105.576 71.4414 105.576 71.5273C105.576 71.6921 105.54 71.8424 105.469 71.9785C104.738 72.0215 104.201 72.043 103.857 72.043C103.413 72.043 102.987 71.9714 102.579 71.8281C102.257 71.7064 101.999 71.5811 101.806 71.4521C101.619 71.3232 101.473 71.1908 101.365 71.0547C99.9401 69.2428 98.8337 67.832 98.0459 66.8223C97.2581 65.8125 96.7891 65.2038 96.6387 64.9961ZM115.463 68.9492L116.945 61.3223C117.132 60.3125 117.225 59.6178 117.225 59.2383C117.225 59.1452 117.207 59.07 117.171 59.0127C117.121 58.9482 116.888 58.8945 116.473 58.8516C116.057 58.8086 115.599 58.7871 115.098 58.7871C114.596 58.7871 114.195 58.8372 113.895 58.9375C113.601 59.0306 113.35 59.2132 113.143 59.4854C112.942 59.7575 112.72 60.1621 112.477 60.6992C112.448 60.7708 112.376 60.8066 112.262 60.8066C112.076 60.8066 111.932 60.7565 111.832 60.6562L112.777 57.584C113.314 57.7415 113.766 57.8203 114.131 57.8203C114.546 57.8203 115.012 57.8311 115.527 57.8525C116.043 57.874 116.559 57.8955 117.074 57.917C117.597 57.9385 118.062 57.9492 118.471 57.9492C118.893 57.9492 119.366 57.9385 119.889 57.917C120.419 57.8955 120.945 57.874 121.468 57.8525C121.998 57.8311 122.474 57.8203 122.896 57.8203C123.219 57.8203 123.691 57.7415 124.314 57.584L124.1 60.6562C123.964 60.7565 123.799 60.8066 123.605 60.8066C123.477 60.8066 123.412 60.7708 123.412 60.6992C123.412 59.9258 123.272 59.4137 122.993 59.1631C122.714 58.9124 122.238 58.7871 121.564 58.7871C120.146 58.7871 119.387 58.8945 119.287 59.1094C119.187 59.3242 119.087 59.6107 118.986 59.9688C118.886 60.3268 118.786 60.7565 118.686 61.2578L117.182 69.0137C117.024 69.7799 116.945 70.4245 116.945 70.9473C116.945 71.0618 117.042 71.1657 117.235 71.2588C117.429 71.3519 117.618 71.4128 117.805 71.4414L118.105 71.4844C118.134 71.4844 118.148 71.513 118.148 71.5703C118.148 71.7279 118.105 71.8926 118.02 72.0645C117.361 72.0286 116.845 72.0036 116.473 71.9893C116.1 71.9678 115.871 71.957 115.785 71.957C115.771 71.957 115.567 71.9678 115.173 71.9893C114.779 72.0036 114.195 72.0286 113.422 72.0645C113.393 72.0358 113.379 71.9785 113.379 71.8926C113.379 71.6204 113.429 71.4844 113.529 71.4844C113.644 71.4844 113.801 71.4629 114.002 71.4199C114.21 71.377 114.403 71.3197 114.582 71.248C114.761 71.1764 114.868 71.0977 114.904 71.0117C115.112 70.5391 115.298 69.8516 115.463 68.9492ZM134.588 57.8633C134.989 57.8633 135.397 57.9098 135.812 58.0029C136.228 58.096 136.64 58.2464 137.048 58.4541C137.456 58.6618 137.789 58.9661 138.047 59.3672C138.305 59.7682 138.434 60.2409 138.434 60.7852C138.434 61.2292 138.337 61.666 138.144 62.0957C137.95 62.5254 137.721 62.887 137.456 63.1807C137.17 63.4886 136.862 63.7679 136.532 64.0186C136.181 64.2835 135.884 64.484 135.641 64.6201C135.397 64.7562 135.175 64.8743 134.975 64.9746C134.846 65.0176 134.81 65.1035 134.867 65.2324C135.053 65.8626 135.275 66.5143 135.533 67.1875C135.791 67.8607 136.056 68.4837 136.328 69.0566C136.6 69.6224 136.844 70.0736 137.059 70.4102C137.18 70.6107 137.32 70.7897 137.478 70.9473C137.635 71.0977 137.789 71.1979 137.939 71.248C137.982 71.2624 138.018 71.2767 138.047 71.291C138.083 71.2982 138.111 71.3089 138.133 71.3232C138.169 71.3376 138.237 71.3519 138.337 71.3662C138.401 71.3734 138.502 71.377 138.638 71.377C138.781 71.377 138.87 71.377 138.906 71.377C139.007 71.6491 139.014 71.8496 138.928 71.9785C138.591 72.0501 138.176 72.0859 137.682 72.0859C136.729 72.0859 135.949 71.6204 135.34 70.6895C135.032 70.224 134.702 69.5687 134.352 68.7236C134.001 67.8786 133.628 66.8438 133.234 65.6191C133.163 65.4186 132.848 65.3184 132.289 65.3184C131.845 65.3184 131.551 65.3363 131.408 65.3721C131.286 65.4007 131.208 65.5046 131.172 65.6836L130.549 69.0137C130.391 69.7799 130.312 70.4245 130.312 70.9473C130.312 71.0618 130.409 71.1657 130.603 71.2588C130.796 71.3519 130.986 71.4128 131.172 71.4414L131.473 71.4844C131.501 71.4844 131.516 71.513 131.516 71.5703C131.516 71.7279 131.473 71.8926 131.387 72.0645C130.721 72.0286 130.201 72.0036 129.829 71.9893C129.457 71.9678 129.231 71.957 129.152 71.957C129.131 71.957 128.923 71.9678 128.529 71.9893C128.135 72.0036 127.555 72.0286 126.789 72.0645C126.76 72.0358 126.746 71.9785 126.746 71.8926C126.746 71.6204 126.796 71.4844 126.896 71.4844C127.011 71.4844 127.169 71.4629 127.369 71.4199C127.577 71.377 127.77 71.3197 127.949 71.248C128.128 71.1764 128.236 71.0977 128.271 71.0117C128.422 70.6465 128.608 69.959 128.83 68.9492L130.592 60.0547C130.663 59.6966 130.699 59.3385 130.699 58.9805C130.699 58.8086 130.556 58.6761 130.27 58.583C129.983 58.4899 129.747 58.4434 129.561 58.4434C129.532 58.4434 129.518 58.3932 129.518 58.293C129.518 58.0853 129.568 57.9421 129.668 57.8633C130.284 57.9062 131.029 57.9277 131.902 57.9277C132.303 57.9277 132.751 57.917 133.245 57.8955C133.739 57.874 134.187 57.8633 134.588 57.8633ZM134.244 58.6582C133.514 58.6582 133.052 58.6797 132.858 58.7227C132.672 58.7656 132.561 58.8802 132.525 59.0664L131.494 64.0723V64.1152C131.494 64.3301 131.831 64.4375 132.504 64.4375C133.156 64.4375 133.786 64.3122 134.395 64.0615C134.996 63.8109 135.515 63.3883 135.952 62.7939C136.389 62.1995 136.607 61.4941 136.607 60.6777C136.607 59.3314 135.82 58.6582 134.244 58.6582ZM145.656 65.2969L146.494 61C146.652 60.2051 146.73 59.5462 146.73 59.0234C146.73 58.916 146.655 58.8193 146.505 58.7334C146.362 58.6475 146.193 58.5794 146 58.5293C145.814 58.472 145.656 58.4434 145.527 58.4434C145.499 58.4434 145.484 58.4076 145.484 58.3359C145.484 58.1354 145.542 57.9779 145.656 57.8633C145.771 57.8704 145.964 57.8848 146.236 57.9062C146.516 57.9277 146.816 57.9492 147.139 57.9707C147.461 57.985 147.74 57.9922 147.977 57.9922C148.32 57.9922 148.761 57.9707 149.298 57.9277C149.835 57.8848 150.154 57.8633 150.254 57.8633V57.9277C150.254 58.2715 150.204 58.4434 150.104 58.4434C150.032 58.4434 149.892 58.472 149.685 58.5293C149.484 58.5794 149.287 58.6439 149.094 58.7227C148.908 58.7943 148.8 58.8659 148.771 58.9375C148.578 59.36 148.392 60.026 148.213 60.9355L147.332 65.5977C147.217 66.2135 147.16 66.8223 147.16 67.4238C147.16 68.5267 147.396 69.3896 147.869 70.0127C148.342 70.6357 149.044 70.9473 149.975 70.9473C152.309 70.9473 153.777 69.3359 154.379 66.1133L155.324 61C155.496 59.9974 155.582 59.3529 155.582 59.0664C155.582 58.9518 155.482 58.848 155.281 58.7549C155.081 58.6618 154.852 58.5866 154.594 58.5293C154.343 58.472 154.135 58.4434 153.971 58.4434C153.942 58.4434 153.928 58.4004 153.928 58.3145C153.928 58.0924 153.978 57.9421 154.078 57.8633C154.193 57.8704 154.39 57.8848 154.669 57.9062C154.955 57.9277 155.256 57.9492 155.571 57.9707C155.894 57.985 156.169 57.9922 156.398 57.9922C156.535 57.9922 156.667 57.9922 156.796 57.9922C156.932 57.985 157.061 57.9779 157.183 57.9707C157.433 57.9564 157.702 57.9385 157.988 57.917C158.275 57.8955 158.511 57.8776 158.697 57.8633C158.697 58.25 158.647 58.4434 158.547 58.4434C158.475 58.4434 158.318 58.472 158.074 58.5293C157.831 58.5794 157.591 58.6439 157.354 58.7227C157.125 58.7943 156.986 58.8659 156.936 58.9375C156.821 59.0736 156.628 59.7754 156.355 61.043L155.389 66.0703C155.095 67.5885 154.694 68.7809 154.186 69.6475C153.684 70.5068 153.036 71.1156 152.241 71.4736C151.453 71.8245 150.476 72 149.309 72C148.062 72 147.092 71.6204 146.397 70.8613C145.703 70.1022 145.355 69.0065 145.355 67.5742C145.355 67.0299 145.456 66.2708 145.656 65.2969ZM170.109 68.4766L173.934 60.7637L175.287 57.8633C175.674 57.9062 176.24 57.9277 176.984 57.9277C177.235 57.9277 177.514 57.9206 177.822 57.9062C178.137 57.8919 178.481 57.8704 178.854 57.8418C178.882 57.9134 178.882 58.0352 178.854 58.207C178.825 58.3789 178.789 58.4648 178.746 58.4648C178.56 58.4648 178.363 58.515 178.155 58.6152C177.948 58.7155 177.794 58.8372 177.693 58.9805C177.564 59.1523 177.468 59.36 177.403 59.6035C177.346 59.8255 177.278 60.2552 177.199 60.8926L176.361 69.0996C176.275 69.8372 176.232 70.403 176.232 70.7969C176.232 71.0977 176.343 71.2874 176.565 71.3662C176.694 71.4092 176.848 71.4414 177.027 71.4629C177.214 71.4772 177.364 71.4844 177.479 71.4844C177.507 71.4844 177.521 71.5488 177.521 71.6777C177.521 71.8496 177.479 71.9785 177.393 72.0645C176.727 72.0286 176.197 72.0036 175.803 71.9893C175.416 71.9678 175.165 71.957 175.051 71.957C175.029 71.957 174.829 71.9678 174.449 71.9893C174.077 72.0036 173.525 72.0286 172.795 72.0645C172.766 72.0143 172.752 71.9785 172.752 71.957C172.752 71.8711 172.77 71.7708 172.806 71.6562C172.841 71.5417 172.874 71.4844 172.902 71.4844C173.031 71.4844 173.192 71.4701 173.386 71.4414C173.586 71.4056 173.772 71.359 173.944 71.3018C174.116 71.2373 174.22 71.1693 174.256 71.0977C174.399 70.7682 174.499 70.4639 174.557 70.1846C174.571 70.1058 174.592 69.9339 174.621 69.6689C174.65 69.404 174.671 69.2357 174.686 69.1641L175.545 60.7852C175.588 60.3555 175.609 60.0762 175.609 59.9473C175.609 59.8613 175.566 59.8184 175.48 59.8184C175.473 59.8184 175.452 59.847 175.416 59.9043L169.809 71.334C169.737 71.4629 169.601 71.6133 169.4 71.7852C169.2 71.957 169.014 72.043 168.842 72.043C168.777 72.043 168.72 72.0286 168.67 72L166.844 59.8184C166.837 59.7897 166.822 59.7754 166.801 59.7754C166.758 59.7754 166.736 59.7897 166.736 59.8184L164.223 69.0781C163.951 70.0664 163.814 70.6608 163.814 70.8613C163.814 70.9616 163.918 71.0618 164.126 71.1621C164.341 71.2552 164.566 71.334 164.803 71.3984C165.046 71.4557 165.204 71.4844 165.275 71.4844C165.304 71.4844 165.318 71.5273 165.318 71.6133C165.318 71.778 165.283 71.9284 165.211 72.0645C164.545 72.0286 164.026 72.0036 163.653 71.9893C163.281 71.9678 163.055 71.957 162.977 71.957C162.955 71.957 162.747 71.9678 162.354 71.9893C161.96 72.0036 161.38 72.0286 160.613 72.0645C160.585 72.0358 160.57 71.9642 160.57 71.8496C160.57 71.6061 160.62 71.4844 160.721 71.4844C160.835 71.4844 161.018 71.4593 161.269 71.4092C161.519 71.3519 161.756 71.2839 161.978 71.2051C162.207 71.1191 162.339 71.0404 162.375 70.9688C162.626 70.4961 162.862 69.8587 163.084 69.0566L165.426 60.6562C165.483 60.377 165.544 60.1012 165.608 59.8291C165.673 59.5498 165.705 59.2812 165.705 59.0234C165.705 58.916 165.605 58.8193 165.404 58.7334C165.204 58.6475 164.985 58.5794 164.749 58.5293C164.52 58.472 164.352 58.4434 164.244 58.4434C164.215 58.4434 164.201 58.3932 164.201 58.293C164.201 58.0566 164.244 57.9134 164.33 57.8633C164.86 57.8776 165.293 57.8883 165.63 57.8955C165.966 57.9027 166.206 57.9062 166.35 57.9062C166.758 57.9062 167.13 57.9027 167.467 57.8955C167.811 57.8883 168.118 57.8776 168.391 57.8633C168.455 58.4505 168.623 59.6322 168.896 61.4082C169.168 63.1771 169.544 65.5404 170.023 68.498C170.023 68.5124 170.031 68.5195 170.045 68.5195C170.088 68.5195 170.109 68.5052 170.109 68.4766Z" fill="white"/>
</svg>
